<svg id="Capa_1" enable-background="new 0 0 512 512" height="512" viewBox="0 0 512 512" width="512" xmlns="http://www.w3.org/2000/svg"><g><g><g><path d="m353.928 325.491c0 10.635-7.897 19.608-18.429 20.942l-131.1 16.604 55.678 6.711c51.969 6.264 104.587-4.061 150.356-29.505l49.033-32.563c8.851-4.921 10.044-20.386 10.044-20.386-.499-1.088-1.109-2.145-1.832-3.159-5.531-7.742-15.917-10.208-24.328-5.775z" fill="#f4b184"/><path d="m461.435 311.889c8.85-4.92 12.135-15.743 8.076-24.594l-121.837 65.294-45.112-1.985-98.167 12.433 55.678 6.711c51.969 6.264 104.587-4.061 150.356-29.505z" fill="#eaa678"/><g><path d="m199.273 391.538 198.411-18.936 44.883-44.566.108-24.305c-5.398-3.699-11.364-6.628-17.742-8.629 1.405-4.337 2.172-8.96 2.172-13.764 0-24.656-19.988-44.644-44.644-44.644 0-32.252-26.145-58.397-58.397-58.397-18.637 0-35.223 8.742-45.915 22.336-9.224-17.493-27.579-29.424-48.729-29.424-30.411 0-55.064 24.653-55.064 55.064 0 2.568.19 5.09.53 7.564-1.536-.12-3.083-.199-4.65-.199-30.292 0-55.252 22.76-58.749 52.111z" fill="#8bcaff"/></g><g><g fill="#60b8ff"><path d="m197.016 323.85 154.751-7.627c1.387-2.82 2.162-5.987 2.162-9.316 0-11.658-9.434-21.109-21.072-21.109h-103.436s-39.876-17.914-87.417-9.061c-9.756 1.817-21.45 5.559-30.516 9.013-.277 2.321-.436 4.678-.436 7.074 0 3.841.379 7.592 1.078 11.23z"/><path d="m442.67 303.739-32.236 17.921c-38.603 21.46-82.079 32.165-125.928 31.232l-85.939-4.493.706 43.139 198.411-18.936 57.825-57.416c-3.766-4.342-8.085-8.189-12.839-11.447z"/></g></g><path d="m56.097 336.627s38.366-32.453 85.906-41.306c47.541-8.853 87.417 9.061 87.417 9.061h103.436c11.638 0 21.072 9.451 21.072 21.109 0 10.635-7.897 19.608-18.429 20.942l-131.1 16.604 55.678 6.711c51.97 6.264 104.587-4.061 150.356-29.505l69.661-38.726c8.82-4.652 19.566-2.7 26.206 4.507l1.4 3.316c2.446 10.376-5.362 22.159-17.088 28.549l-98 53.647c-51.057 27.824-102.96 59.066-160.853 53.897l-175.662-15.679h-46.805l-9.292-11.643v-76.322c0-2.851 2.311-5.162 5.162-5.162z" fill="#ffc89f"/><g><path d="m507.787 307.82c-.468-.631-.964-1.228-1.485-1.794-1.554 5.38-5.16 10.197-10.536 13.127l-101.862 55.51c-51.057 27.823-109.184 64.299-167.078 59.131l-175.663-15.683h-51.163v15.772c0 2.851 2.311 5.162 5.162 5.162h50.935l175.663 15.682c57.893 5.168 116.02-31.307 167.077-59.131l101.386-55.25c11.742-6.397 15.536-21.791 7.564-32.526z" fill="#f7bc94"/></g></g><path d="m462.998 171.207c-3.676-9.079-12.578-15.483-22.975-15.483s-19.299 6.404-22.975 15.483c0 0 0 25.601 22.975 25.601s22.975-25.601 22.975-25.601z" fill="#8bcaff"/><path d="m440.023 186.694c-10.397 0-19.299-6.409-22.975-15.488-1.162 2.87-1.802 6.008-1.802 9.295 0 13.684 11.093 24.777 24.778 24.777 13.684 0 24.778-11.093 24.778-24.777 0-3.287-.64-6.424-1.802-9.295-3.678 9.079-12.58 15.488-22.977 15.488z" fill="#60b8ff"/><path d="m137.008 170.628c-3.983-13.121-16.175-22.671-30.597-22.671-14.424 0-26.618 9.553-30.599 22.677 0 0-.041 33.704 30.599 33.704 30.638 0 30.597-33.71 30.597-33.71z" fill="#8bcaff"/><path d="m106.411 193.314c-14.424 0-26.613-9.554-30.594-22.678-.892 2.941-1.376 6.06-1.376 9.292 0 17.657 14.314 31.97 31.97 31.97s31.97-14.314 31.97-31.97c0-3.232-.481-6.359-1.374-9.3-3.98 13.124-16.172 22.686-30.596 22.686z" fill="#60b8ff"/><path d="m306.405 85.616c-4.149-16.567-19.137-28.837-36.99-28.837s-32.841 12.27-36.99 28.837c0 0-1.14 38.631 36.99 38.631s36.99-38.631 36.99-38.631z" fill="#8bcaff"/><path d="m269.415 114.455c-17.853 0-32.836-12.272-36.985-28.838-.745 2.975-1.146 6.086-1.146 9.292 0 21.059 17.072 38.131 38.131 38.131s38.131-17.072 38.131-38.131c0-3.206-.396-6.319-1.141-9.294-4.15 16.567-19.137 28.84-36.99 28.84z" fill="#60b8ff"/></g></g></svg>