<?xml version="1.0" encoding="utf-8"?>
<!-- Generator: Adobe Illustrator 15.1.0, SVG Export Plug-In . SVG Version: 6.00 Build 0)  -->
<!DOCTYPE svg PUBLIC "-//W3C//DTD SVG 1.1//EN" "http://www.w3.org/Graphics/SVG/1.1/DTD/svg11.dtd">
<svg version="1.1" id="Layer_1" xmlns="http://www.w3.org/2000/svg" xmlns:xlink="http://www.w3.org/1999/xlink" x="0px" y="0px"
	 width="512px" height="512px" viewBox="0 0 512 512" enable-background="new 0 0 512 512" xml:space="preserve">
<g>
	<g>
		<path fill="#FFD321" d="M256,212.737H149.622c-5.485,0-9.932-4.441-9.932-9.927v-0.011c0-34.858,28.196-63.109,63.11-63.109
			c34.935,0,63.131,28.246,63.131,63.109C265.932,208.285,261.485,212.737,256,212.737z"/>
		<path fill="#FF8E00" d="M202.811,139.69v73.047H256c5.485,0,9.932-4.453,9.932-9.938
			C265.932,167.939,237.741,139.696,202.811,139.69z"/>
		<ellipse fill="#FFDCD2" cx="202.787" cy="123.03" rx="36.522" ry="36.522"/>
		<path fill="#FFC3BE" d="M202.811,159.553V86.5c20.141,0,36.527,16.386,36.527,36.526S222.952,159.553,202.811,159.553
			L202.811,159.553z"/>
		<path fill="#BEEB00" d="M362.379,212.737H256c-5.485,0-9.932-4.441-9.932-9.927v-0.011c0-34.858,28.196-63.109,63.11-63.109
			c34.935,0,63.132,28.246,63.132,63.109C372.311,208.285,367.864,212.737,362.379,212.737z"/>
		<path fill="#6ED200" d="M309.189,139.69v73.047h53.189c5.485,0,9.932-4.453,9.932-9.938
			C372.311,167.939,344.119,139.696,309.189,139.69z"/>
		<ellipse fill="#FFDCD2" cx="309.146" cy="123.039" rx="36.522" ry="36.522"/>
		<path fill="#FFC3BE" d="M309.189,159.553V86.5c20.141,0,36.526,16.386,36.526,36.526S329.33,159.553,309.189,159.553z"/>
	</g>
	<path fill="#6ED2FF" d="M202.811,319.116H96.432c-5.485,0-9.932-4.441-9.932-9.927v-0.011c0-34.858,28.196-63.11,63.11-63.11
		c34.935,0,63.131,28.246,63.131,63.11C212.742,314.664,208.296,319.116,202.811,319.116z"/>
	<path fill="#46A0FF" d="M149.621,246.069v73.047h53.189c5.485,0,9.932-4.453,9.932-9.938
		C212.742,274.318,184.551,246.075,149.621,246.069L149.621,246.069z"/>
	<ellipse fill="#FFDCD2" cx="149.597" cy="229.385" rx="36.522" ry="36.522"/>
	<path fill="#FFC3BE" d="M149.621,265.933v-73.054c20.141,0,36.526,16.386,36.526,36.527S169.762,265.933,149.621,265.933z"/>
	<path fill="#3246D2" d="M309.189,319.116H202.811c-5.485,0-9.932-4.441-9.932-9.927v-0.011c0-34.858,28.196-63.11,63.11-63.11
		c34.936,0,63.132,28.246,63.132,63.11C319.121,314.664,314.674,319.116,309.189,319.116z"/>
	<path fill="#141E96" d="M256,246.069v73.047h53.189c5.484,0,9.932-4.453,9.932-9.938C319.121,274.318,290.93,246.075,256,246.069
		L256,246.069z"/>
	<ellipse fill="#FFDCD2" cx="255.956" cy="229.394" rx="36.522" ry="36.522"/>
	<path fill="#FFC3BE" d="M256,265.933v-73.054c20.141,0,36.526,16.386,36.526,36.527S276.14,265.933,256,265.933z"/>
	<path fill="#FF8E00" d="M415.568,319.116H309.189c-5.485,0-9.932-4.441-9.932-9.927v-0.011c0-34.858,28.195-63.11,63.11-63.11
		c34.935,0,63.131,28.246,63.131,63.11C425.5,314.664,421.054,319.116,415.568,319.116z"/>
	<path fill="#FF4D05" d="M362.379,246.069v73.047h53.189c5.485,0,9.932-4.453,9.932-9.938
		C425.5,274.318,397.309,246.075,362.379,246.069L362.379,246.069z"/>
	<ellipse fill="#FFDCD2" cx="362.316" cy="229.404" rx="36.522" ry="36.522"/>
	<path fill="#FFC3BE" d="M362.379,265.933v-73.054c20.141,0,36.527,16.386,36.527,36.527S382.52,265.933,362.379,265.933z"/>
	<g>
		<path fill="#FF4D05" d="M256,425.5H149.621c-5.485,0-9.932-4.441-9.932-9.927v-0.011c0-34.858,28.196-63.109,63.11-63.109
			c34.935,0,63.131,28.245,63.131,63.109C265.932,421.048,261.485,425.5,256,425.5z"/>
		<path fill="#D0004F" d="M202.811,352.453V425.5H256c5.485,0,9.932-4.452,9.932-9.938
			C265.932,380.701,237.74,352.459,202.811,352.453z"/>
		<ellipse fill="#FFDCD2" cx="202.768" cy="335.753" rx="36.522" ry="36.522"/>
		<path fill="#FFC3BE" d="M202.811,372.316v-73.054c20.141,0,36.527,16.386,36.527,36.526S222.951,372.316,202.811,372.316
			L202.811,372.316z"/>
		<path fill="#46A0FF" d="M362.379,425.5H256c-5.485,0-9.932-4.441-9.932-9.927v-0.011c0-34.858,28.196-63.109,63.11-63.109
			c34.935,0,63.132,28.245,63.132,63.109C372.311,421.048,367.864,425.5,362.379,425.5z"/>
		<path fill="#5073FF" d="M309.189,352.453V425.5h53.189c5.484,0,9.932-4.452,9.932-9.938
			C372.311,380.701,344.119,352.459,309.189,352.453z"/>
		<ellipse fill="#FFDCD2" cx="309.127" cy="335.763" rx="36.522" ry="36.522"/>
		<path fill="#FFC3BE" d="M309.189,372.316v-73.054c20.141,0,36.526,16.386,36.526,36.526S329.33,372.316,309.189,372.316z"/>
	</g>
	<path fill="#FF4D05" d="M421.441,365.008L102.306,130.975c-4.424-3.244-10.638-2.288-13.883,2.136
		c-3.244,4.423-2.288,10.638,2.136,13.882l319.135,234.032c4.424,3.243,10.639,2.288,13.883-2.136
		C426.82,374.467,425.864,368.252,421.441,365.008L421.441,365.008z"/>
	<path fill="#D0004F" d="M421.441,365.008L256,243.684v24.631l153.694,112.71c4.424,3.243,10.639,2.287,13.883-2.137
		C426.82,374.467,425.864,368.252,421.441,365.008L421.441,365.008z"/>
</g>
</svg>
