<?xml version="1.0" encoding="utf-8"?>
<!-- Generator: Adobe Illustrator 15.1.0, SVG Export Plug-In . SVG Version: 6.00 Build 0)  -->
<!DOCTYPE svg PUBLIC "-//W3C//DTD SVG 1.1//EN" "http://www.w3.org/Graphics/SVG/1.1/DTD/svg11.dtd">
<svg version="1.1" id="Capa_1" xmlns="http://www.w3.org/2000/svg" xmlns:xlink="http://www.w3.org/1999/xlink" x="0px" y="0px"
	 width="1024px" height="768px" viewBox="0 0 1024 768" enable-background="new 0 0 1024 768" xml:space="preserve">
<path fill="#FFE7CF" d="M565.435,540.697l81.577-76.621l-32.388-6.017c-15.633-3.141-26.879-21.276-26.879-37.221v-71.056H512l0,0
	h-75.744v71.056c0,15.944-11.247,34.078-26.878,37.221l-32.389,6.017l81.578,76.621
	C488.603,568.911,535.396,568.911,565.435,540.697z"/>
<path fill="#F4D5BA" d="M551.057,349.783v107.742c0,15.945,11.247,34.078,26.879,37.221l27.913,7.991l41.162-38.661l-32.389-6.017
	c-15.633-3.141-26.878-21.276-26.878-37.221v-71.056H551.057L551.057,349.783z"/>
<path fill="#FFFFFF" stroke="#000000" stroke-width="15" stroke-linecap="round" stroke-linejoin="round" stroke-miterlimit="10" d="
	M501.76,703.833L501.76,703.833L501.76,703.833z"/>
<path fill="#24D9DE" d="M606.562,454.164L512,524.841l-94.562-70.679c-5.07-3.789-11.639-4.946-17.698-3.118l-158.865,47.934
	c-17.092,5.157-29.796,19.541-32.802,37.141l-35.001,204.906C170.663,755.125,181.526,768,195.83,768h632.34
	c14.306,0,25.167-12.875,22.758-26.976l-34.999-204.906c-3.006-17.6-15.71-31.983-32.802-37.141l-158.865-47.934
	C618.2,449.217,611.632,450.373,606.562,454.164z"/>
<g>
	<path fill="#D0D1D2" d="M399.74,451.046l-27.33,8.245l60.316,84.402c4.747,6.644,13.473,9.099,20.989,5.906L512,524.843l0,0
		l-94.562-70.679C412.368,450.373,405.8,449.217,399.74,451.046z"/>
	<path fill="#D0D1D2" d="M570.284,549.6c7.517,3.194,16.242,0.738,20.989-5.906l60.316-84.402l-0.146-0.044l-27.185-8.201
		c-6.06-1.829-12.628-0.671-17.698,3.118L512,524.841l0,0l0,0L570.284,549.6z"/>
</g>
<g>
	<polygon fill="#F9644B" points="512,524.841 466.166,544.313 492.961,575.46 531.039,575.46 557.834,544.313 	"/>
	<polygon fill="#F9644B" points="531.039,575.459 512,575.459 492.961,575.459 457.796,768 566.204,768 	"/>
</g>
<path fill="#E1EFFB" d="M512,732.254c0,0-106.2-283.037-112.26-281.208l-158.865,47.932c-17.092,5.157-29.796,19.541-32.802,37.141
	l-35.001,204.906C170.663,755.125,181.526,768,195.83,768h632.34c14.306,0,25.167-12.875,22.758-26.976l-34.999-204.906
	c-3.006-17.6-15.71-31.983-32.802-37.141l-158.865-47.934C618.2,449.217,512,732.254,512,732.254z"/>
<path fill="#CADDEA" d="M850.928,741.024l-35.001-204.906c-3.006-17.6-15.709-31.981-32.802-37.141L624.26,451.044
	c-1.646-0.496-10.695,20.058-22.996,50.253l115.218,34.764c8.709,2.629,15.182,9.956,16.713,18.923L769.58,768h58.588
	C842.474,768,853.337,755.124,850.928,741.024z"/>
<g>
	<path fill="#44798C" d="M680.879,607.974c-6.398,0-11.586-5.187-11.586-11.586V464.883c0-43.95-34.355-79.999-78.213-82.071
		c-6.392-0.301-11.328-5.727-11.026-12.118s5.729-11.323,12.118-11.026c56.239,2.655,100.292,48.87,100.292,105.215v131.505
		C692.464,602.787,687.276,607.974,680.879,607.974z"/>
	<path fill="#44798C" d="M343.121,522.235c-6.399,0-11.586-5.187-11.586-11.586v-45.768c0-56.188,43.926-102.399,100.002-105.201
		c6.408-0.333,11.83,4.602,12.15,10.992c0.319,6.39-4.603,11.83-10.992,12.148c-43.731,2.186-77.988,38.23-77.988,82.061v45.768
		C354.707,517.05,349.52,522.235,343.121,522.235z"/>
</g>
<circle fill="#1785B8" cx="680.75" cy="604.005" r="48.36"/>
<circle fill="#E1EFFB" cx="680.75" cy="604.005" r="21.306"/>
<path fill="#2C5871" d="M381.437,698.91h-14.445c-6.399,0-11.586-5.188-11.586-11.586c0-6.399,5.187-11.586,11.586-11.586h14.445
	c1.745,0,3.424-0.735,4.608-2.015c1.184-1.281,1.787-3.012,1.651-4.749l-8.442-108.318c-0.3-3.84-1.212-7.584-2.712-11.124
	c-5.349-12.627-18.028-20.748-32.351-20.748c-0.088,0-0.177,0-0.267,0.002l-1.908,0.014c-14.738,0.104-27.915,9.076-32.794,22.327
	c-1.126,3.062-1.827,6.269-2.082,9.529l-8.439,108.316c-0.137,1.74,0.465,3.47,1.648,4.749c1.185,1.283,2.865,2.017,4.608,2.017
	h14.445c6.399,0,11.586,5.187,11.586,11.586c0,6.398-5.187,11.586-11.586,11.586h-14.445c-8.183,0-16.062-3.445-21.617-9.451
	c-5.556-6.005-8.379-14.127-7.741-22.287l8.439-108.315c0.42-5.384,1.576-10.677,3.439-15.733
	c8.194-22.254,30.045-37.321,54.375-37.492l1.908-0.014c0.144,0,0.288-0.002,0.432-0.002c23.652,0,44.692,13.655,53.684,34.88
	c2.479,5.846,3.984,12.023,4.479,18.363l8.441,108.316c0.636,8.155-2.186,16.277-7.743,22.285
	C397.499,695.466,389.62,698.91,381.437,698.91z"/>
<g>
	<path fill="#F4D5BA" d="M378.326,245.261v-43.349h-26.442c-12.574,0-22.767,10.192-22.767,22.767v17.608
		c0,12.574,10.192,22.767,22.767,22.767h26.442V245.261z"/>
	<path fill="#F4D5BA" d="M672.116,201.912h-26.442v43.349v19.794h26.442c12.574,0,22.767-10.193,22.767-22.767v-17.608
		C694.883,212.106,684.69,201.912,672.116,201.912z"/>
</g>
<path fill="#FFE7CF" d="M609.201,54.27C586.396,34.635,554.342,35.91,512,35.438c-42.342,0.473-74.396-0.804-97.201,18.831
	c-29.085,25.044-44.844,62.236-44.844,100.62V266.46c0,38.384,48.242,140.193,142.043,140.193
	c93.803,0,142.045-101.81,142.045-140.193V154.89C654.044,116.506,638.286,79.314,609.201,54.27z"/>
<path fill="#F4D5BA" d="M609.201,54.27c-9.057-7.798-19.581-12.291-31.623-14.913c0,0.057,0.002,0.108,0.002,0.167v226.938
	c0,32.766-35.164,111.744-103.813,134.159c11.767,3.842,24.508,6.034,38.232,6.034c93.803,0,142.044-101.809,142.044-140.193V154.89
	C654.044,116.506,638.286,79.314,609.201,54.27z"/>
<path fill="#FFB125" d="M597.453,0H512h-85.453c-43.976,0-79.625,35.649-79.625,79.625v130.714c0,0,21.926-0.497,36.015,13.448
	c2.934,2.904,7.92,0.781,7.92-3.347V113.485c0-19.437,15.757-35.194,35.195-35.194h31.979c8.389,0,16.517,2.899,23.01,8.208
	l3.137,2.565c7.852,6.418,17.68,9.924,27.82,9.924s19.97-3.507,27.821-9.924l3.136-2.565c6.494-5.309,14.624-8.208,23.011-8.208
	h31.979c19.438,0,35.194,15.757,35.194,35.194v106.956c0,4.128,4.986,6.25,7.92,3.347c14.09-13.944,36.016-13.448,36.016-13.448
	V79.625C677.076,35.649,641.428,0,597.453,0z"/>
<path fill="#FF901D" d="M597.453,0h-76.464c43.564,0,78.937,34.99,79.593,78.399c18.206,1.349,32.56,16.536,32.56,35.086v106.956
	c0,4.128,4.986,6.25,7.92,3.347c14.09-13.944,36.015-13.448,36.015-13.448V79.625C677.076,35.649,641.428,0,597.453,0z"/>
</svg>
