<?xml version="1.0" encoding="utf-8"?>
<!-- Generator: Adobe Illustrator 15.1.0, SVG Export Plug-In . SVG Version: 6.00 Build 0)  -->
<!DOCTYPE svg PUBLIC "-//W3C//DTD SVG 1.1//EN" "http://www.w3.org/Graphics/SVG/1.1/DTD/svg11.dtd">
<svg version="1.1" id="Capa_1" xmlns="http://www.w3.org/2000/svg" xmlns:xlink="http://www.w3.org/1999/xlink" x="0px" y="0px"
	 width="512px" height="512px" viewBox="0 0 512 512" enable-background="new 0 0 512 512" xml:space="preserve">
<g>
	<path fill="#E4EDEF" d="M308.797,319.356v116.858H203.203V319.356c0-29.108,23.688-52.797,52.797-52.797
		C285.108,266.56,308.797,290.248,308.797,319.356z"/>
	<path fill="#BFDFE7" d="M308.797,319.356v116.858H256V266.56C285.108,266.56,308.797,290.248,308.797,319.356z"/>
	<path fill="#E4EDEF" d="M164.484,203.203v233.012h-78.14c-5.829,0-10.56-4.73-10.56-10.56V213.762c0-5.829,4.73-10.56,10.56-10.56
		H164.484z"/>
	<g>
		<g>
			<path fill="#BFDFE7" d="M164.484,372.154v21.119h-35.198c-5.829,0-10.559-4.73-10.559-10.56s4.73-10.56,10.559-10.56H164.484z"/>
			<path fill="#BFDFE7" d="M164.484,329.916v21.119h-35.198c-5.829,0-10.559-4.73-10.559-10.56s4.73-10.56,10.559-10.56H164.484z"/>
			<path fill="#BFDFE7" d="M164.484,287.679v21.118h-35.198c-5.829,0-10.559-4.729-10.559-10.559c0-5.83,4.73-10.56,10.559-10.56
				H164.484z"/>
			<path fill="#BFDFE7" d="M164.484,245.44v21.119h-35.198c-5.829,0-10.559-4.731-10.559-10.56c0-5.829,4.73-10.56,10.559-10.56
				H164.484z"/>
		</g>
	</g>
	<path fill="#BFDFE7" d="M436.215,213.762v211.893c0,5.829-4.73,10.56-10.56,10.56h-78.14V203.203h78.14
		C431.484,203.203,436.215,207.933,436.215,213.762z"/>
	<g>
		<g>
			<path fill="#93CBD8" d="M393.273,340.476c0,5.829-4.73,10.56-10.56,10.56h-35.198v-21.119h35.198
				C388.543,329.916,393.273,334.646,393.273,340.476z"/>
			<path fill="#93CBD8" d="M393.273,298.238c0,5.829-4.73,10.559-10.56,10.559h-35.198v-21.118h35.198
				C388.543,287.679,393.273,292.408,393.273,298.238z"/>
			<path fill="#93CBD8" d="M393.273,256c0,5.828-4.73,10.56-10.56,10.56h-35.198V245.44h35.198
				C388.543,245.44,393.273,250.171,393.273,256z"/>
			<path fill="#93CBD8" d="M393.273,382.714c0,5.829-4.73,10.56-10.56,10.56h-35.198v-21.119h35.198
				C388.543,372.154,393.273,376.885,393.273,382.714z"/>
		</g>
	</g>
	<path fill="#63C6F8" d="M351.035,139.846v296.369h-63.356V319.356c0-17.465-14.213-31.678-31.679-31.678
		c-17.465,0-31.678,14.213-31.678,31.678v116.858h-63.357V86.345c0-5.829,4.73-10.56,10.56-10.56h116.154
		c2.822,0,5.532,1.133,7.518,3.14l52.797,53.501C349.944,134.404,351.035,137.072,351.035,139.846z"/>
	<path fill="#23A5F6" d="M351.035,139.846v296.369h-63.356V319.356c0-17.465-14.213-31.678-31.679-31.678V75.785h31.679
		c2.822,0,5.532,1.133,7.518,3.14l52.797,53.501C349.944,134.404,351.035,137.072,351.035,139.846z"/>
	<path fill="#DB375A" d="M277.119,171.524h-10.56v-10.56c0-5.832-4.728-10.56-10.56-10.56s-10.56,4.728-10.56,10.56v10.56h-10.56
		c-5.832,0-10.559,4.728-10.559,10.559c0,5.832,4.727,10.56,10.559,10.56h10.56v10.56c0,5.832,4.728,10.56,10.56,10.56
		s10.56-4.728,10.56-10.56v-10.56h10.56c5.832,0,10.56-4.728,10.56-10.56C287.679,176.252,282.951,171.524,277.119,171.524z"/>
	<path fill="#B71C4C" d="M287.679,182.083c0,5.829-4.731,10.56-10.56,10.56h-10.56v10.56c0,5.829-4.731,10.56-10.56,10.56v-63.357
		c5.828,0,10.56,4.73,10.56,10.56v10.56h10.56C282.947,171.524,287.679,176.255,287.679,182.083z"/>
</g>
</svg>
