<?xml version="1.0" encoding="utf-8"?>
<!-- Generator: Adobe Illustrator 15.1.0, SVG Export Plug-In . SVG Version: 6.00 Build 0)  -->
<!DOCTYPE svg PUBLIC "-//W3C//DTD SVG 1.1//EN" "http://www.w3.org/Graphics/SVG/1.1/DTD/svg11.dtd">
<svg version="1.1" id="Layer_1" xmlns="http://www.w3.org/2000/svg" xmlns:xlink="http://www.w3.org/1999/xlink" x="0px" y="0px"
	 width="512px" height="512px" viewBox="0 0 512 512" enable-background="new 0 0 512 512" xml:space="preserve">
<path id="Shape" fill="#FFC729" d="M331.953,409.547l-4.645,4.645l-8.971,8.971l-6.743,6.743c-1.584,1.589-3.56,2.729-5.726,3.309
	l-43.39,11.833c-2.295,0.616-4.715,0.594-6.998-0.063c-43.467-14.308-82.809-38.956-114.645-71.827
	c-32.871-31.836-57.52-71.179-71.828-114.645c-0.657-2.284-0.679-4.703-0.064-6.999l11.833-43.389
	c0.579-2.167,1.72-4.142,3.309-5.726l20.358-20.359c2.413-2.413,5.685-3.769,9.098-3.769c3.413,0,6.685,1.356,9.097,3.769
	l45.489,45.489c5.026,5.048,5.026,13.21,0,18.259l-4.581,4.581l-9.034,8.971l-20.359,20.358c-1.552,1.571-2.199,3.824-1.718,5.98
	c6.223,22.926,18.56,43.729,35.691,60.185c16.456,17.132,37.26,29.469,60.185,35.692c2.156,0.48,4.409-0.167,5.98-1.719
	l20.359-20.358l8.971-9.034l4.58-4.581c5.049-5.025,13.211-5.025,18.26,0l45.488,45.489c2.413,2.412,3.77,5.686,3.77,9.098
	S334.366,407.134,331.953,409.547L331.953,409.547z"/>
<path id="Shape_1_" fill="#63C6F8" d="M437.5,188.039c0.049,61.624-47.487,112.83-108.944,117.355
	c-20.655,1.011-41.2-3.581-59.46-13.29c-17.909,7.078-36.783,11.416-55.986,12.864c-1.686,0.135-3.29-0.75-4.075-2.248
	c-0.784-1.499-0.598-3.321,0.474-4.63c10.095-12.807,16.222-28.288,17.623-44.534c-14.372-21.937-20.748-48.153-18.056-74.239
	c4.93-49.783,51.743-96.933,101.494-102.188c31.837-3.47,63.673,6.545,87.789,27.617C422.475,125.819,436.67,156.024,437.5,188.039
	L437.5,188.039z"/>
<path id="Shape_7_" fill="#FFFFFF" d="M322.982,222.82c-3.513,0-6.362-2.849-6.362-6.362v-12.724c0-3.514,2.85-6.362,6.362-6.362
	c14.056,0,25.449-11.394,25.449-25.448c0-14.055-11.394-25.449-25.449-25.449c-14.055,0-25.448,11.394-25.448,25.449
	c0,3.513-2.849,6.362-6.362,6.362s-6.361-2.849-6.361-6.362c0.003-20.254,15.824-36.98,36.047-38.107
	c20.222-1.128,37.805,13.734,40.061,33.863c2.255,20.128-11.603,38.513-31.572,41.889v6.89
	C329.346,219.972,326.496,222.82,322.982,222.82z"/>
<circle id="Oval" fill="#FFFFFF" cx="322.982" cy="241.906" r="6.362"/>
</svg>
