<?xml version="1.0" encoding="utf-8"?>
<!-- Generator: Adobe Illustrator 15.1.0, SVG Export Plug-In . SVG Version: 6.00 Build 0)  -->
<!DOCTYPE svg PUBLIC "-//W3C//DTD SVG 1.1//EN" "http://www.w3.org/Graphics/SVG/1.1/DTD/svg11.dtd">
<svg version="1.1" id="Layer_35" xmlns="http://www.w3.org/2000/svg" xmlns:xlink="http://www.w3.org/1999/xlink" x="0px" y="0px"
	 width="512px" height="512px" viewBox="0 0 512 512" enable-background="new 0 0 512 512" xml:space="preserve">
<path fill="none" stroke="#DB375A" stroke-width="10" stroke-miterlimit="10" d="M355.02,260.645h46.461
	c0,62.324-50.511,112.834-112.835,112.834c-45.797,0-85.157-27.278-102.878-66.372l-12.23-59.737h81.923l19.911,39.824l26.55-86.285
	l26.548,112.834L355.02,260.645z"/>
<path fill="#FFC729" d="M431.161,244.323v35.032l-19.618,4.672c-3.152,17.341-9.926,33.397-19.617,47.41l10.567,17.106
	L377.737,373.3l-17.107-10.568c-14.013,9.692-30.069,16.465-47.41,19.618l-4.671,19.618h-35.033l-4.671-19.618
	c-17.341-3.153-33.397-9.926-47.41-19.618l-23.822,15.531V302.71h2.919c15.589,34.39,50.213,58.387,90.5,58.387
	c54.825,0,99.258-44.433,99.258-99.258c0-54.826-44.433-99.258-99.258-99.258c-28.667,0-54.534,12.145-72.633,31.646
	c-2.394-3.328-5.08-6.481-7.999-9.4c-4.846-4.846-10.393-9.05-16.407-12.437l16.173-16.173l11.269,4.729
	c14.013-9.692,30.069-16.465,47.41-19.618l4.671-19.618h35.033l4.671,19.618c17.341,3.153,33.397,9.926,47.41,19.618l17.107-10.568
	l24.756,24.756l-10.567,17.107c9.691,14.013,16.465,30.069,19.617,47.411L431.161,244.323z"/>
<path fill="#63C6F8" d="M156.742,279.354v131.371c0,11.27-9.167,20.436-20.436,20.436c-5.605,0-10.744-2.277-14.422-6.014
	c-3.737-3.679-6.014-8.816-6.014-14.422V302.71v-23.355H156.742z"/>
<path fill="#63C6F8" d="M197.613,295.47v7.24v75.553v32.463c0,5.605-2.277,10.743-6.014,14.422
	c-3.678,3.736-8.816,6.014-14.421,6.014c-11.269,0-20.435-9.166-20.435-20.436V279.354h40.871V295.47z"/>
<path fill="#E6E9ED" d="M197.613,279.354h-40.871h-40.871v23.355h-11.678c-12.903,0-23.354-10.452-23.354-23.355v-40.871
	c0-41.922,33.981-75.903,75.903-75.903c13.545,0,26.274,3.562,37.251,9.809c6.014,3.387,11.561,7.59,16.407,12.437
	c2.919,2.919,5.605,6.072,7.999,9.4c8.933,12.436,14.246,27.733,14.246,44.257v11.677v29.193c0,12.903-10.451,23.355-23.354,23.355
	h-8.758c-1.051-2.395-2.043-4.788-2.919-7.24V279.354z"/>
<circle fill="#F9CFCF" cx="156.742" cy="121.71" r="40.871"/>
<path fill="#DB375A" d="M203.452,209.291c3.62,3.562,5.839,8.524,5.839,14.071c0,5.897-2.627,11.444-7.182,15.239l-4.496,3.795
	l-23.354,19.443l-27.851-23.238c-4.554-3.795-7.182-9.342-7.182-15.239c0-11.035,8.875-19.91,19.91-19.91h1.051
	c5.254,0,10.334,2.102,14.071,5.839c3.737-3.737,8.816-5.839,14.071-5.839h1.051C194.927,203.452,199.89,205.67,203.452,209.291z"/>
</svg>
