<?xml version="1.0" encoding="utf-8"?>
<!-- Generator: Adobe Illustrator 15.1.0, SVG Export Plug-In . SVG Version: 6.00 Build 0)  -->
<!DOCTYPE svg PUBLIC "-//W3C//DTD SVG 1.1//EN" "http://www.w3.org/Graphics/SVG/1.1/DTD/svg11.dtd">
<svg version="1.1" id="Layer_35" xmlns="http://www.w3.org/2000/svg" xmlns:xlink="http://www.w3.org/1999/xlink" x="0px" y="0px"
	 width="194.667px" height="512px" viewBox="0 0 194.667 512" enable-background="new 0 0 194.667 512" xml:space="preserve">
<path fill="#602B20" d="M70.426,128.27c-18.529-15.675-39.269-65.594-0.363-94.379c10.851-8.031,26.802,3.596,26.802,3.596
	c40.077-22.592,65.798,53.505,22.503,92.619C108.677,128.754,91.666,121.146,70.426,128.27z"/>
<path fill="#7C3A2A" d="M98.001,61.549c21.181,0,37.592,11.157,41.602,34.586c9.521-37.44-12.525-76.944-42.737-59.716
	c0,0-15.951-11.761-26.803-3.638c-25.675,19.217-25.372,47.74-16.873,69.478C54.933,75.851,75.012,61.549,98.001,61.549z"/>
<path fill="#98A85B" d="M137.14,189.5c8.904-1.892-10.996-72.418-24.277-65.015C105.05,128.842,124.218,192.246,137.14,189.5z"/>
<path fill="#6C7539" d="M110.818,132.021c1.024,18.08,15.832,59.708,26.322,57.479c0.914-0.194,1.518-1.127,1.857-2.623
	c-6.832-5.568-6.816-36.525-12.773-50.403C122.912,128.754,110.865,114.122,110.818,132.021z"/>
<path fill="#98A85B" d="M50.708,199.099c-8.566-1.32,12.804-80.646,25.441-73.615C83.583,129.622,63.143,201.012,50.708,199.099z"/>
<path fill="#6C7539" d="M49.146,197.085c0.312,1.186,0.82,1.9,1.562,2.014c10.73,1.651,27.73-51.862,27.412-69.225
	c-1.347-13.88-12.554,1.389-15.77,11.033C56.078,159.712,56.032,194.185,49.146,197.085z"/>
<path fill="#FFCD9C" d="M66.948,478.566c8.279-66.951,3.452-90.205,6.043-95.987c2.589-5.78,10.791-13.245,10.791-18.304
	c0-5.06-36.692-79.727-26.979-120.916c9.712-41.19,60.578-35.593,67.554-4.815c14.029,61.903-3.419,110.827-2.59,123.802
	c0.432,6.744,9.497,15.898,9.928,26.015c0.665,15.579-6.522,44.972,0.217,90.205h-2.44c0,0-15.044-94.058-16.339-117.184
	c-1.293-23.118-6.237-85.12-10.359-87.673c-5.825-3.615-15.452-0.161-16.186,4.335c-1.295,7.948,8.416,82.375,7.122,86.712
	C92.416,369.091,70.4,465.562,70.4,478.566C65.868,478.566,66.948,478.566,66.948,478.566z"/>
<path fill="#F4AD7D" d="M93.766,360.95c-0.77-16.133-8.331-75.833-7.178-82.905c0.734-4.496,10.36-7.95,16.186-4.335
	c4.008,2.481,8.791,61.136,10.244,85.646c2.972,0.153,5.89,0.51,8.756,1.014c0.672-15.419,15.987-62.688,2.584-121.825
	c-6.976-30.777-57.841-36.375-67.554,4.815c-9.542,40.459,25.688,113.213,26.941,120.576
	C86.98,362.705,90.327,361.705,93.766,360.95z"/>
<path fill="#5B4A39" d="M73.421,345.006c0,0,35.397-6.741,53.527-2.41c0,0,16.401-76.596-7.339-119.468
	c-14.246-23.484-53.094-8.311-59.245,5.419C59.64,230.165,41.586,267.93,73.421,345.006z"/>
<path fill="#443528" d="M119.61,223.127c-14.246-23.484-53.094-8.311-59.245,5.419c-0.725,1.618-18.778,39.383,13.057,116.459
	c0,0,1.993-0.377,5.251-0.895c-3.101-7.983-5.824-17.423-8.144-27.813c-6.328-28.337-11.313-62.775-2.498-60.94
	c11.989,2.499,31.97,2.499,49.952-0.999c9.727-1.892,8.99,31.676,8.99,49.45c0,13.065-1.93,26.531-5.14,37.899
	c1.812,0.22,3.532,0.508,5.115,0.887C126.949,342.596,143.35,266,119.61,223.127z"/>
<path fill="#98A85B" d="M56.385,234.134c-1.209,1.748-1.482,3.919-0.739,5.88c0.743,1.963,2.418,3.491,4.536,4.142
	c20.051,6.156,47.054,5.826,65.046,0.705c1.463-0.417,2.649-1.422,3.234-2.738c0.587-1.318,0.516-2.815-0.201-4.075
	c-5.41-9.509-16.491-30.934-15.21-44.897c1.689-18.39,17.618-26.467,17.618-26.467s-5.873-48.307-36.268-47.879
	c-30.392,0.426-37.145,49.615-37.145,49.615s20.008,7.006,17.847,29.161C74.213,206.68,65.979,220.284,56.385,234.134z"/>
<path fill="#B3C46C" d="M126.395,234.686c-22.585,6.561-47.687,6.186-70.719,0.782c-0.571,1.453-0.595,3.061-0.031,4.547
	c0.743,1.963,2.418,3.491,4.536,4.142c20.051,6.156,47.054,5.826,65.046,0.705c1.463-0.417,2.649-1.422,3.234-2.738
	c0.587-1.318,0.516-2.815-0.201-4.075C127.696,237.058,127.062,235.914,126.395,234.686z"/>
<path opacity="0.4" fill="#7F8C46" d="M113.05,193.151c1.555-16.924,15.161-25.107,17.32-26.306
	c-11.094,3.032-23.609,4.739-36.864,4.718c-12.917-0.018-36.25-3.143-36.25-3.143s20.008,7.006,17.847,29.161
	c-0.889,9.099-9.124,22.703-18.718,36.553c-1.209,1.748-1.482,3.919-0.739,5.88c0.743,1.963,2.418,3.491,4.536,4.142
	c1.676,0.515,3.414,0.967,5.178,1.392c-0.192-1.531-0.325-3.085-0.325-4.677c0-17.794,12.412-32.218,27.723-32.218
	s27.723,14.424,27.723,32.218c0,1.792-0.158,3.54-0.401,5.252c1.776-0.385,3.511-0.798,5.148-1.263
	c1.463-0.417,2.649-1.422,3.234-2.738c0.587-1.318,0.516-2.815-0.201-4.075C122.85,228.539,111.769,207.114,113.05,193.151z"/>
<ellipse opacity="0.4" fill="#7F8C46" cx="94.255" cy="128.669" rx="17.045" ry="7.492"/>
<path fill="#98A85B" d="M79.62,129.351c-3.7-2.7-5.694-14.334-0.724-17.102c4.969-2.771,31.583-1.669,33.842,1.498
	c2.258,3.164-0.01,11.949-3.302,15.604C103.81,135.6,86.389,134.289,79.62,129.351z"/>
<path fill="#B3C46C" d="M109.09,129.668c0.09-0.39,0.15-0.783,0.15-1.187c0-4.689-6.205-8.491-13.862-8.491
	c-7.655,0-13.861,3.802-13.861,8.491c0,0.781,0.187,1.535,0.509,2.254C89.69,134.392,103.769,134.922,109.09,129.668z"/>
<path fill="#98A85B" d="M113.21,115.215c0.044-4.095-8.111-7.372-18.215-7.318c-10.101,0.058-18.326,3.421-18.37,7.518
	c-0.042,4.092,8.113,7.371,18.215,7.318C104.942,122.676,113.167,119.313,113.21,115.215z"/>
<path opacity="0.4" fill="#7F8C46" d="M109.605,115.095c0.025-2.479-6.24-4.475-13.997-4.46c-7.754,0.017-14.063,2.04-14.089,4.515
	c-0.026,2.475,6.24,4.473,13.995,4.457C103.27,119.59,109.577,117.571,109.605,115.095z"/>
<path fill="#FFCD9C" d="M50.736,198.195c-4-6.534,55.198-19.818,71.056-21.423C129.846,175.958,55.28,205.603,50.736,198.195z"/>
<path fill="#FFCD9C" d="M138.103,189.134c4.137-6.566-59.582-11.202-79.431-12.886C50.245,175.534,133.4,196.583,138.103,189.134z"
	/>
<path fill="#FFCD9C" d="M78.068,93.232c-1.375-4.408-4.517-7.346-7.015-6.567c-2.502,0.78-3.417,4.984-2.043,9.388
	c1.373,4.409,4.512,7.35,7.014,6.57C78.525,101.844,79.439,97.641,78.068,93.232z"/>
<path fill="#F4AD7D" d="M77.468,94.163c-1.079-3.46-3.546-5.768-5.508-5.156c-1.964,0.61-2.683,3.912-1.604,7.37
	c1.078,3.459,3.542,5.77,5.507,5.159C77.828,100.921,78.545,97.625,77.468,94.163z"/>
<ellipse transform="matrix(0.9549 -0.2969 0.2969 0.9549 -26.1236 26.6671)" fill="#FFCD9C" cx="74.724" cy="99.33" rx="2.121" ry="2.61"/>
<path fill="#FFCD9C" d="M112.561,94.703c1.225-4.448,4.305-7.482,6.88-6.771c2.576,0.712,3.671,4.893,2.449,9.343
	c-1.225,4.449-4.306,7.479-6.879,6.77C112.433,103.333,111.338,99.155,112.561,94.703z"/>
<ellipse transform="matrix(-0.9641 -0.2654 0.2654 -0.9641 204.8819 220.6572)" fill="#F4AD7D" cx="117.35" cy="96.485" rx="3.514" ry="6.068"/>
<path fill="#FFCD9C" d="M114.695,103.022c-1.165-0.539-1.535-2.204-0.832-3.717c0.706-1.513,2.222-2.301,3.385-1.764
	c1.163,0.539,1.537,2.203,0.832,3.715C117.373,102.77,115.862,103.558,114.695,103.022z"/>
<path fill="#F7E8D0" d="M134.063,480.662h-16.165c0,0,8.435-6.021,12.419-6.021C133.598,474.641,134.063,480.662,134.063,480.662z"
	/>
<path fill="#F7E8D0" d="M66.475,480.662h14.699c0,0-7.67-6.021-11.292-6.021C66.899,474.641,66.475,480.662,66.475,480.662z"/>
<path fill="#C5D67F" d="M53.795,203.66c-4.364,1.19-8.492-3.496-7.243-6.993c1.25-3.498,12.239-6.495,12.988-4.746
	C60.289,193.669,56.542,202.91,53.795,203.66z"/>
<path fill="#C5D67F" d="M139.346,183.734c2.143,3.982-1.489,9.062-5.178,8.635c-3.689-0.426-9.229-9.313-7.694-10.437
	C128.01,180.807,137.995,181.226,139.346,183.734z"/>
<g>
	<path fill="#FFCD9C" d="M72.95,180.289c-3.857-0.731-12.793,3.258-13.263,0.116c-0.424-2.813,3.449-8.073,13.864-2.91
		L72.95,180.289z"/>
	<path fill="#FFCD9C" d="M67.701,175.899c1.091,4.912-5.472,6.354-7.636,6.371c-2.373,0.016-4.318-3.465-3.59-5.093
		C57.208,175.541,67.278,174.026,67.701,175.899z"/>
	<path fill="#FFCD9C" d="M60.901,175.775c-2.596-1.684-4.635-4.79-3.664-5.526c1.1-0.839,2.295,2.157,5.046,3.126
		c2.976,1.062,4.777,1.873,4.35,2.971C66.209,177.442,63.495,177.463,60.901,175.775z"/>
	<path fill="#FFCD9C" d="M55.201,177.675c-2.772,0.008-4.193-0.575-4.084-1.25c0.106-0.678,1.682-0.596,4.452-0.603
		c2.775-0.013,6.316-0.662,6.203,0.018C61.664,176.519,57.965,177.659,55.201,177.675z"/>
	<path fill="#FFCD9C" d="M55.433,180.672c-2.792,0.535-5.405-0.134-5.452-0.803c-0.03-0.664,2.629-0.596,5.422-1.128
		c2.785-0.533,4.617-0.739,4.654-0.074C60.091,179.338,58.22,180.14,55.433,180.672z"/>
	<path fill="#FFCD9C" d="M57.98,182.756c-2.803,0.427-4.451,0.085-4.467-0.58c-0.017-0.67,1.877-0.633,4.675-1.06
		c2.813-0.431,4.774-0.692,4.791-0.022C62.994,181.761,60.786,182.323,57.98,182.756z"/>
</g>
<g>
	<path fill="#FFCD9C" d="M113.442,181.166c3.377-1.999,13.104-1.319,12.491-4.417c-0.542-2.775-5.938-6.371-13.991,2.008
		L113.442,181.166z"/>
	<path fill="#FFCD9C" d="M116.903,175.271c0.618,4.966,7.266,4.074,9.301,3.353c2.235-0.795,2.896-4.714,1.67-5.985
		C126.637,171.357,116.671,173.375,116.903,175.271z"/>
	<path fill="#FFCD9C" d="M123.245,172.834c1.875-2.46,2.752-6.059,1.595-6.415c-1.313-0.411-1.434,2.799-3.691,4.644
		c-2.442,2.008-3.862,3.379-3.093,4.262C118.818,176.205,121.376,175.298,123.245,172.834z"/>
	<path fill="#FFCD9C" d="M129.236,172.666c2.607-0.939,3.745-1.966,3.417-2.562c-0.325-0.597-1.779,0.018-4.381,0.956
		c-2.611,0.936-6.153,1.537-5.822,2.135C122.779,173.792,126.634,173.596,129.236,172.666z"/>
	<path fill="#FFCD9C" d="M130.022,175.547c2.799-0.45,5.032-1.967,4.853-2.61c-0.196-0.631-2.67,0.34-5.471,0.794
		c-2.796,0.45-4.586,0.884-4.396,1.521C125.202,175.892,127.227,176.001,130.022,175.547z"/>
	<path fill="#FFCD9C" d="M128.327,178.365c2.773-0.557,4.206-1.437,3.999-2.067c-0.207-0.631-1.974,0.05-4.744,0.606
		c-2.785,0.555-4.714,0.98-4.508,1.614C123.286,179.147,125.545,178.917,128.327,178.365z"/>
</g>
<path fill="#B3C46C" d="M127.632,152.836c-0.511-1.726-1.093-3.533-1.765-5.385c-23.847,3.17-49.529,2.26-63.474,1.353
	c-0.492,1.326-0.946,2.635-1.355,3.906C93.002,156.301,114.521,154.911,127.632,152.836z"/>
<path fill="#98A85B" d="M106.994,120.24c0,0,1.404,5.432,0.28,9.366c0,0,2.716-5.245,1.03-9.554L106.994,120.24z"/>
<path fill="#98A85B" d="M109.896,117.055c0,0,1.404,5.432,0.281,9.366c0,0,2.716-5.245,1.029-9.554L109.896,117.055z"/>
<path fill="#98A85B" d="M78.896,116.026c0,0-1.139,5.432-0.228,9.365c0,0-2.2-5.245-0.834-9.552L78.896,116.026z"/>
<path fill="#98A85B" d="M81.893,118.742c0,0-1.138,5.432-0.228,9.365c0,0-2.2-5.244-0.834-9.552L81.893,118.742z"/>
<path fill="#98A85B" d="M85.643,120.943c0,0-0.699,5.505,0.524,9.354c0,0-2.614-5.052-1.597-9.456L85.643,120.943z"/>
<path opacity="0.5" fill="#BA4A4A" d="M127.98,139.825c-4.912-10.846-10.62-18.419-15.426-15.742
	c-0.093,0.051-0.177,0.12-0.262,0.187c1.317-3.542,1.84-7.613,0.802-9.894c-0.992-3.694-8.698-6.529-18.099-6.479
	c-9.673,0.055-17.604,3.146-18.3,7.002c-1.162,2.785-0.896,6.831,0.184,10.03c-0.099-0.092-0.203-0.17-0.315-0.232
	c-4.222-2.35-9.464,5.032-14.254,15.947c8.855,2.715,19.764,4.321,31.57,4.321C106.835,144.966,118.716,143.037,127.98,139.825z"/>
<path fill="#FFCD9C" d="M95.454,121.984c-7.802-0.007-25.344-22.327-18.064-49.731c1.473-5.537,7.233-8.718,18.118-8.707
	c11.978,0.012,17.453,3.399,18.323,7.889C119.967,103.164,103.439,121.991,95.454,121.984z"/>
<path fill="#602B20" d="M79.832,65.169c0,0-10.49,6.932-2.81,42.895l2.997,1.499C80.02,109.001,72.902,76.221,79.832,65.169z"/>
<path fill="#602B20" d="M111.323,64.902c0,0,12.492,7.296,3.197,43.348l-3.581,1.423C110.942,109.108,119.553,76.252,111.323,64.902
	z"/>
<path fill="#CAE8ED" d="M139.537,102.249c-6.506-1.323-3.436,8.221-3.436,8.221s-4.751-7.326-9.281-6.801
	c-2.675,0.31-3.533,2.72-3.788,4.646c-0.427-0.586-1.281-1.164-2.909-1.572c-4.939-1.239-1.96,4.277-2.515,5.544
	c-0.554,1.269-6.275,0.834-7.685,0.463c0,0,8.165,2.481,8.376,6c0.335,5.548,6.277,0.856,6.277,0.856s-1.909,6.818,3.974,8.659
	c2.937,0.917,4.104-0.52,4.537-2.19c0.605,1.365,2.369,2.345,6.946,1.171c9.753-2.502,1.442-6.589,1.442-6.589
	C154.037,121.211,146.044,103.57,139.537,102.249z"/>
<path fill="#CAE8ED" d="M118.566,129.107c0.248-0.184,0.459-0.401,0.558-0.694c0.279-0.836-0.294-1.769-1.275-2.196
	c0.154-0.767-0.185-1.521-0.851-1.746c-0.634-0.212-1.312,0.138-1.674,0.772c-0.196-0.141-0.409-0.267-0.655-0.35
	c-1.114-0.375-2.268,0.073-2.578,0.995c-0.308,0.924,0.343,1.975,1.456,2.349c0.168,0.055,0.334,0.059,0.499,0.079
	c0.057,0.118,0.136,0.22,0.227,0.316c-0.317,0.275-0.571,0.617-0.712,1.032c-0.455,1.357,0.408,2.872,1.93,3.383
	c1.521,0.51,3.123-0.178,3.579-1.535C119.348,130.682,119.125,129.789,118.566,129.107z"/>
<path fill="#442A21" d="M100.309,107.079c0.403-1.652,0.164-2.452-1.02-2.937c-0.719-0.295-2.155-0.326-3.482-0.278
	c-1.438-0.092-3.189-0.08-4.071,0.437c-1.639,0.957-0.239,3.281-0.644,4.957c-0.408,1.677-0.028,2.303,1.155,2.79
	c0.687,0.287,5.971,0.559,7.285-0.192C101.167,110.914,99.905,108.733,100.309,107.079z"/>
<path fill="#FFF1E9" d="M91.775,104.729c-0.417,0.528,0.564,2.355,1.261,3.203c0.804,0.981,4.314,1.059,5.165,0.085
	c0.789-0.898,1.618-3.289,0.601-3.65C97.785,104,92.563,103.722,91.775,104.729z"/>
<path fill="#FFF1E9" d="M99.328,111.324c0.433-0.52-0.333-2.134-1.346-3.057c-1.004-0.92-4.108-0.894-4.801-0.167
	c-0.604,0.641-2.138,2.84-1.175,3.491C93.378,112.518,98.517,112.314,99.328,111.324z"/>
<path fill="#F4AD7D" d="M94.029,114.798c-0.432-0.322,1.273-1.123,1.879-1.069c1.206,0.107,1.685,1.189,1.579,1.328
	c-0.059,0.06-0.968-0.242-1.724-0.248C95.014,114.8,94.423,115.092,94.029,114.798z"/>
<path fill="#442A21" d="M99.153,107.83c-2.395,0.333-4.22,0.3-6.922,0.057v0.542c2.514-0.327,4.375-0.24,6.688,0.02L99.153,107.83z"
	/>
<path fill="#7C3A2A" d="M99.894,81.794c2.477-0.578,7.882-1.164,10.939,5.454C107.822,83.268,105.527,81.809,99.894,81.794z"/>
<path fill="#7C3A2A" d="M91.855,82.216c-2.398-0.809-7.695-1.91-11.359,4.376C83.863,82.921,86.274,81.695,91.855,82.216z"/>
<path fill="#5B371E" d="M105.692,91.476c-0.058-1.382-0.962-2.463-2.017-2.415c-1.055,0.046-1.865,1.207-1.805,2.589
	c0.057,1.379,0.961,2.459,2.016,2.41C104.942,94.016,105.75,92.856,105.692,91.476z"/>
<path fill="#5B371E" d="M108.026,91.151c-1.847-1.639-4.315-3.167-8.006-1.268C103.404,89.554,105.549,90.237,108.026,91.151z"/>
<path fill="#5B371E" d="M85.55,91.476c0.058-1.382,0.961-2.463,2.016-2.415c1.057,0.046,1.865,1.207,1.805,2.589
	c-0.058,1.379-0.96,2.459-2.014,2.41C86.3,94.016,85.493,92.856,85.55,91.476z"/>
<path fill="#5B371E" d="M83.218,91.151c1.847-1.639,4.312-3.167,8.002-1.268C87.836,89.554,85.692,90.237,83.218,91.151z"/>
<path fill="#F4AD7D" d="M93.674,101.229c0.006,0.139,1.579,0.9,2.135,0.9c0.945,0,2.091-0.745,2.13-0.994
	c0.096-0.598-1.461-7.257-2.013-7.32C95.372,93.753,93.633,100.359,93.674,101.229z"/>
<path fill="#FFCD9C" d="M94.989,100.085c0.002,0.136,0.635,0.349,0.858,0.349c0.38,0,0.84-0.196,0.857-0.437
	c0.038-0.583,0.34-7.199-0.81-7.138C94.634,92.928,94.974,99.239,94.989,100.085z"/>
<path fill="#7C3A2A" d="M80.836,79.196c0.263-7.661,4.704-5.387,6.048-10.507c1.343-5.119,3.856-9.705,3.856-9.705l-8.016,0.018
	c0,0,1.107,7.552,0.291,9.873C82.2,71.195,79.102,73.199,80.836,79.196z"/>
<path fill="#602B20" d="M120.298,85.427c-2.127-8.391-6.452-4.816-9.153-10.139c-2.703-5.325-7.523-11.74-7.523-11.74l10.364,2.497
	c0,0-0.006,6.157,1.447,8.521C116.883,76.929,120.763,78.399,120.298,85.427z"/>
<path fill="#9B4534" d="M76.961,54.18c14.236-7.867,12.515-17.866,7.86-22.647c-4.656-4.779-15.095-1.072-23.314,8.278
	c-8.22,9.352-15.801,30.193-11.146,34.973C55.016,79.565,66.063,60.203,76.961,54.18z"/>
<path fill="#443528" d="M92.757,260.853c6.495,0.251,23.726-1.249,32.218-9.49c0,0-6.178,9.603-13.487,10.739
	C100.25,263.851,92.757,260.853,92.757,260.853z"/>
</svg>
