<?xml version="1.0" encoding="utf-8"?>
<!-- Generator: Adobe Illustrator 15.1.0, SVG Export Plug-In . SVG Version: 6.00 Build 0)  -->
<!DOCTYPE svg PUBLIC "-//W3C//DTD SVG 1.1//EN" "http://www.w3.org/Graphics/SVG/1.1/DTD/svg11.dtd">
<svg version="1.1" id="Layer_1" xmlns="http://www.w3.org/2000/svg" xmlns:xlink="http://www.w3.org/1999/xlink" x="0px" y="0px"
	 width="512px" height="368px" viewBox="0 78.5 512 368" enable-background="new 0 78.5 512 368" xml:space="preserve">
<g>
	<path fill="#FF637B" d="M257.712,101.184c35.725,0,60.669,22.04,72.111,39.377l-12.504,70.812
		c-2.629-21.186-28.796-37.128-59.606-37.128c-30.812,0-56.978,15.943-59.607,37.128l-12.504-70.812
		C197.043,123.224,221.987,101.184,257.712,101.184L257.712,101.184z"/>
	<path fill="#FF8E8E" d="M257.712,101.184c-79.052,0-107.375,178.856,118.229,237.602c9.366,2.438,11.524,14.761,3.539,20.229
		l-16.898,11.572c-3.78,2.588-5.43,7.339-4.067,11.713l7.659,24.587c2.403,7.716-4.827,14.981-12.55,12.597
		C240.05,384.428,143.781,282.92,143.781,204.729C143.781,138.116,200.42,101.184,257.712,101.184z"/>
	<path fill="#FF637B" d="M241.017,267.036c-16.26,12.959-35.916,24.291-58.545,33.743c23.805,31.441,57.081,61.229,95.512,84.459
		c16.71-12.243,32.245-25.68,46.392-40.163c5.572-5.705,10.835-11.484,15.796-17.321
		C295.521,311.636,263.253,290.248,241.017,267.036L241.017,267.036z"/>
	<path fill="#FF8E8E" d="M257.712,101.184c79.052,0,107.375,178.856-118.228,237.602c-9.367,2.438-11.525,14.761-3.539,20.229
		l16.899,11.572c3.779,2.588,5.428,7.339,4.066,11.713l-7.659,24.587c-2.404,7.716,4.827,14.981,12.55,12.597
		c113.574-35.055,209.843-136.563,209.843-214.755C371.643,138.116,315.004,101.184,257.712,101.184L257.712,101.184z"/>
</g>
</svg>
