<?xml version="1.0" encoding="utf-8"?>
<!-- Generator: Adobe Illustrator 15.1.0, SVG Export Plug-In . SVG Version: 6.00 Build 0)  -->
<!DOCTYPE svg PUBLIC "-//W3C//DTD SVG 1.1//EN" "http://www.w3.org/Graphics/SVG/1.1/DTD/svg11.dtd">
<svg version="1.1" id="Layer_35" xmlns="http://www.w3.org/2000/svg" xmlns:xlink="http://www.w3.org/1999/xlink" x="0px" y="0px"
	 width="194.667px" height="512px" viewBox="161.167 0 194.667 512" enable-background="new 161.167 0 194.667 512"
	 xml:space="preserve">
<g>
	<path fill="#FFCD9C" d="M302.248,119.329c4.688,1.082-46.185,59.168-50.726,51.312C248.974,166.227,289.448,116.37,302.248,119.329
		z"/>
	<path fill="#FFCD9C" d="M254.192,170.665c-3.531,3.028-37.256-11.486-61.597-26.106C198.64,144.475,265,161.402,254.192,170.665z"
		/>
	<path fill="#EF8F94" d="M336.985,470.789c4.979-84.078,10.909-88.405,10.574-94.896c-0.531-10.234-5.005-25.398-5.005-25.398
		s9.052-83.033,5.524-101.246c-3.526-18.213-9.066-19.276-18.664-39.681c0,0-37.126,0.776-46.402,23.736
		c-10.461,25.9-19.656,117.19-19.656,117.19l-9.567,120.295h4.439c6.049-46.937,19.727-78.858,21.161-94.079
		c1.087-11.53-4.635-18.096-2.056-26.216c1.284-3.797,2.915-1.294,27.549-75.692l10.197-2.857l15.275,78.55
		c0,0-2.969,15.213-3.15,24.72c-0.066,3.399,5.954,10.068,6.451,95.575H336.985z"/>
	<g>
		<path fill="#C45F69" d="M304.883,274.802l11.125-2.89l-14.254-1.282c-24.634,74.398-26.264,71.896-27.547,75.692
			c-2.582,8.121,4.463,23.096,1.475,34.286c-11.936,44.688-19.236,90.181-19.236,90.181h1.783
			c6.049-46.937,19.727-78.858,21.161-94.079c1.087-11.53-4.635-18.096-2.056-26.216C278.618,346.697,280.249,349.2,304.883,274.802
			z"/>
		<path fill="#C45F69" d="M342.555,350.494c0,0,9.052-83.033,5.524-101.246c-3.526-18.213-9.066-19.276-18.664-39.681
			c0,0-0.388,0.009-1.066,0.046c6.871,13.53-41.774,10.847-48.959,35.877c-2.366,8.242,36.388,10.892,58.403,2.548
			c3.529,18.212,3.816,88.411,3.244,98.962c-0.938,17.366-10.197,10.198-10.428,29.203c-0.08,6.501,4.171,23.697,3.247,90.412
			h-0.232c0.011,1.371,0.022,2.758,0.032,4.172h3.329c4.979-84.078,10.909-88.405,10.574-94.896
			C347.028,365.658,342.555,350.494,342.555,350.494z"/>
	</g>
	<path fill="#684447" d="M344.283,232.744c-6.605-17.383-29.537-46.173-23.037-67.697c6.498-21.524,5.023-49.498-14.278-47.952
		c-32.811,7.334-39.385,45.354-39.385,45.354c22.003,22.088,28.461,21.025,10.878,81.883
		C278.461,244.333,318.093,257.891,344.283,232.744z"/>
	<path fill="#543337" d="M344.283,232.744c-2.439-6.423-7.109-14.403-11.699-22.997c-0.074-0.141-0.148-0.278-0.223-0.418
		c-0.245-0.457-0.487-0.918-0.729-1.38c-0.32-0.608-0.64-1.219-0.956-1.833c-0.178-0.344-0.356-0.686-0.531-1.031
		c-0.478-0.932-0.946-1.868-1.408-2.809c-0.135-0.277-0.271-0.556-0.404-0.833c-0.426-0.875-0.842-1.752-1.246-2.633
		c-0.073-0.156-0.146-0.313-0.22-0.47c-0.465-1.017-0.912-2.037-1.346-3.059c-0.095-0.224-0.188-0.446-0.28-0.67
		c-0.427-1.025-0.844-2.052-1.23-3.078c-0.009-0.025-0.019-0.048-0.028-0.072c-0.398-1.058-0.767-2.115-1.117-3.17
		c-0.063-0.2-0.128-0.399-0.192-0.598c-0.68-2.118-1.246-4.227-1.676-6.313c-0.038-0.189-0.075-0.377-0.112-0.565
		c-0.203-1.052-0.38-2.102-0.505-3.143c-0.529-4.378-0.341-8.627,0.866-12.624c5.662-18.757,5.266-42.405-7.703-47.154
		c3.855,9.168-4.721,26.318-7.966,39.528c-2.718,11.075-30.606,10.187-37.964,4.868c-0.019,0.096-0.03,0.159-0.03,0.159
		c12.413,12.461,19.878,17.556,20.87,30.555c12.346-1.152,25.495,9.122,30.851,24.987c3.45,10.221,2.908,20.524-0.729,28.296
		c7.411-1.678,14.973-4.802,21.85-10.22c0,0,0,0.001,0.001,0.002C341.736,235.036,343.027,233.949,344.283,232.744z"/>
	<path fill="#472A2F" d="M315.08,169.705c-4.17,15.296,9.967,23.64,27.158,64.881c0.69-0.59,1.373-1.197,2.045-1.841
		c-6.605-17.383-29.537-46.173-23.037-67.697c5.662-18.757,5.266-42.405-7.703-47.154c0.476,1.131,0.757,2.384,0.889,3.735
		C324.673,128.552,320.313,152.378,315.08,169.705z"/>
	<path fill="#F4AD7D" d="M325.646,141.041c0.856-7.692-1.21-14.661-4.62-15.567c-3.407-0.901-6.866,4.6-7.722,12.296
		c-0.858,7.69,1.212,14.659,4.621,15.563C321.332,154.239,324.79,148.735,325.646,141.041z"/>
	<path fill="#FFCD9C" d="M315.494,143.065c2.072-7.46,6.36-12.341,9.584-10.908c0.086,0.038,0.163,0.097,0.245,0.143
		c-0.755-3.65-2.289-6.292-4.298-6.826c-3.407-0.901-6.866,4.6-7.722,12.296c-0.494,4.439-0.011,8.631,1.14,11.563
		C314.556,147.352,314.896,145.222,315.494,143.065z"/>
	<path fill="#FFCD9C" d="M320.481,125.742c2.294-3.873,41.19,62.945,32.273,64.097C347.746,190.485,311.101,141.575,320.481,125.742
		z"/>
	<path fill="#FFCD9C" d="M353.089,185.935c4.169-2.063-8.583,37.604-21.154,63.065C335.1,238.587,335.319,194.729,353.089,185.935z"
		/>
	<path fill="#FFCD9C" d="M272.465,155.871c-1.338,5.646,22.387,1.544,26.635-3.475c4.246-5.019,30.494-46.321,1.544-32.811
		C287.363,125.779,275.938,141.201,272.465,155.871z"/>
	<path fill="#7C3A2A" d="M266.294,92.414c-15.527-22.018,7.765-52.265,34.881-42.298c25.594,9.406,13.094,41.139,9.27,47.743
		c-3.823,6.606-9.7,17.66-22.018,14.602C276.11,109.404,272.631,101.399,266.294,92.414z"/>
	<path fill="#63291E" d="M306.922,53.004c-0.996,5.224-28.028,47.483-34.832,14.03c-5.918,0-11.01,9.039-9.271,18.684
		c0.809,2.28,1.947,4.528,3.476,6.695c6.337,8.985,9.816,16.99,22.133,20.046c12.317,3.058,18.194-7.996,22.018-14.602
		C313.941,91.82,324.672,64.782,306.922,53.004z"/>
	<path fill="#63291E" d="M299.023,119.009c-2.652-3.763-4.362-7.323,0.278-11.658c0,0-3.767-3.167,2.296-7.621
		c0,0-2.843-12.397,5.996-16.924c10.745-5.506,12.876,12.308,3.638,18.303c0,0-1.475,5.554-5.836,8.203
		C305.535,112.989,304.18,118.323,299.023,119.009z"/>
	<path fill="#63291E" d="M284.524,135.059c-1.596-3.054-2.513-5.863,1.358-8.62c0,0-2.481-2.719,2.454-5.423
		c0,0-0.882-9.474,6.122-11.957c8.513-3.022,8.329,10.399,0.887,13.932c0,0-1.643,3.972-5.138,5.505
		C289.946,131.236,288.414,135.059,284.524,135.059z"/>
	<polygon fill="#FFCD9C" points="302.081,96.476 310.492,117.597 294.709,125.935 292.718,99.444 	"/>
	<path fill="#E8D5BA" d="M342.427,472.623h-13.44c0,0,1.422-5.588,5.705-5.588C338.219,467.035,342.427,472.623,342.427,472.623z"/>
	<path fill="#E8D5BA" d="M258.994,472.623h-17.381c0,0,9.069-5.588,13.352-5.588C258.493,467.035,258.994,472.623,258.994,472.623z"
		/>
	<g>
		<path fill="#FFCD9C" d="M337.401,234.2c-0.993,4.16,2.831,14.061-0.583,14.427c-3.059,0.331-8.526-4.121-2.401-15.212
			L337.401,234.2z"/>
		<path fill="#FFCD9C" d="M332.383,239.708c5.361-0.963,6.563,6.241,6.468,8.594c-0.11,2.58-3.968,4.535-5.687,3.671
			C331.44,251.099,330.339,240.078,332.383,239.708z"/>
		<path fill="#FFCD9C" d="M331.888,247.094c-1.956,2.746-5.414,4.821-6.156,3.73c-0.849-1.233,2.447-2.396,3.645-5.341
			c1.298-3.191,2.271-5.11,3.435-4.596C333.968,241.399,333.847,244.352,331.888,247.094z"/>
		<path fill="#FFCD9C" d="M333.633,253.382c-0.139,3.016-0.841,4.534-1.564,4.383c-0.729-0.144-0.555-1.855-0.416-4.868
			c0.136-3.018-0.374-6.898,0.352-6.745C332.729,246.3,333.763,250.374,333.633,253.382z"/>
		<path fill="#FFCD9C" d="M336.879,253.268c0.431,3.06-0.432,5.873-1.157,5.892c-0.717,0.004-0.502-2.887-0.93-5.949
			c-0.424-3.052-0.55-5.057,0.173-5.063C335.688,248.139,336.453,250.211,336.879,253.268z"/>
		<path fill="#FFCD9C" d="M339.263,250.593c0.312,3.068-0.146,4.845-0.862,4.83c-0.725-0.014-0.584-2.069-0.894-5.132
			c-0.318-3.08-0.494-5.223,0.229-5.213C338.459,245.093,338.947,247.522,339.263,250.593z"/>
	</g>
	<g>
		<path fill="#FFCD9C" d="M202.809,150.235c-3.63-2.266-14.284-1.739-13.522-5.115c0.681-3.026,6.69-6.843,15.236,2.512
			L202.809,150.235z"/>
		<path fill="#FFCD9C" d="M199.208,143.701c-0.83,5.424-8.068,4.299-10.272,3.464c-2.417-0.921-3.02-5.225-1.638-6.592
			C188.688,139.2,199.517,141.632,199.208,143.701z"/>
		<path fill="#FFCD9C" d="M192.347,140.894c-1.973-2.736-2.82-6.695-1.542-7.061c1.447-0.418,1.479,3.097,3.893,5.169
			c2.606,2.251,4.115,3.786,3.248,4.734C197.084,144.682,194.315,143.632,192.347,140.894z"/>
		<path fill="#FFCD9C" d="M185.805,140.577c-2.819-1.088-4.035-2.239-3.657-2.882c0.375-0.649,1.944,0.058,4.761,1.142
			c2.824,1.083,6.679,1.82,6.295,2.466C192.828,141.949,188.621,141.648,185.805,140.577z"/>
		<path fill="#FFCD9C" d="M184.858,143.712c-3.048-0.559-5.44-2.27-5.223-2.968c0.232-0.687,2.907,0.433,5.955,0.993
			c3.041,0.558,4.984,1.073,4.758,1.763C190.119,144.194,187.9,144.272,184.858,143.712z"/>
		<path fill="#FFCD9C" d="M186.625,146.834c-3.017-0.671-4.557-1.669-4.311-2.351c0.248-0.688,2.157,0.098,5.168,0.767
			c3.028,0.671,5.124,1.181,4.877,1.868C192.113,147.803,189.646,147.503,186.625,146.834z"/>
	</g>
	<path fill="#472A2F" d="M301.175,173.875c5.793-1.158,12.979-5.33,17.151-14.369l-0.928,11.821
		C312.857,174.3,307.23,174.281,301.175,173.875z"/>
	<path fill="#63291E" d="M279.177,146.774c-0.53-4.468-0.049-9.486,4.052-11.095C283.229,135.679,288.416,140.072,279.177,146.774z"
		/>
	<polygon fill="#FFBC50" points="282.46,136.043 283.669,132.932 285.414,135.057 283.966,136.658 	"/>
	<path opacity="0.5" fill="#BA4A4A" d="M327.064,132.956c-0.968-1.422-1.871-2.699-2.673-3.755c-0.22-0.52-0.458-1-0.72-1.431
		c-0.03-0.051-0.063-0.097-0.095-0.148c-0.14-0.218-0.285-0.422-0.434-0.611c-0.056-0.07-0.11-0.136-0.169-0.201
		c-0.134-0.156-0.273-0.298-0.416-0.431c-0.065-0.063-0.132-0.125-0.2-0.183c-0.147-0.12-0.299-0.224-0.452-0.318
		c-0.067-0.041-0.131-0.089-0.197-0.125c-0.048-0.026-0.1-0.048-0.147-0.072c-0.335-0.691-0.705-1.343-1.099-1.965
		c-0.061-0.094-0.116-0.194-0.178-0.287c-0.178-0.269-0.366-0.526-0.555-0.78c-0.088-0.118-0.173-0.238-0.263-0.352
		c-0.188-0.239-0.383-0.468-0.582-0.693c-0.103-0.115-0.202-0.229-0.307-0.338c-0.203-0.217-0.411-0.426-0.627-0.627
		c-0.107-0.102-0.22-0.201-0.329-0.297c-0.223-0.197-0.45-0.391-0.686-0.572c-0.104-0.08-0.213-0.151-0.318-0.23
		c-0.257-0.183-0.511-0.366-0.78-0.532c-0.04-0.024-0.083-0.046-0.127-0.071c-1.021-0.613-2.138-1.085-3.355-1.405
		c-0.557-0.351-1.265-0.566-2.138-0.625c0,0-8.175-20.322-9.334-23.625c-1.385-3.948-3.971,11.604-7.717,12.162l0.306,4.055
		c-5.917,2.986-5.137,11.519-5.137,11.519c-4.936,2.704-2.454,5.423-2.454,5.423c-1.642,1.17-2.418,2.35-2.649,3.554
		c-0.773,0.697-1.552,1.425-2.331,2.164c6.455,2.452,14.927,3.942,24.212,3.942C313.35,136.099,320.947,134.93,327.064,132.956z"/>
	<path fill="#FFCD9C" d="M283.561,121.266c9.949-1.954,20.119-6.794,20.024-24.053c-0.109-20.194-14.979-27.031-27.093-24.615
		c-13.892,2.771-13.433,18.283-9.153,23.465C271.771,101.433,271.231,110.32,283.561,121.266z"/>
	<path fill="#FFCD9C" d="M309.049,91.809c0.281-3.764-1.457-6.96-3.882-7.142c-2.426-0.18-4.619,2.726-4.9,6.488
		c-0.279,3.766-0.64,7.042,1.786,7.221C304.479,98.557,308.77,95.574,309.049,91.809z"/>
	<path fill="#F4AD7D" d="M307.636,91.733c0.179-2.405-0.932-4.449-2.481-4.565c-1.551-0.115-2.953,1.743-3.131,4.149
		c-0.18,2.406-0.41,4.5,1.14,4.614C304.713,96.046,307.457,94.141,307.636,91.733z"/>
	<path fill="#FFCD9C" d="M305.496,94.11c0.109-1.466-0.566-2.711-1.514-2.783c-0.946-0.07-1.804,1.063-1.914,2.529
		c-0.109,1.467-0.252,2.744,0.694,2.813C303.71,96.74,305.386,95.579,305.496,94.11z"/>
	<path fill="#63291E" d="M301.29,101.567c0.927-4.054,2.667-6.604,0.579-8.227c-2.085-1.623,0.348-8.575,2.088-10.66l-5.102-6.027
		c0,0-3.974,11.519,1.508,17.614C301.405,95.426,301.29,101.567,301.29,101.567z"/>
	<path fill="#FFCD9C" d="M266.028,80.835c1.216-3.652,5.76-10.373,6.567-12.849c0,0-1.084,6.316,8.131,4.938L266.028,80.835z"/>
	<path fill="#A5331C" d="M288.264,86.415c-1.76-1.761-5.946-5.048-11.924-1.111C280.911,83.541,283.571,83.515,288.264,86.415z"/>
	<path fill="#A5331C" d="M268.883,86.465c-1.412,0.815-4.2,2.907-2.718,7.354C265.822,90.629,266.254,88.942,268.883,86.465z"/>
	<path fill="#5B371E" d="M283.979,91.459c-0.378-1.306-1.411-2.145-2.305-1.873c-0.896,0.27-1.314,1.551-0.933,2.857
		c0.377,1.305,1.41,2.143,2.304,1.87C283.943,94.044,284.358,92.765,283.979,91.459z"/>
	<path fill="#5B371E" d="M285.487,88.943c-1.831,1.382-4.195,2.579-7.2,0.272C281.222,89.947,283.197,89.539,285.487,88.943z"/>
	<path fill="#5B371E" d="M269.826,96.927c-0.444-1.258-0.116-2.494,0.73-2.757c0.847-0.267,1.894,0.539,2.333,1.8
		c0.444,1.257,0.117,2.493-0.729,2.756C271.313,98.996,270.268,98.188,269.826,96.927z"/>
	<path fill="#5B371E" d="M268.525,96.769c1.65-0.712,3.299-1.891,2.258-5.084C270.557,94.13,269.661,95.375,268.525,96.769z"/>
	<path fill="#F49E73" d="M278.396,103.753c-0.843,1.033-4.011-0.281-3.624-1.419c0.388-1.138,2.301-3.044,1.763-4.24
		C275.996,96.9,280.116,101.646,278.396,103.753z"/>
	<path fill="#442A21" d="M281.735,115.805c-1.012-0.229-3.851-7.16-2.361-8.115c2.505-1.606,7.69,5.007,6.737,6.131
		C285.167,114.937,283.361,116.169,281.735,115.805z"/>
	<path fill="#F9DFC7" d="M279.831,110.353c-0.64-0.254-0.764-2.065-0.15-2.377c0.607-0.309,2.731,0.501,2.498,1.234
		C281.946,109.929,280.392,110.58,279.831,110.353z"/>
	<path fill="#7C3A2A" d="M289.99,79.934c-0.674-0.984-3.892-3.72-7.351-4.649c-2.418-0.651-8.438-1.291-9.311-5.744l2.942-9.521
		c0,0,4.14,10.728,8.646,13.021C287.591,74.401,289.99,79.934,289.99,79.934z"/>
	<polygon fill="#F4AD7D" points="281.127,158.466 284.719,153.019 284.605,158.001 	"/>
	<path fill="#7C3A2A" d="M285.067,63.905c7.127,1.565,18.773,3.825,23.64,10.083c0,0-6.084-16.861-20.511-16.513
		C273.77,57.822,285.067,63.905,285.067,63.905z"/>
	<path fill="#543337" d="M300.511,243.44c4.867-0.513,25.924-15.077,22.651-33.335c0,0,7.266,21.046-3.523,28.153
		C308.849,245.368,300.511,243.44,300.511,243.44z"/>
</g>
<g>
	<path fill="#684447" d="M249.389,51.504c-7.713-6.241-53.495-25.446-72.192,6.233c-24.457,41.44,8.832,73.75,25.45,95.562
		c20.255-28.566,46.221-15.062,62.844-26.488C251.983,109.673,260.295,60.332,249.389,51.504z"/>
	<path fill="#512F33" d="M202.646,153.299c19.902-28.069,45.312-15.537,61.959-25.93c-20.425-68.896-48.423-86.206-86.531-61.196
		C152.302,83.085,179.811,135.982,202.646,153.299z"/>
</g>
<path fill="#F4AD7D" d="M277.073,147.47c0.673-3.857-58.538-19.224-63.982-11.957l-0.583,3.854
	C212.508,139.368,274.927,159.815,277.073,147.47z"/>
<path fill="#68BFDD" d="M210.013,124.897c-1.573,15.323,44.603,33.121,46.935,29.434c2.34-3.689,6.102-15.647,1.772-17.393
	C254.39,135.197,211.043,114.889,210.013,124.897z"/>
<path fill="#51A8BF" d="M213.961,122.186c-2.299,0.168-3.769,0.975-3.949,2.711c-1.573,15.323,44.603,33.121,46.935,29.434
	c0.74-1.166,1.62-3.157,2.343-5.39C252.037,149.419,217.794,135.499,213.961,122.186z"/>
<path fill="#86DFF7" d="M254.049,153.607c-0.089,0.966,0.317,1.917,1.08,2.519c1.465,1.157,2.981,2.519,3.979,1.331
	c1.285-1.53,7.637-18.614,3.182-20.665c-2.668-1.23-6.568-1.144-6.568-1.144L254.049,153.607z"/>
<path fill="#684447" d="M178.91,470.659c7.848-47.276,2.984-87.564,5.763-102.149c1.701-8.929,16.204-17.305,12.504-23.271
	c-19.45-31.372-36.625-83.752-29.823-100.599c6.797-16.846,18.355-30.183,27.197-30.183c8.836,0,22.08-1.249,35.353,14.739
	c12.239,14.742,18.371,35.409,47.597,115.868c2.04,5.613-12.229,104.021-13.988,125.595h-3.014
	c1.972-58.39-3.932-88.606-3.932-102.498c0-12.664,9.377-16.267,4.979-23.097c-19.883-30.875-37.774-62.66-44.571-65.468
	c-6.315-2.609-8.828-1.615-11.548,1.192c-2.039,2.105,6.106,64.275,6.106,64.275l-28.543,125.595H178.91z"/>
<g>
	<path fill="#4F2F33" d="M208.291,360.057c1.699-8.927-3.594-11.978-7.294-17.945c-19.448-31.372-28.682-66.333-21.879-83.181
		c9.378,8.156,19.079,10.045,28.037,10.903c2.873-3.437,5.768-9.804,6.233-12.813c0.807,2.606,4.107,10.246,6.02,12.503
		c14.397-2.927,26.155-11.971,24.774-14.355c-2.936-5.07-60.979-34.5-57.562-37.74c-7.03,4.831-14.378,15.1-19.265,27.212
		c-6.803,16.847,10.373,69.227,29.823,100.599c3.7,5.966-10.803,14.342-12.504,23.271c-2.779,14.585,2.085,54.873-5.763,102.149
		h4.078C182.988,470.659,205.512,374.646,208.291,360.057z"/>
	<path fill="#4F2F33" d="M260.387,365.034c0-12.662,9.377-16.267,4.979-23.098c-19.883-30.871-37.773-62.659-44.572-65.466
		c-6.313-2.607-8.828-1.614-11.549,1.194c-0.096,0.099-0.169,0.335-0.222,0.691c1.891-0.57,4.274-0.278,7.951,1.24
		c6.797,2.808,24.688,34.593,44.571,65.468c4.398,6.83-4.979,10.433-4.979,23.097c0,13.892,5.903,44.108,3.932,102.498h3.014
		c0.194-2.371,0.539-5.67,0.995-9.67C265.846,406.878,260.387,378.397,260.387,365.034z"/>
</g>
<path fill="#68BFDD" d="M164.504,241.478c7.254,8.867,31.037,22.57,41.518,23.78l6.838-18.273l7.67,17.87
	c0,0,20.531-6.342,27.387-13.194c0,0-42.459-42.142,1.946-72.841c0,0-5.551-61.083-36.587-63.099
	c-29.768-1.934-26.574,50.463-24.99,56.832C198.447,213.486,164.504,241.478,164.504,241.478z"/>
<ellipse transform="matrix(0.9941 -0.1085 0.1085 0.9941 -15.6849 26.1128)" fill="#86DFF7" cx="232.083" cy="157.169" rx="1.217" ry="1.736"/>
<ellipse transform="matrix(0.9941 -0.1087 0.1087 0.9941 -16.8649 26.4037)" fill="#86DFF7" cx="233.818" cy="167.935" rx="1.218" ry="1.737"/>
<path fill="#51A8BF" d="M202.828,119.347c-2.94,4.646,14.336,38.088,30.922,34.63C250.352,150.517,215.477,99.366,202.828,119.347z"
	/>
<path fill="#51A8BF" d="M191.619,244.691c0-25.607,15.162-46.366,33.862-46.366c2.291,0,4.526,0.316,6.689,0.909
	c2.854-6.979,8.342-13.951,17.693-20.416c0,0-0.009-0.091-0.026-0.248c-6.703-1.678-13.81-2.589-21.172-2.589
	c-5.814,0-9.861,0.092-15.282,1.157c-3.429,0.674-11.595-44.819-14.818-43.762c-4.09,1.342-4.775,49.818-8.468,51.721
	c1.513,33.996-25.593,56.379-25.593,56.379c5.087,6.219,18.301,14.812,29.357,19.81
	C192.418,256.133,191.619,250.541,191.619,244.691z"/>
<g>
	<path fill="#3C8899" d="M199.609,134.261c-0.388-0.66-0.738-0.984-1.044-0.884c-4.09,1.342-4.775,49.818-8.468,51.721
		c1.513,33.996-25.593,56.379-25.593,56.379c0.95,1.161,4.018,4.602,7.318,6.861c22.802-24.272,30.833-50.642,32.126-73.109
		C204.775,160.868,204.123,139.629,199.609,134.261z"/>
</g>
<path fill="#F4AD7D" d="M193.78,202.496c3.906,0.13,11.018-60.58,3.081-64.956l-3.898-0.041
	C192.963,137.499,181.259,202.089,193.78,202.496z"/>
<path fill="#68BFDD" d="M197.668,124.288c-15.514,2.584-19.479,62.159-15.216,63.424c4.27,1.266,17.066,1.688,17.599-2.953
	C200.584,180.121,207.794,122.601,197.668,124.288z"/>
<path fill="#51A8BF" d="M197.668,124.288c-15.514,2.584-19.479,62.159-15.216,63.424c0.7,0.208,1.644,0.388,2.709,0.531
	C181.026,140.499,197.668,124.288,197.668,124.288z"/>
<path fill="#FFCD9C" d="M204.506,119.949c-2.612,4.247,12.789,34.844,27.542,31.697
	C246.816,148.499,215.739,101.689,204.506,119.949z"/>
<path fill="#FFCD9C" d="M275.584,149.882c3.755-1.082,3.061-12.049-25.758-48.002l-1.562,1.031
	C256.649,113.493,265.388,152.818,275.584,149.882z"/>
<path fill="#F4AD7D" d="M272.708,134.524c-3.992-7.38-11.074-17.912-22.882-32.644l-1.562,1.031
	c5.742,7.246,11.648,27.959,18.074,39.364C267.688,139.094,269.917,136.405,272.708,134.524z"/>
<path fill="#FFCD9C" d="M205.458,93.786c-0.999-3.917-2.944-5.375-5.278-4.757c-2.335,0.618-4.341,3.078-3.344,6.99
	c0.995,3.916,6.128,6.126,8.463,5.509C207.634,100.91,206.458,97.695,205.458,93.786z"/>
<path fill="#F4AD7D" d="M204.006,94.913c-0.648-2.535-1.906-3.479-3.417-3.079c-1.511,0.4-2.811,1.993-2.163,4.525
	c0.643,2.533,3.965,3.965,5.476,3.565C205.412,99.524,204.653,97.443,204.006,94.913z"/>
<path fill="#FFCD9C" d="M205.063,97.273c-0.368-1.458-1.09-2.002-1.959-1.772c-0.871,0.231-1.619,1.149-1.252,2.606
	c0.365,1.46,2.273,2.284,3.143,2.053C205.864,99.93,205.43,98.73,205.063,97.273z"/>
<path fill="#86DFF7" d="M232.429,134.767c4.522-3.987,5.104-5.147,2.719-7.177c-2.385-2.029-17.248-10.536-17.248-10.536
	l-1.323,1.831L232.429,134.767z"/>
<polygon fill="#FFCD9C" points="206.887,119.094 207.143,93.386 217.533,94.944 219.092,125.587 "/>
<path fill="#C69383" d="M259.462,472.702h15.976c0,0-8.335-4.516-12.272-4.516C259.923,468.187,259.462,472.702,259.462,472.702z"/>
<path fill="#C69383" d="M177.497,472.702h15.977c0,0-8.336-4.516-12.273-4.516C177.958,468.187,177.497,472.702,177.497,472.702z"/>
<path fill="#F4AD7D" d="M228.825,146.055l1.649,5.817c0.899,0.049,1.576-0.169,2.302-0.434L228.825,146.055z"/>
<path fill="#86DFF7" d="M182.165,181.683c-1.117,0.188-2.06,0.947-2.481,2c-0.886,2.21-2.033,4.581-0.566,5.497
	c1.851,1.158,20.838,4.098,21.997-2.084c0.694-3.706-0.233-8.566-0.233-8.566L182.165,181.683z"/>
<path fill="#86DFF7" d="M213.152,140.845c-5.904,0.521-13.198,1.042-13.023-2.084c0.173-3.126,2.604-20.434,2.604-20.434
	l4.189-2.828L213.152,140.845z"/>
<path opacity="0.5" fill="#BA4A4A" d="M245.8,131.294c-5.036-1.823-8.867-2.953-15.455-6.946c-5.21-5.21-8.892-6.757-11.705-7.634
	l-0.712-14.018c-0.806-0.074-1.617-0.141-2.436-0.193c-2.889-0.186-5.689-7.071-8.417-6.983l-0.151,19.979
	c-0.674,0.318-1.316,0.75-1.931,1.285c-4.408,1.577-7.767,4.726-10.301,8.773c-1.973,1.376-3.718,3.744-5.248,6.758
	c6.5,2.713,14.747,4.612,23.801,5.193C226.14,138.337,238.351,135.098,245.8,131.294z"/>
<path fill="#FFCD9C" d="M203.636,90.724c1.71,13.43,11.253,22.683,26.189,28.125c9.145-7.352,14.703-17.887,14.582-26.327
	c3.999-14.02-0.055-30.392-15.452-30.864C212.753,61.159,204.263,71.692,203.636,90.724z"/>
<path fill="#512F33" d="M207.596,100.644c-0.636-6.512-3.185-7.38-4.341-10.158c-1.158-2.779-2.778-9.233-1.39-13.632l6.773-9.059
	c0,0-4.594,16.122-2.605,19.217C209.881,93.002,207.596,100.644,207.596,100.644z"/>
<path fill="#684447" d="M210.338,82.138c4.47-5.74,1.837-10.059,2.579-13.786c0.748-3.726,3.876-10.845,9.281-12.098l16.268,3.065
	c0,0-19.161,5.309-19.072,10.471C219.561,79.778,210.338,82.138,210.338,82.138z"/>
<path fill="#684447" d="M233.645,44.871c6.485,0.926,16.67,2.548,30.332,21.765c2.872,4.039,11.578,9.726,18.061,9.494
	c0,0-12.733,3.241-21.995-6.483c-9.263-9.726-21.303-17.365-27.554-17.135L233.645,44.871z"/>
<path fill="#684447" d="M249.543,55.405c4.629,4.635,11.799,12.049,11.182,35.619c-0.132,4.954,3.414,14.729,8.737,18.438
	c0,0-12.128-5.057-13.694-18.396c-1.564-13.337-6.602-26.677-11.739-30.247L249.543,55.405z"/>
<path fill="#FFCD9C" d="M191.642,201.875c2.392,3.061,11.686,0.543,47.677-32.378l-0.849-0.975
	C238.47,168.522,182.346,189.951,191.642,201.875z"/>
<g>
	<path fill="#FFCD9C" d="M230.549,175.737c3.441-2.536,14.037-2.873,13.043-6.156c-0.886-2.943-7.109-6.239-14.926,3.714
		L230.549,175.737z"/>
	<path fill="#FFCD9C" d="M233.662,168.977c1.202,5.303,8.295,3.606,10.421,2.601c2.334-1.106,2.63-5.418,1.164-6.662
		C243.773,163.669,233.208,166.951,233.662,168.977z"/>
	<path fill="#FFCD9C" d="M240.265,165.644c1.762-2.868,2.324-6.86,1.033-7.12c-1.464-0.298-1.25,3.186-3.498,5.434
		c-2.427,2.439-3.813,4.081-2.887,4.949C235.833,169.775,238.503,168.513,240.265,165.644z"/>
	<path fill="#FFCD9C" d="M246.727,164.8c2.719-1.303,3.844-2.542,3.425-3.149c-0.417-0.611-1.925,0.216-4.641,1.515
		c-2.724,1.3-6.492,2.342-6.07,2.951C239.861,166.728,244.01,166.091,246.727,164.8z"/>
	<path fill="#FFCD9C" d="M247.885,167.831c2.986-0.798,5.235-2.688,4.969-3.36c-0.275-0.661-2.851,0.662-5.834,1.46
		c-2.972,0.8-4.864,1.465-4.591,2.133C242.705,168.732,244.909,168.63,247.885,167.831z"/>
	<path fill="#FFCD9C" d="M246.353,171.065c2.94-0.908,4.397-2.021,4.105-2.675c-0.292-0.662-2.128,0.271-5.067,1.175
		c-2.955,0.908-4.996,1.582-4.702,2.242C240.982,172.466,243.404,171.971,246.353,171.065z"/>
</g>
<ellipse transform="matrix(0.9929 0.1191 -0.1191 0.9929 30.0961 -23.734)" fill="#86DFF7" cx="213.674" cy="240.002" rx="1.216" ry="1.737"/>
<ellipse transform="matrix(0.989 0.1476 -0.1476 0.989 35.5994 -29.4893)" fill="#86DFF7" cx="216.452" cy="225.068" rx="1.215" ry="1.736"/>
<ellipse transform="matrix(0.989 0.1477 -0.1477 0.989 34.095 -29.9679)" fill="#86DFF7" cx="218.884" cy="214.649" rx="1.215" ry="1.736"/>
<ellipse transform="matrix(0.989 0.1476 -0.1476 0.989 32.4742 -30.5401)" fill="#86DFF7" cx="222.01" cy="203.534" rx="1.216" ry="1.736"/>
<path fill="#684447" d="M195.018,83.508c1.942-6.634,8.044-28.471,33.466-24.779l-8.429-6.643
	C201.802,51.254,195.341,63.976,195.018,83.508z"/>
<path fill="#684447" d="M225.119,75.977c2.464,4.698,4.586,6.545,10.359,7.178C232.846,83.516,227.21,83.571,225.119,75.977z"/>
<path fill="#684447" d="M246.572,84.179c-2.882,2.492-4.591,2.408-9.636-0.341C238.808,85.5,243.613,89.007,246.572,84.179z"/>
<path fill="#F4AD7D" d="M231.83,111.645c0.076-0.328-0.606-1.294-1.822-1.583c-1.212-0.289-2.495,0.208-2.567,0.537
	c-0.077,0.33,0.949,0.47,2.161,0.758C230.813,111.646,231.754,111.976,231.83,111.645z"/>
<path fill="#47241B" d="M229.379,108.063c-1.673-0.676-2.261-5.137,0.414-5.296c2.679-0.163,6.374,1.16,4.943,4.451
	C234.16,108.545,234.11,109.976,229.379,108.063z"/>
<path fill="#FCE0DB" d="M234.194,105.231c-0.337-0.627-2.249-2.918-4.893-1.891C226.657,104.368,235.144,106.998,234.194,105.231z"
	/>
<g>
	<path fill="#E08761" d="M237.591,90.326c1.601-0.796,6.61-2.342,6.089-0.813C243.278,90.703,237.591,90.326,237.591,90.326z"/>
	<path fill="#E08761" d="M237.769,90.344c2.738,0.702,5.864,2.02,4.801,2.667C241.38,93.741,237.769,90.344,237.769,90.344z"/>
	<path fill="#E08761" d="M237.18,90.307c-0.083,0.325,0.1,0.672,0.412,0.773c0.31,0.104,0.633-0.076,0.714-0.402
		c0.083-0.324-0.101-0.671-0.412-0.774C237.583,89.802,237.266,89.982,237.18,90.307z"/>
</g>
<g>
	<path fill="#E08761" d="M231.452,88.849c-2.512,0.241-9.912-0.173-8.471-1.816C224.097,85.749,231.452,88.849,231.452,88.849z"/>
	<path fill="#E08761" d="M231.227,88.747c-3.287-2.136-6.785-5.208-5.063-5.517C228.099,82.884,231.227,88.747,231.227,88.747z"/>
	<path fill="#E08761" d="M231.984,89.066c0.272-0.364,0.194-0.876-0.165-1.146c-0.363-0.269-0.875-0.198-1.145,0.165
		c-0.27,0.362-0.194,0.875,0.167,1.144C231.205,89.502,231.717,89.424,231.984,89.066z"/>
</g>
<g>
	<path fill="#F4AD7D" d="M246.393,110.19c0.481-1.992,2.429-7.438,2.173-10.423c-0.103-1.152-0.852-1.546-1.665-1.816
		c-2.615-0.865-6.985,1.786-3.22,12.329L246.393,110.19z"/>
	<path fill="#F4AD7D" d="M244.101,109.92c-0.658,0.552-1.846-0.511-2.999-1.89c-1.151-1.378-1.836-2.545-1.181-3.098
		c0.661-0.552,2.127,0.116,3.277,1.493C244.352,107.805,244.755,109.37,244.101,109.92z"/>
	<path fill="#F4AD7D" d="M244.846,103.787c0.263,0.867-0.933,1.532-2.373,2.027c-1.439,0.496-2.58,0.636-2.844-0.225
		c-0.265-0.87,0.686-1.973,2.128-2.464C243.199,102.628,244.581,102.927,244.846,103.787z"/>
	<path fill="#F4AD7D" d="M248.161,98.94c-0.057,0.655-1.777,0.778-3.71,0.718c-1.94-0.057-3.36-0.273-3.305-0.933
		c0.054-0.656,1.669-1.146,3.605-1.084C246.687,97.694,248.213,98.277,248.161,98.94z"/>
</g>
<path fill="#F4AD7D" d="M233.878,98.59c0.793,0.851,3.01-1.042,2.546-2.084c-0.463-1.041-2.2-2.546-1.969-3.82
	C234.688,91.412,232.259,96.854,233.878,98.59z"/>
<path fill="#F4D487" d="M235.381,99.043c-2.886,2.997,3.146,17.783,26.871,34.148c0,0,8.136-15.063,23.951-12.099
	c15.813,2.962,13.723-5.241,14.124-7.559c0,0-3.751,10.694-37.136-6.713C251.647,100.802,237.48,96.86,235.381,99.043z"/>
<path fill="#DBB363" d="M267.119,118.917c-15.897-5.149-28.233-13.396-31.202-20.215c-0.225,0.089-0.404,0.204-0.536,0.341
	c-2.886,2.997,3.146,17.783,26.871,34.148c0,0,4.862-8.988,14.369-11.709C273.549,120.816,270.362,119.967,267.119,118.917z"/>
<path fill="#DBB363" d="M247.277,100.116c0,0-0.113,0.173-1.409-0.27c-0.386-0.13-0.878,0.065-1.272,0.491
	c0.007-0.311-0.12-0.543-0.451-0.646c-0.724-0.223-1.789,0.302-2.389,1.287c-0.674,1.124-0.367,2.192,0.639,2.244
	c0.722,0.031,1.23-0.473,1.613-1.17c0.065,0.444,0.324,0.756,0.725,0.789c0.589,0.049,0.957-0.488,1.228-1.207
	c-0.044,0.587,0.177,1.049,0.579,1.093c0.481,0.05,0.742-0.511,0.928-1.229C247.629,100.834,247.668,100.258,247.277,100.116z"/>
<g>
	<path fill="#FFCD9C" d="M244.352,97.589c0.621,0.213,0.359,1.351-0.129,2.581c-0.483,1.231-1.007,2.091-1.625,1.882
		c-0.621-0.213-0.732-1.382-0.244-2.611C242.84,98.209,243.732,97.381,244.352,97.589z"/>
	<path fill="#FFCD9C" d="M246.321,97.833c0.617,0.211,0.355,1.349-0.132,2.581c-0.481,1.231-1.006,2.09-1.626,1.88
		c-0.617-0.213-0.727-1.381-0.242-2.61C244.808,98.452,245.702,97.623,246.321,97.833z"/>
	<path fill="#FFCD9C" d="M242.494,97.621c0.614,0.209,0.352,1.347-0.133,2.58c-0.481,1.231-1.003,2.089-1.625,1.881
		c-0.621-0.212-0.728-1.38-0.244-2.613C240.982,98.241,241.875,97.411,242.494,97.621z"/>
</g>
</svg>
