<?xml version="1.0" encoding="utf-8"?>
<!-- Generator: Adobe Illustrator 15.1.0, SVG Export Plug-In . SVG Version: 6.00 Build 0)  -->
<!DOCTYPE svg PUBLIC "-//W3C//DTD SVG 1.1//EN" "http://www.w3.org/Graphics/SVG/1.1/DTD/svg11.dtd">
<svg version="1.1" id="Layer_35" xmlns="http://www.w3.org/2000/svg" xmlns:xlink="http://www.w3.org/1999/xlink" x="0px" y="0px"
	 width="194.667px" height="512px" viewBox="161.167 0 194.667 512" enable-background="new 161.167 0 194.667 512"
	 xml:space="preserve">
<path fill="#F4AD7D" d="M253.812,146.142c9.628,12.043,25.49,26.209,28.099,23.258c3.821-4.322-20.443-30.647-20.443-30.647
	L253.812,146.142z"/>
<path fill="#E2768A" d="M259.874,165.121c-10.639-10.809-22.116-32.646-17.954-41.915c4.163-9.267,31.429,26.816,31.429,26.816
	L259.874,165.121z"/>
<polygon fill="#E2768A" points="257.808,163.189 260.204,166.302 275.487,149.218 272.747,145.513 "/>
<path fill="#7F4632" d="M326.414,72.911c-4.59,0.483-6.763,3.62-11.35,3.38c-10.598-0.555-11.356-18.347-18.756-20.04
	c-7.403-1.689-4.813,10.778-13.597,11.11c-12.852,0.482-0.482-25.353-12.313-34.529c-13.776-10.684-23.434,0-23.434,0
	s-0.47-11.106-10.853-11.35c-11.959-0.277-11.846,9.661-11.846,9.661s-17.207-9.173-24.854,6.519
	c-7.648,15.692,5.553,37.905,5.553,37.905c-5.675,9.9,12.365,23.903,22.214,27.526c14.309,10.625,34.721-7.245,36.939-11.35
	c2.223-4.104-5.407-24.627,10.381-8.693c15.792,15.937,18.336-10.497,21.976-11.588c2.413-0.724,13.465,12.688,18.589,13.038
	c5.278,0.362,8.271-7,10.383-7c2.662,0,7.968,14.003,12.555,3.623C333.314,87.4,328.147,72.729,326.414,72.911z"/>
<path fill="#683525" d="M264.119,91.744c2.223-4.104-5.407-24.627,10.381-8.693c15.792,15.937,18.336-10.497,21.976-11.588
	c2.413-0.724,13.465,12.688,18.589,13.038c5.278,0.362,8.271-7,10.383-7c2.662,0,7.968,14.003,12.555,3.623
	c-4.688,6.278-9.854-8.393-11.588-8.211c-4.59,0.483-6.763,3.62-11.35,3.38c-10.598-0.555-11.053-15.995-18.453-17.688
	c-7.403-1.689-4.26,13.328-13.043,13.659c-5.978,0.226-23.715-4.296-23.752-11.135c-10.94,7.17-1.661,12.763-1.661,25.658
	c0,3.395,0.49,6.689,1.413,9.832C261.938,94.581,263.576,92.749,264.119,91.744z"/>
<path fill="#683525" d="M227.18,103.094c14.309,10.625,37.328-7.705,37.437-12.372c0.493-21.166-3.313-31.501-28.796-31.501
	c-12.866,0-29.694-11.81-38.216-3.827c1.819,10.84,7.361,20.173,7.361,20.173C199.291,85.468,217.331,99.471,227.18,103.094z"/>
<path fill="#684447" d="M201.027,479.474c8.266-49.808-0.433-87.943,2.494-103.311c1.791-9.404,13.957-21.434,10.06-27.72
	c-20.49-33.053-26.139-90.848-18.973-108.599c7.161-17.747,15.613-23.112,24.568-25.673c9.528-2.721,26.854-0.052,40.837,16.791
	c12.894,15.53,23.143,16.561,41.519,116.613c3.03,16.494,23.142,106.858,23.822,131.897h-3.175
	c-11.8-48.859-32.898-87.991-32.898-102.631c0-13.337,3.436-22.485-1.199-29.682c-20.945-32.526-35.992-66.432-43.155-69.388
	c-6.652-2.746-9.3-1.702-12.166,1.257c-2.148,2.222-4.056,69.228-4.056,69.228l-23.381,131.216H201.027z"/>
<g>
	<path fill="#543539" d="M293.22,373.396c0-13.337,3.434-22.485-1.201-29.682c-20.944-32.526-35.992-66.432-43.155-69.389
		c-6.652-2.745-9.299-1.701-12.166,1.258c-0.119,0.124-0.236,0.455-0.354,0.95c2.025-0.686,4.575-0.415,8.583,1.239
		c7.163,2.956,22.21,36.861,43.155,69.388c4.635,7.196,1.199,16.345,1.199,29.682c0,14.64,21.099,53.771,32.898,102.631h3.175
		c-0.069-2.549-0.344-5.783-0.775-9.538C312.578,423.934,293.22,387.421,293.22,373.396z"/>
	<path fill="#543539" d="M204.964,476.025c8.267-49.806,17.099-90.835,20.027-106.201c1.791-9.405-4.409-18.096-7.473-24.828
		c-14.187-31.166-14.338-72.483-7.171-90.234c12.552,2.215,50.332,1.108,54.516-18.336c-5.187,3.777-65.858-7.474-70.254,3.419
		c-7.166,17.751-1.517,75.546,18.973,108.599c3.897,6.286-8.269,18.315-10.06,27.72c-2.927,15.367,5.772,53.503-2.494,103.311h4.297
		l0.615-3.448H204.964z"/>
</g>
<path fill="#C45C6C" d="M193.312,244.575c0.672,8.054,71.693,9.602,71.693-9.527c0-1.362-14.066-19.057-8.167-38.572
	c5.898-19.508,7.715-25.183,14.974-33.803c-4.993-14.067-19.964-47.417-45.829-45.15c-25.864,2.271-23.688,25.38-18.15,45.83
	c2.949,10.892,13.589,25.77,9.529,40.385C215.093,211.906,191.951,228.24,193.312,244.575z"/>
<polygon fill="#F28CA2" points="221.188,123.593 247.387,144.379 240.25,120.504 "/>
<path fill="#AF4B5F" d="M222.284,239.872c0-31.264,16.639-56.608,37.164-56.608c0.498,0,0.992,0.029,1.485,0.059
	c3.159-9.53,5.548-14.273,10.715-20.449c-0.744-0.012-1.483-0.038-2.232-0.038c-17.289,0-25.419,1.866-39.01,7.63
	c-1.714,0.727-19.043-35.996-20.674-35.195c-1.504,0.74-0.246,25.597,3.264,41.276c3.563,8.435,6.958,17.866,4.367,27.191
	c-2.269,8.168-25.411,24.502-24.05,40.837c0.295,3.536,14.15,5.817,29.602,5.646C222.507,246.864,222.284,243.408,222.284,239.872z"
	/>
<path fill="#F28CA2" d="M217.362,203.738c3.691,1.369,29.718,4.138,38.579-2.876c0,0-0.739,9.414,0,12.92
	c0,0-22.705,8.491-46.333,0.923C209.608,214.706,215.884,207.507,217.362,203.738z"/>
<g>
	<path fill="#993C52" d="M211.27,249.409c-1.361-16.334,10.768-42.518,13.722-45.471c-4.185-4.923-2.345-29.958-5.907-38.393
		c-2.971-13.271-7.463-20.879-6.898-27.112c-1.248-2.079-2.142-3.316-2.455-3.162c-1.504,0.74-0.246,25.597,3.264,41.276
		c3.563,8.435,6.958,17.866,4.367,27.191c-2.269,8.168-25.411,24.502-24.05,40.837C193.636,248.442,211.372,250.636,211.27,249.409z
		"/>
</g>
<path fill="#E2768A" d="M243.239,127.525c1.772-0.628-1.078-10.885-1.078-10.885l-10.119-4.791l0.27,5.838
	C232.312,117.688,238.858,129.067,243.239,127.525z"/>
<path fill="#FFCD9C" d="M222.126,117.978l7.487-25.864l11.117,5.445l-2.042,29.493C238.688,127.052,225.076,130.229,222.126,117.978
	z"/>
<path fill="#E2768A" d="M217.362,119.339l6.09-5.974l6.104,8.753c0,0-2.268,9.587-5.445,9.357
	C220.934,131.252,217.362,119.339,217.362,119.339z"/>
<path fill="#FFCD9C" d="M204.223,160.86c2.816,15.118,10.263,35.382,14.094,34.404c5.614-1.439-3.478-36.244-3.478-36.244
	L204.223,160.86z"/>
<path fill="#F4AD7D" d="M217.952,172.723c-1.461-7.371-3.113-13.703-3.113-13.703l-10.616,1.84
	c0.853,4.581,2.133,9.633,3.607,14.424C210.777,174.209,214.198,173.339,217.952,172.723z"/>
<path fill="#F28CA2" d="M200.982,170.611c-2.947-14.877-0.534-39.425,8.038-44.881s11.518,39.677,11.518,39.677L200.982,170.611z"/>
<path fill="#E2768A" d="M217.011,166.346l3.527-0.938c0,0-2.729-41.743-10.567-40.063
	C216.622,127.643,216.554,159.672,217.011,166.346z"/>
<polygon fill="#FFCD9C" points="228.933,126.148 244.814,139.761 238.915,124.787 "/>
<path fill="#FFCD9C" d="M245.937,149.588c-10.667,9.549-39.001,37.88-28.404,45.338c5.287,3.721,29.76-43.563,29.76-43.563
	L245.937,149.588z"/>
<g>
	<path fill="#FFCD9C" d="M288.377,123.188c0.358-4.529,7.463-13.276,4.135-14.765c-2.98-1.335-9.96,1.369-7.406,14.579
		L288.377,123.188z"/>
	<path fill="#FFCD9C" d="M285.114,115.982c5.096,2.727,8.671-4.155,9.344-6.562c0.735-2.645-2.521-5.884-4.541-5.572
		C287.889,104.165,283.171,114.937,285.114,115.982z"/>
	<path fill="#FFCD9C" d="M287.03,108.357c-1.076-3.414-3.893-6.643-4.997-5.787c-1.261,0.969,1.688,3.224,1.931,6.593
		c0.269,3.648,0.622,5.905,1.965,5.764C287.267,114.794,288.111,111.77,287.03,108.357z"/>
	<path fill="#FFCD9C" d="M290.853,102.579c0.846-3.091,0.634-4.857-0.146-4.943c-0.782-0.091-1.168,1.696-2.015,4.784
		c-0.852,3.09-2.636,6.844-1.854,6.928C287.622,109.436,289.998,105.659,290.853,102.579z"/>
	<path fill="#FFCD9C" d="M294.094,103.758c1.437-2.954,1.485-6.075,0.761-6.331c-0.724-0.238-1.453,2.751-2.889,5.703
		c-1.427,2.945-2.209,4.928-1.482,5.174C291.211,108.546,292.664,106.706,294.094,103.758z"/>
	<path fill="#FFCD9C" d="M295.626,107.241c1.318-2.996,1.438-4.94,0.707-5.161c-0.734-0.224-1.265,1.898-2.583,4.89
		c-1.328,3.006-2.206,5.115-1.472,5.339C293.013,112.531,294.302,110.239,295.626,107.241z"/>
</g>
<g>
	<path fill="#FFCD9C" d="M244.744,155.958c2.195-3.976,12.276-9.014,9.858-11.742c-2.167-2.448-9.64-2.862-12.763,10.223
		L244.744,155.958z"/>
	<path fill="#FFCD9C" d="M244.744,148.046c3.518,4.588,9.613-0.206,11.218-2.121c1.763-2.104,0.131-6.4-1.838-6.948
		C252.146,138.428,243.404,146.293,244.744,148.046z"/>
	<path fill="#FFCD9C" d="M249.635,141.894c0.427-3.554-0.806-7.656-2.167-7.333c-1.547,0.362,0.208,3.632-0.96,6.8
		c-1.259,3.435-1.869,5.636-0.588,6.063C247.194,147.853,249.211,145.447,249.635,141.894z"/>
	<path fill="#FFCD9C" d="M255.5,138.206c2.046-2.466,2.582-4.162,1.905-4.561c-0.675-0.405-1.762,1.063-3.808,3.526
		c-2.05,2.465-5.226,5.146-4.546,5.546C249.728,143.12,253.451,140.659,255.5,138.206z"/>
	<path fill="#FFCD9C" d="M257.967,140.617c2.525-2.097,3.86-4.921,3.303-5.452c-0.561-0.516-2.457,1.907-4.983,4.003
		c-2.516,2.094-4.045,3.577-3.484,4.101C253.364,143.79,255.447,142.712,257.967,140.617z"/>
	<path fill="#FFCD9C" d="M257.924,144.421c2.438-2.184,3.35-3.905,2.775-4.408c-0.577-0.509-1.936,1.207-4.37,3.389
		c-2.449,2.189-4.121,3.748-3.544,4.256C253.362,148.162,255.481,146.606,257.924,144.421z"/>
</g>
<path fill="#FFCD9C" d="M286.708,116.824c-5.425,13.252-18.535,51.114-5.742,53.193c6.378,1.036,7.735-52.19,7.735-52.19
	L286.708,116.824z"/>
<polygon fill="#E2768A" points="255.264,149.546 259.694,158.652 265.109,158.406 261.662,149.546 "/>
<path fill="#993C52" d="M210.199,244.785c10.885,2.713,24.263,3.244,40.081-2.762c-13.528,4.382-27.038,3.799-39.7,1.115
	C203.932,241.731,202.792,242.941,210.199,244.785z"/>
<path opacity="0.5" fill="#BA4A4A" d="M255.137,128.994c-4.667-4.522-9.076-7.815-11.586-7.226
	c-0.078-0.046-0.153-0.098-0.229-0.144c-0.489-2.561-1.161-4.983-1.161-4.983l-2.664-1.262l1.233-17.82l-10.036-4.917
	c-0.415,0.005-0.829,0.008-1.24,0.019l-5.995,20.713l-0.007-0.009l-6.09,5.974c0,0,0.009,0.032,0.012,0.039
	c-4.103,1.555-7.062,3.929-9.109,6.897c-0.723,0.579-1.395,1.302-2.022,2.144c6.428,3.703,15.238,5.99,24.962,5.99
	C240.417,134.409,248.812,132.358,255.137,128.994z"/>
<path fill="#FFCD9C" d="M220.377,87.867c3.663,12.794,11.852,21.377,27.606,26.486c8.832-8.066,15.063-19.93,12.271-30.81
	c3.479-18.744-5.371-34.673-20.399-32.839C224.038,52.633,218.154,69.286,220.377,87.867z"/>
<path fill="#FFCD9C" d="M221.342,85.353c-0.89-3.486-3.212-5.903-5.188-5.399c-1.976,0.505-2.856,3.74-1.966,7.225
	c0.889,3.486,4.649,8.96,8.71,8.468C224.923,95.401,222.232,88.84,221.342,85.353z"/>
<path fill="#F4AD7D" d="M220.349,85.916c-0.608-2.38-2.194-4.03-3.543-3.686c-1.348,0.347-1.949,2.556-1.34,4.937
	c0.608,2.38,3.695,3.801,5.043,3.456C221.858,90.278,220.957,88.299,220.349,85.916z"/>
<path fill="#FFCD9C" d="M221.165,88.719c-0.465-1.435-1.621-2.346-2.582-2.037c-0.96,0.312-1.361,1.723-0.896,3.157
	c0.465,1.434,2.693,2.095,3.653,1.784C222.3,91.315,221.631,90.151,221.165,88.719z"/>
<path fill="#683525" d="M225.298,90.292c-0.185-1.292-2.276-5.228-5.23-7.813c-2.064-1.806-3.446-6.4-2.153-11.199l3.507-7.199
	c0,0-1.107,12.551,2.215,16.982C225.609,83.692,225.298,90.292,225.298,90.292z"/>
<path fill="#7F4632" d="M225.113,78.888c0.327-1.578-0.037-7.273-2.38-11.507c-1.638-2.959-6.666-9.409-3.157-14.436l12.014-6.08
	c0,0-6.539,14.094-4.539,20.623C228.237,71.363,225.113,78.888,225.113,78.888z"/>
<path fill="#7F4632" d="M264.732,74.484c-0.23-1.7-2.826-6.935-7.344-9.755c-3.346-2.083-13.098-10.751-10.281-18.045l12.757-6.696
	c0,0-2.232,16.968,2.72,22.43C265.364,65.485,264.732,74.484,264.732,74.484z"/>
<path fill="#7F4632" d="M232.253,65.361c13.42-7.476,18.195-16.272,13.792-20.057l-20.51,6.054c0,0,4.447,6.704-0.282,12.038
	C221.882,69.288,230.53,66.323,232.253,65.361z"/>
<path fill="#543539" d="M201.667,477.924c0,0-2.862-6.748-2.044-7.975c0.817-1.228,9.201-1.84,9.61-1.022
	c0.409,0.818-2.659,8.18-2.659,8.18S202.485,478.74,201.667,477.924z"/>
<path fill="#543539" d="M321.455,479.244c0,0-3.778-6.284-3.14-7.612c0.641-1.328,8.857-3.098,9.379-2.346
	c0.519,0.754-1.491,8.467-1.491,8.467S322.379,479.938,321.455,479.244z"/>
<path fill="#BDEFE7" d="M199.887,481.321h20.428c0,0-10.658-5.933-15.692-5.933C200.477,475.389,199.887,481.321,199.887,481.321z"
	/>
<path fill="#BDEFE7" d="M320.979,481.321h20.427c0,0-10.657-5.933-15.69-5.933C321.567,475.389,320.979,481.321,320.979,481.321z"/>
<circle fill="#683525" cx="219.823" cy="92.568" r="1.6"/>
<polygon fill="#F28CA2" points="198.348,168.558 198.902,172.804 222.16,167.451 221.606,162.466 "/>
<path fill="#7F4632" d="M247.877,78.659c-2.503,0.413-7.959,0.557-11.007-7.188C239.887,76.245,242.192,78.101,247.877,78.659z"/>
<path fill="#7F4632" d="M252.728,79.347c1.84,0.627,5.938,1.442,9.099-3.832C259.021,78.616,257.076,79.678,252.728,79.347z"/>
<path fill="#F49E73" d="M250.159,92.14c0.843,0.904,3.198-1.108,2.706-2.215c-0.492-1.108-2.339-2.708-2.092-4.062
	C251.02,84.509,248.437,90.292,250.159,92.14z"/>
<ellipse fill="#7F4632" cx="207.854" cy="52.819" rx="10.614" ry="9.598"/>
<g>
	<path fill="#F49E73" d="M253.95,85.35c0.763-0.781,4.227-3.625,4.938-2.48C259.598,84.019,254.534,85.467,253.95,85.35z"/>
	<path fill="#F49E73" d="M254.201,85.335c0.848-0.072,4.413-0.034,4.452,0.888C258.689,87.149,254.565,85.657,254.201,85.335z"/>
	<path fill="#F49E73" d="M253.676,85.396c-0.104-0.233,0.013-0.489,0.258-0.576c0.249-0.087,0.531,0.035,0.636,0.265
		c0.104,0.231-0.013,0.489-0.261,0.574C254.063,85.746,253.781,85.627,253.676,85.396z"/>
</g>
<path fill="#472D1F" d="M243.996,105.435c-0.77-2.682,1.595-6.063,5.003-9.086c3.407-3.016,4.923,6.992,2.563,9.482
	C249.945,107.54,244.721,107.965,243.996,105.435z"/>
<path fill="#FCE7DE" d="M246.529,100.232c1.875,0.603,3.245,0.989,5.208,0.477c0,0-0.249-4.606-1.729-4.446
	C248.531,96.426,246.529,100.232,246.529,100.232z"/>
<g>
	<path fill="#F49E73" d="M245.418,84.816c-1.163-1.209-6.378-5.712-7.329-4.2C237.14,82.127,244.58,84.896,245.418,84.816z"/>
	<path fill="#F49E73" d="M245.052,84.761c-1.176-0.034-6.098,0.35-6.057,1.748C239.035,87.91,244.584,85.279,245.052,84.761z"/>
	<path fill="#F49E73" d="M245.156,84.752c-0.896-0.303-4.736-1.262-4.987-0.396C239.916,85.226,244.692,84.959,245.156,84.752z"/>
	
		<ellipse transform="matrix(0.9193 0.3936 -0.3936 0.9193 53.108 -89.6691)" fill="#F49E73" cx="245.158" cy="84.638" rx="0.716" ry="0.613"/>
</g>
<path fill="#F49E73" d="M246.633,109.211c0.246-0.497,0.694-0.04,1.367-0.084c0.904-0.057,2.039-0.479,1.95-0.223
	c-0.159,0.451-1.168,1.234-1.8,1.203C247.52,110.079,246.269,109.943,246.633,109.211z"/>
<path fill="#37EFD5" d="M260.861,112.023c1.678,0.701,5.056,1.971,4.381,2.684C264.564,115.422,262.574,114.942,260.861,112.023z"/>
<path fill="#37EFD5" d="M259.322,119.2c1.445,1.103,4.394,3.183,3.559,3.702C262.049,123.425,260.242,122.457,259.322,119.2z"/>
<path fill="#37EFD5" d="M250.24,104.039c1.653,0.756,4.986,2.137,4.288,2.829C253.829,107.559,251.854,107.011,250.24,104.039z"/>
<path fill="#37EFD5" d="M252.579,111.352c1.678,0.701,5.056,1.971,4.381,2.684C256.282,114.75,254.292,114.27,252.579,111.352z"/>
<path fill="#37EFD5" d="M253.274,120.017c1.445,1.103,4.394,3.183,3.559,3.702C256.001,124.241,254.194,123.273,253.274,120.017z"/>
<path fill="#37EFD5" d="M245.102,104.039c1.653,0.756,4.986,2.137,4.288,2.829C248.69,107.559,246.716,107.011,245.102,104.039z"/>
<path fill="#934D37" d="M227.002,33.31c-2.075-3.771-10.908-7.792-20.703-3.323c-6.008,2.742-8.795,8.815-6.722,12.586
	c2.074,3.771,8.238,4.096,14.645,2.493C217.915,44.144,229.077,37.081,227.002,33.31z"/>
<path fill="#934D37" d="M221.069,57.295c3.904,1.123,12.478-2.107,16.013-11.634c2.169-5.846-0.037-11.756-3.94-12.881
	c-3.905-1.126-8.228,2.781-11.425,8.135C219.875,43.997,217.164,56.169,221.069,57.295z"/>
<path fill="#934D37" d="M223.903,33.696c-0.668-2.397,0.552-9.148,5.886-11.026c8.738-3.076,13.725,0.525,13.167,2.954
	C241.235,33.129,225.17,38.246,223.903,33.696z"/>
<path fill="#7F4632" d="M214.278,50.319c-2.405,1.947,3.712-12.892,12.256-15.636c0,0-8.128,7.499-7.313,17.105
	C219.222,51.789,217.306,47.87,214.278,50.319z"/>
</svg>
