<?xml version="1.0" encoding="utf-8"?>
<!-- Generator: Adobe Illustrator 15.1.0, SVG Export Plug-In . SVG Version: 6.00 Build 0)  -->
<!DOCTYPE svg PUBLIC "-//W3C//DTD SVG 1.1//EN" "http://www.w3.org/Graphics/SVG/1.1/DTD/svg11.dtd">
<svg version="1.1" id="Layer_1" xmlns="http://www.w3.org/2000/svg" xmlns:xlink="http://www.w3.org/1999/xlink" x="0px" y="0px"
	 width="512px" height="368px" viewBox="0 78.5 512 368" enable-background="new 0 78.5 512 368" xml:space="preserve">
<path fill="#FFE6B3" d="M357.255,283.095l-68.762-68.759c-5.084-5.085-13.325-5.085-18.41,0c-5.086,5.085-5.086,13.325,0,18.411
	l68.76,68.76c2.544,2.543,5.875,3.815,9.206,3.815s6.662-1.272,9.205-3.815C362.341,296.421,362.341,288.183,357.255,283.095
	L357.255,283.095z"/>
<path fill="#FFCA80" d="M357.255,283.095l-68.762-68.759c-5.084-5.085-13.325-5.085-18.41,0l87.172,87.171
	C362.341,296.421,362.341,288.183,357.255,283.095z"/>
<path fill="#FF8E8E" d="M276.433,323.541l-22.653-39.059c-2.342-3.907-6.771-5.99-11.197-5.99c-4.426,0-8.854,2.084-11.197,5.99
	l-22.654,39.059c-3.385,5.989-5.208,12.76-5.208,19.529c0,21.613,17.445,39.06,39.059,39.06c21.614,0,39.06-17.446,39.06-39.06
	C281.642,336.301,279.818,329.53,276.433,323.541z"/>
<path fill="#FFCEBF" d="M353.249,142.307c-11.197,55.986-55.724,98.169-110.667,107.542c-7.551,1.302-15.104,2.084-22.915,2.084
	H58.57c-7.292,0-13.02-5.729-13.02-13.02V108.716c0-7.292,5.728-13.02,13.02-13.02h118.913l26.04,13.02h78.119l26.039-13.02h7.292
	c11.717,0,22.654,5.208,30.204,14.321C352.728,119.132,355.594,130.849,353.249,142.307z"/>
<path fill="#FF637B" d="M276.433,323.541c3.386,5.989,5.209,12.76,5.209,19.529c0,21.613-17.445,39.06-39.06,39.06V278.492
	c4.426,0,8.855,2.084,11.197,5.99L276.433,323.541z"/>
<path fill="#FFBFAB" d="M353.249,142.307c-11.197,55.986-55.724,98.169-110.667,107.542V108.716h39.06l26.039-13.02h7.292
	c11.717,0,22.654,5.208,30.204,14.321C352.728,119.132,355.594,130.849,353.249,142.307z"/>
<path fill="#FF8E8E" d="M307.681,95.697v13.02c0,35.935-29.164,65.098-65.099,65.098h-52.079c-7.292,0-13.02-5.729-13.02-13.019
	V95.697H307.681z"/>
<path fill="#FF637B" d="M307.681,95.697v13.02c0,35.935-29.164,65.098-65.099,65.098V95.697H307.681z"/>
<path fill="#76E2F8" d="M486.143,375.162l-92.066-92.067c-15.234-15.233-40-15.231-55.233,0c-15.232,15.234-15.232,40.002,0,55.233
	l92.066,92.067c5.087,5.083,13.326,5.083,18.411,0l18.411-18.413l18.411-18.41C491.228,388.486,491.228,380.249,486.143,375.162z"/>
<path fill="#4BB9EC" d="M486.143,375.162l-92.066-92.067c-15.234-15.233-40-15.231-55.233,0l128.889,128.888l18.411-18.41
	C491.228,388.486,491.228,380.249,486.143,375.162z"/>
</svg>
