<?xml version="1.0" encoding="utf-8"?>
<!-- Generator: Adobe Illustrator 15.1.0, SVG Export Plug-In . SVG Version: 6.00 Build 0)  -->
<!DOCTYPE svg PUBLIC "-//W3C//DTD SVG 1.1//EN" "http://www.w3.org/Graphics/SVG/1.1/DTD/svg11.dtd">
<svg version="1.1" id="Layer_35" xmlns="http://www.w3.org/2000/svg" xmlns:xlink="http://www.w3.org/1999/xlink" x="0px" y="0px"
	 width="512px" height="512px" viewBox="0 0 512 512" enable-background="new 0 0 512 512" xml:space="preserve">
<path fill="#602721" d="M275.511,78.373c-45.901,21.275-132.839,61.412-141.806,186.042
	c-4.859,67.461,22.712,188.99,118.962,195.486c96.26,6.506,164.431,15.493,140.575-184.316
	C369.382,75.765,338.603,45.431,275.511,78.373z"/>
<path fill="#9E433C" d="M399.87,337.884c0.005-1.434,0.011-2.888,0-4.352c-0.025-2.755-0.081-5.571-0.157-8.438
	c-0.092-3.538-0.229-7.198-0.406-10.909c0-0.061-0.006-0.111-0.011-0.172c-0.62-13.247-1.713-27.511-3.437-43.167
	c-16.275-148.083-34.941-206.43-76.328-219.521c-13.39-6.402-28.309-6.191-44.844-0.59c-4.474,0.813-9.094,1.797-13.934,2.976
	c-3.142-1.167-6.283-1.975-9.409-2.597c-10.085-3.754-21.41-2.214-33.163,3.604c-27.835,11.509-54.116,44-76.298,93.083
	c0.005-0.005,0.01-0.013,0.02-0.023c-15.885,33.745-27.724,73.236-31.525,113.825c-6.436,68.696,24.933,191.638,129.483,198.256
	c21.217,1.342,41.144,2.766,59.295,2.512c-14.472-0.204-30.057-1.362-46.49-2.471c-96.25-6.496-119.8-128.025-114.941-195.486
	c5.383-74.86,37.453-119.208,72.15-147.328c57.465,3.604,96.896,76.875,121.661,182.715c11.458,48.971-1.606,118.225,37.564,141.739
	c10.299-9.333,18.265-22.661,23.525-41.266c-0.203,0.874-0.396,1.759-0.615,2.603c3.472-11.468,5.83-25.09,7.015-41.133
	c0-0.051,0-0.111,0.011-0.163C399.57,354.211,399.85,346.322,399.87,337.884z"/>
<g>
	<path fill="#77392F" d="M137.726,264.414c3.172-44.109,15.646-77.566,32.431-103.412c-11.523-0.795-22.371-2.163-32.339-4.071
		c-13.791,31.645-23.977,67.675-27.438,104.673c-6.436,68.696,24.933,191.638,129.483,198.256
		c21.217,1.342,41.144,2.766,59.295,2.512c-14.472-0.204-30.057-1.362-46.49-2.471C156.417,453.404,132.867,331.875,137.726,264.414
		z"/>
	<path fill="#77392F" d="M399.307,314.186c0-0.061-0.006-0.111-0.011-0.172c-0.62-13.247-1.713-27.511-3.437-43.167
		c-7.533-68.542-15.585-117.83-26.163-152.337c-23.082,15.082-57.577,27.998-97.901,35.742
		c25.462,32.156,45.153,83.196,59.742,145.549c11.458,48.971-1.606,118.225,37.564,141.739
		c10.299-9.333,18.265-22.661,23.525-41.266c-0.203,0.874-0.396,1.759-0.615,2.603c3.472-11.468,5.83-25.09,7.015-41.133
		c0-0.051,0-0.111,0.011-0.163c0.533-7.37,0.813-15.259,0.833-23.697c0.005-1.434,0.011-2.888,0-4.352
		c-0.025-2.755-0.081-5.571-0.157-8.438C399.621,321.557,399.484,317.896,399.307,314.186z"/>
</g>
<path fill="#FFC397" d="M293.465,188.283c-15.565-50.356-44.595-82.962-63.266-81.485c-40.747,3.215-67.449,79.729-65.416,146.896
	c0.127,18.942,21.461,73.292,68.633,90.066c38.037-12.312,78.886-57.003,80.421-88.988
	C316.15,224.084,295.899,196.165,293.465,188.283z"/>
<path fill="#F7A27C" d="M302.522,206.628c1.438,7.109,2.298,14.551,2.12,22.198c0.056,38.594-29,84.251-71.226,114.933
	c38.037-12.312,78.886-57.003,80.421-88.988C315.21,236.518,308.607,219.291,302.522,206.628z"/>
<path fill="#FFC397" d="M335.142,243.299c5.215-12.906,2.541-26.15-5.968-29.592c-8.515-3.439-19.632,4.237-24.847,17.143
	c-5.216,12.901-2.547,26.148,5.963,29.583C318.804,263.875,329.926,256.205,335.142,243.299z"/>
<path fill="#EF8F6F" d="M332.3,240.101c3.437-8.489,1.678-17.216-3.93-19.486c-5.606-2.267-12.937,2.786-16.367,11.282
	c-3.437,8.499-1.678,17.222,3.924,19.489C321.539,253.658,328.863,248.605,332.3,240.101z"/>
<path fill="#FFC397" d="M322.784,248.509c2.389-5.917,1.164-11.991-2.74-13.567c-3.894-1.576-8.997,1.947-11.381,7.858
	c-2.395,5.932-1.169,12.007,2.729,13.583C315.297,257.959,320.39,254.436,322.784,248.509z"/>
<path fill="#77392F" d="M302.853,264.958c0.534-24.664,3.752-51.48,27.348-63.263l-24.399-43.436c0,0-9.495,23.753-12.596,42.353
	C289.987,219.914,291.06,235.465,302.853,264.958z"/>
<path fill="#472D1F" d="M240.106,288.821c2.109,7.899-11.31,31.2-22.112,30.448c-8.047-0.569-21.126-21.4-20.867-29.381
	C200.005,284.714,232.517,284.765,240.106,288.821z"/>
<path fill="#FCE7DE" d="M235.349,290.265c-13.262-2.531-22.818-4.046-34.418,0.041c0,0,5.221,17.913,14.975,18.686
	C233.178,310.363,235.349,290.265,235.349,290.265z"/>
<path fill="#5B371E" d="M179.759,222.369c0.844-6.445,5.292-11.046,9.917-10.248c4.641,0.791,7.726,6.667,6.867,13.099
	c-0.844,6.443-5.276,11.048-9.917,10.235C182,234.683,178.93,228.832,179.759,222.369z"/>
<path fill="#5B371E" d="M169.623,219.608c8.83-6.687,20.348-12.558,35.811-1.657C190.672,214.581,180.913,216.655,169.623,219.608z"
	/>
<path fill="#5B371E" d="M260.779,223.904c-0.422-6.512-4.549-11.419-9.206-10.982c-4.666,0.44-8.128,6.072-7.696,12.553
	c0.417,6.509,4.529,11.424,9.201,10.957C257.729,236.004,261.176,230.393,260.779,223.904z"/>
<path fill="#5B371E" d="M271.043,221.894c-8.347-7.335-19.438-14.032-35.532-4.349C250.43,215.308,260.007,218.109,271.043,221.894z
	"/>
<path fill="#7F4632" d="M278.998,202.265c-3.523-6.621-16.774-26.064-46.196-14.561C255.6,185.29,266.533,188.517,278.998,202.265z"
	/>
<path fill="#7F4632" d="M163.722,202.265c3.522-6.621,16.769-26.064,46.196-14.561C187.119,185.29,176.186,188.517,163.722,202.265z
	"/>
<path fill="#F7A27C" d="M234.51,268.325c0-4.298-6.39-22.663-14.746-22.663c-8.357,0-15.504,18.365-15.504,22.663
	c0,4.291,6.766,7.777,15.127,7.777C227.739,276.103,234.51,272.616,234.51,268.325z"/>
<path fill="#FFC397" d="M224.298,264.43c1.164-4.123,2.45-22.143-2.506-23.551c-4.966-1.408-14.309,14.34-15.478,18.462
	c-1.169,4.133,1.906,8.619,6.867,10.032C218.147,270.775,223.124,268.569,224.298,264.43z"/>
</svg>
