<?xml version="1.0" encoding="utf-8"?>
<!-- Generator: Adobe Illustrator 15.1.0, SVG Export Plug-In . SVG Version: 6.00 Build 0)  -->
<!DOCTYPE svg PUBLIC "-//W3C//DTD SVG 1.1//EN" "http://www.w3.org/Graphics/SVG/1.1/DTD/svg11.dtd">
<svg version="1.1" id="Layer_35" xmlns="http://www.w3.org/2000/svg" xmlns:xlink="http://www.w3.org/1999/xlink" x="0px" y="0px"
	 width="194.667px" height="512px" viewBox="161.167 0 194.667 512" enable-background="new 161.167 0 194.667 512"
	 xml:space="preserve">
<g>
	<path fill="#7C3A2A" d="M239.138,105c-7.961-1.244-32.59-10.699-33.832-21.396c-1.245-10.697,32.161-86.348,75.857-48.206
		c49.068,11.95-1.973,64.626-15.654,70.597C251.826,111.965,239.138,105,239.138,105z"/>
	<path fill="#723125" d="M283.497,36.021c2.342,6.364,3.642,13.335,3.642,20.652c0,24.388-14.37,44.995-34.107,51.722
		c3.802,0.092,8.085-0.483,12.478-2.4C278.966,100.122,328.563,49.067,283.497,36.021z"/>
	<path fill="#59261C" d="M239.138,105c0,0,12.688,6.965,26.371,0.995c9.233-4.031,32.139-25.215,25.433-45.791
		c-6.123-18.785-40.92-14.304-54.678-6.909c-14.42,7.75-25.098,19.047-30.899,30.628C207.052,94.487,231.257,103.769,239.138,105z"
		/>
	<path fill="#FFCD9C" d="M251.9,105.336c3.748-10.043,67.287-5.411,61.883,2.958C311.719,111.479,255.435,118.432,251.9,105.336z"/>
	<path fill="#F4AD7D" d="M251.9,105.336c2.634,9.764,34.583,8.382,51.53,5.729c0-0.025,0.003-0.049,0.003-0.073
		c0-3.523-1.548-6.834-4.267-9.716C281.543,98.489,254.315,98.866,251.9,105.336z"/>
	<path fill="#EF8F94" d="M287.749,121.153c3.372-0.014,10.378-19.852,3.107-22.309c-7.33-2.475-37.118-2.216-38.605,5.113
		C250.76,111.289,270.922,121.224,287.749,121.153z"/>
	<path fill="#DD727C" d="M284.966,110.539c-13.31,0-24.158-5.059-24.912-11.428c-4.267,1.043-7.35,2.616-7.803,4.847
		c-1.491,7.331,18.671,17.266,35.498,17.196c1.806-0.007,4.652-5.7,5.791-11.363C290.861,110.266,287.983,110.539,284.966,110.539z"
		/>
	<path fill="#FFCD9C" d="M309.744,108.111c-12.451-4.944-13.733-40.362-20.252-53.881
		C289.733,50.367,329.875,116.099,309.744,108.111z"/>
	<path fill="#6D4347" d="M219.223,478.36c0,0-15.936-89.973-15.848-100.849c0.088-10.874,4.173-26.987,4.173-26.987
		s-7.613-88.238-6.589-107.595c1.028-19.357,6.813-20.483,14.025-42.173c0,0,35.946-1.006,53.259,19.432
		c17.313,20.443,39.085,130.337,39.085,130.337l28.53,127.836h-4.771c-13.617-49.877-32.728-73.495-40.18-100.967
		c-3.308-12.217,5.351-18.399,4.086-27.076c-1.958-4.038-6.682-7.727-44.43-86.784l-13.398-2.173l-16.515,89.164
		c0,0,3.906,16.164,4.555,26.265c0.646,10.103-2.404,101.571-2.404,101.571H219.223z"/>
	<g>
		<path fill="#563137" d="M296.193,379.896c-6.206-11.031,3.687-23.438,2.423-32.113c-1.96-4.039-6.684-7.727-44.43-86.785
			l-13.96,0.859l10.338,1.676c37.748,79.058,42.472,82.746,44.43,86.784c1.265,8.677-7.394,14.859-4.086,27.076
			c7.452,27.472,26.563,51.09,40.18,100.967l1.317-0.935C332.405,477.426,317.92,418.521,296.193,379.896z"/>
		<path fill="#563137" d="M210.009,349.478c0,0-1.993-94.349-0.968-113.705c14.728,5.552,46.837,3.621,64.458-7.243
			c-1.732-0.046-58.515-27.773-58.515-27.773c-7.213,21.69-12.998,22.816-14.025,42.173c-1.024,19.357,6.589,107.595,6.589,107.595
			s-4.085,16.113-4.173,26.987c-0.088,10.876,15.848,100.849,15.848,100.849l1.65-0.935
			C233.183,342.718,209.041,365.41,210.009,349.478z"/>
	</g>
	<path fill="#EF8F94" d="M204.938,223.703c-0.008-18.959,26.858-47.568,28.81-57.495c3.022-15.365-21.647-43.63-13.09-56.023
		c8.562-12.391,38.257-13.385,44.298-7.435c6.039,5.947,23.656,32.225,26.676,40.154c-6.542,7.438-34.227,32.228-18.122,85.773
		C273.509,228.677,220.853,245.046,204.938,223.703z"/>
	<path fill="#DD727C" d="M226.002,214.548c5.589-25.184,22.008-42.964,36.674-39.71c2.976,0.661,5.647,2.148,7.974,4.293
		c4.891-20.447,16.948-31.642,20.981-36.227c-22.478,7.408-36.72,13.446-54.345,8.617c-1.69,22.451-33.314,51.179-32.349,72.182
		c4.312,5.781,11.327,8.781,19.252,10.102C223.956,227.754,224.52,221.229,226.002,214.548z"/>
	<path fill="#DD727C" d="M221.354,109.031c1.448,10.139,17.382,54.802,32.59,59.871l-25.589,7.242c0,0,6.862-7.54,5.069-16.657
		C230.527,144.761,211.215,117.238,221.354,109.031z"/>
	<path fill="#D6636B" d="M236.562,161.899c-2.573-13.818-18.82-41.029-15.132-52.391c-0.027-0.164-0.055-0.329-0.076-0.477
		c-10.139,8.207,9.173,35.729,12.07,50.456c0.363,1.845,0.361,3.619,0.143,5.285c-8.722,19.741-29.412,41.88-28.629,58.931
		c0.723,0.968,1.543,1.834,2.409,2.652C221.596,172.762,239.76,179.029,236.562,161.899z"/>
	<path fill="#DD727C" d="M260.886,106.736c-0.4-5.5-6.317-9.958-13.218-9.958c-6.899,0-12.168,4.458-11.769,9.958
		c0.401,5.5,6.317,9.959,13.218,9.959C256.017,116.695,261.285,112.236,260.886,106.736z"/>
	<path fill="#FFCD9C" d="M237.398,103.757l7.463-27.865l10.944,5.971l2.727,25.476C258.979,116.967,236.438,117.169,237.398,103.757
		z"/>
	<path fill="#FFCD9C" d="M227.444,113.706c5.849,8.085-54.604,53.863-54.979,41.797
		C172.331,151.249,217.687,100.213,227.444,113.706z"/>
	<path fill="#F4AD7D" d="M227.444,113.706c-6.201-8.574-26.776,8.911-40.918,23.889c4.76,0.994,8.942,3.642,12.013,7.34
		C214.233,133.612,230.621,118.098,227.444,113.706z"/>
	<path fill="#FFCD9C" d="M177.555,153.802c12.187,5.572,22.894,45.795,30.04,58.312
		C202.766,209.216,157.854,144.803,177.555,153.802z"/>
	<path fill="#C69383" d="M214.595,481.167h12.793c0,0-2.412-5.432-6.517-5.432C217.491,475.735,214.595,481.167,214.595,481.167z"/>
	<path fill="#C69383" d="M329.508,481.167h16.657c0,0-8.69-4.707-12.796-4.707C329.988,476.46,329.508,481.167,329.508,481.167z"/>
	<path fill="#EF8F94" d="M196.489,124.481c-2.42,2.371,5.794,18.348,13.519,18.105c7.724-0.241,27.762-30.658,23.658-36.935
		C229.561,99.373,208.56,112.653,196.489,124.481z"/>
	<g>
		<path fill="#F4AD7D" d="M207.789,212.752c0.449-0.506-0.375-1.404-1.446-2.272c-1.07-0.871-1.982-1.385-2.431-0.882
			c-0.447,0.506,0.055,1.62,1.125,2.489C206.108,212.958,207.34,213.256,207.789,212.752z"/>
		<path fill="#F4AD7D" d="M206.096,213.667c0.45-0.503-0.375-1.401-1.445-2.272c-1.068-0.871-1.979-1.385-2.431-0.88
			c-0.449,0.506,0.055,1.618,1.127,2.489C204.417,213.872,205.65,214.17,206.096,213.667z"/>
		<path fill="#FFCD9C" d="M210.565,209.438c-0.438-0.529-1.97,0.382-3.575,1.572c-1.609,1.192-2.685,2.215-2.244,2.748
			c0.437,0.529,2.101-0.005,3.706-1.2C210.06,211.369,211.006,209.97,210.565,209.438z"/>
		<path fill="#FFCD9C" d="M202.347,200.868c1.598,1.417,6.504,4.919,8.067,7.624c0.604,1.043,0.204,1.823-0.325,2.532
			c-1.701,2.281-6.992,2.593-10.095-8.634L202.347,200.868z"/>
	</g>
	<polygon fill="#8E575F" points="207.352,248.083 215.56,239.152 219.422,243.979 207.834,257.257 	"/>
	<polygon fill="#FFB3BA" points="259.459,143.959 261.611,133.791 270.821,141.565 	"/>
	<polygon fill="#FFB3BA" points="258.894,124.662 254.911,138.603 271.749,135.525 	"/>
	<path opacity="0.5" fill="#BA4A4A" d="M276.877,103.84c0-2.26-1.049-4.407-2.928-6.352c-4.892,0.144-9.912,0.647-13.896,1.623
		c-0.504,0.123-0.988,0.254-1.458,0.393c-0.056,0.017-0.111,0.034-0.166,0.049c-0.24,0.075-0.479,0.146-0.707,0.221l-1.104-10.304
		c-4.415-0.923-9.326-1.443-14.504-1.443c-0.17,0-0.337,0.004-0.505,0.005l-3.311,12.362c-0.036,0.038-0.065,0.078-0.1,0.113
		c-3.874,0.845-7.603,2.117-10.761,3.863c-4.137,0.931-9.661,3.786-15.264,7.501c6.05,4.655,17.19,7.78,29.941,7.78
		C261.313,119.652,276.877,112.573,276.877,103.84z"/>
	<path fill="#FFCD9C" d="M262.968,102.391c-13.531-3.626-24-24.554-18.546-38.259c8.446-21.222,23.963-19.53,36.562-14.49
		c10.865,4.345,3.926,26.313,2.656,27.763C279.139,82.516,281.163,90.169,262.968,102.391z"/>
	<defs>
		<filter id="Adobe_OpacityMaskFilter" filterUnits="userSpaceOnUse" x="242.964" y="46.413" width="44.027" height="55.978">
			<feFlood  style="flood-color:white;flood-opacity:1" result="back"/>
			<feBlend  in="SourceGraphic" in2="back" mode="normal"/>
		</filter>
	</defs>
	<mask maskUnits="userSpaceOnUse" x="242.964" y="46.413" width="44.027" height="55.978" id="SVGID_1_">
		<g filter="url(#Adobe_OpacityMaskFilter)">
			<defs>
				<filter id="Adobe_OpacityMaskFilter_1_" filterUnits="userSpaceOnUse" x="242.964" y="46.413" width="44.027" height="55.978">
					<feFlood  style="flood-color:white;flood-opacity:1" result="back"/>
					<feBlend  in="SourceGraphic" in2="back" mode="normal"/>
				</filter>
			</defs>
			<mask maskUnits="userSpaceOnUse" x="242.964" y="46.413" width="44.027" height="55.978" id="SVGID_1_">
				<g filter="url(#Adobe_OpacityMaskFilter_1_)">
				</g>
			</mask>
			<linearGradient id="SVGID_2_" gradientUnits="userSpaceOnUse" x1="281.9531" y1="22.1025" x2="255.3042" y2="94.8034">
				<stop  offset="0.2097" style="stop-color:#FFFFFF"/>
				<stop  offset="1" style="stop-color:#000000"/>
			</linearGradient>
			<path mask="url(#SVGID_1_)" fill="url(#SVGID_2_)" d="M263.148,102.391c-13.531-3.626-24.181-24.554-18.727-38.259
				c8.446-21.222,23.963-19.53,36.562-14.49c10.865,4.345,3.926,26.313,2.656,27.763C279.139,82.516,279.716,90.713,263.148,102.391
				z"/>
		</g>
	</mask>
	<linearGradient id="SVGID_3_" gradientUnits="userSpaceOnUse" x1="281.9531" y1="22.1025" x2="255.3042" y2="94.8034">
		<stop  offset="0.2097" style="stop-color:#FF430C"/>
		<stop  offset="1" style="stop-color:#FFCC92"/>
	</linearGradient>
	<path opacity="0.6" fill="url(#SVGID_3_)" d="M263.148,102.391c-13.531-3.626-24.181-24.554-18.727-38.259
		c8.446-21.222,23.963-19.53,36.562-14.49c10.865,4.345,3.926,26.313,2.656,27.763C279.139,82.516,279.716,90.713,263.148,102.391z"
		/>
	<path fill="#7C3A2A" d="M243.806,101.062c1.448-7.242,11.043-52.264,40.979-60.956c0,0-15.704-24.863-38.807-16.778
		c-14.485,5.071-42.391,44.967-40.799,60.354C206.589,97.301,243.806,101.062,243.806,101.062z"/>
	<path fill="#723125" d="M250.158,69.472c-16.003,4.366-31.303,4.17-41.859,0.313c-2.262,5.452-3.487,10.334-3.12,13.896
		c1.409,13.619,38.626,17.38,38.626,17.38c0.782-3.911,3.949-18.842,11.407-33.119C253.564,68.492,251.879,69.002,250.158,69.472z"
		/>
	<path fill="#FFCD9C" d="M246.871,62.593c-1.942-0.573-4.244,0.685-5.332,3.029c-0.72,1.553,0.065,3.868,1.248,5.646
		C243.115,68.082,244.563,64.26,246.871,62.593z"/>
	<g>
		<path fill="#FFCD9C" d="M295.377,61.924c-3.531-6.699-5.354-12.295-7.688-10.691c-1.541,1.062-4.55,3.027-1.457,6.798
			c1.102,1.343,5.252,2.806,7.153,8.329L295.377,61.924z"/>
		<path fill="#FFCD9C" d="M289.306,59.903c3.852-2.242,1.047-7.948-0.175-9.547c-1.344-1.751-4.744-1.018-5.396,0.525
			C283.079,52.434,287.835,60.765,289.306,59.903z"/>
		<path fill="#FFCD9C" d="M285.339,54.999c-2.589-0.861-5.794-0.43-5.728,0.739c0.082,1.327,2.73,0.348,4.94,1.765
			c2.397,1.522,3.961,2.343,4.438,1.348C289.467,57.859,287.931,55.857,285.339,54.999z"/>
		<path fill="#FFCD9C" d="M283.332,49.634c-1.581-2.037-2.773-2.719-3.154-2.223c-0.388,0.502,0.571,1.606,2.146,3.647
			c1.574,2.039,3.176,5.04,3.554,4.539C286.265,55.098,284.899,51.679,283.332,49.634z"/>
		<path fill="#FFCD9C" d="M285.431,47.945c-1.238-2.376-3.178-3.881-3.639-3.499c-0.455,0.385,1.111,2.297,2.356,4.676
			c1.24,2.376,2.148,3.844,2.613,3.464C287.221,52.194,286.681,50.324,285.431,47.945z"/>
		<path fill="#FFCD9C" d="M288.26,48.524c-1.322-2.323-2.488-3.316-2.932-2.918c-0.454,0.402,0.654,1.766,1.971,4.092
			c1.325,2.325,2.275,3.925,2.724,3.524C290.469,52.823,289.576,50.85,288.26,48.524z"/>
	</g>
	<path fill="#D6636B" d="M236.261,162.683c1.449,3.622,10.502,9.597,17.744,13.218c0,0-17.201-5.794-18.83-10.14
		C233.545,161.417,236.261,162.683,236.261,162.683z"/>
	<polygon fill="#993C52" points="209.283,228.046 210.731,222.495 213.628,224.184 212.421,230.461 	"/>
	<path fill="#7C3A2A" d="M274.284,67.083c-2.553,1.54-8.396,4.197-13.252-1.188C265.05,68.557,267.985,69.192,274.284,67.083z"/>
	<path fill="#7C3A2A" d="M283.32,76.39c-2.511-1.104-6.243-3.246-5.254-7.54C278.116,71.657,278.852,73.354,283.32,76.39z"/>
	<path fill="#5B371E" d="M262.305,71.196c1.726,1.847,4.1,3.643,8.046,2.057C266.867,73.266,264.739,72.364,262.305,71.196z"/>
	<path fill="#5B371E" d="M275.206,73.905c0.35,2.498,1.257,5.321,5.397,6.286C277.746,78.207,276.527,76.253,275.206,73.905z"/>
	<g>
		<path fill="#F4AD7D" d="M266.859,92.809c0.546-0.688-0.319-1.153-1.374-1.839c-1.051-0.685-1.888-1.327-2.437-0.639
			c-0.541,0.688-0.129,1.799,0.921,2.483C265.021,93.499,266.317,93.495,266.859,92.809z"/>
		<path fill="#F4AD7D" d="M268.016,92.841c0.959-3.692-1.32-3.098-1.797-3.327c-0.609-0.284-1.191-1.817-3.917,0.509
			c-1.047,0.884,1.124,0.39,2.932,1.239C267.043,92.11,267.69,94.092,268.016,92.841z"/>
		<g>
			<path fill="#D37F59" d="M261.573,90.269c2.083-0.699,3.845,0.06,6.546,3.006l-0.303,0.224c-0.834-1.115-3.529-3.242-6.166-2.973
				C261.205,90.625,261.126,90.426,261.573,90.269z"/>
			<path fill="#D37F59" d="M261.867,90.597c0.16-0.214,0.164-0.487,0.018-0.603c-0.137-0.113-0.376-0.033-0.535,0.169
				c-0.161,0.205-0.176,0.485-0.037,0.604C261.45,90.896,261.698,90.821,261.867,90.597z"/>
		</g>
	</g>
	<path fill="#5B371E" d="M263.809,71.983c1.384,0.693,3.409,1.852,5.209,1.61c0,0-1.878,3.002-4.383,2.286
		C262.129,75.16,263.809,71.983,263.809,71.983z"/>
	<path fill="#5B371E" d="M279.391,79.531c-1.12-0.87-2.925-2.081-3.107-3.645c0,0-2.868,2.692-1.438,4.459
		C276.273,82.122,279.391,79.531,279.391,79.531z"/>
	<path fill="#F4AD7D" d="M268.084,85.825c0.726,1.088,3.537,0.21,3.215-0.924c-0.322-1.136-1.979-3.191-1.483-4.269
		C270.306,79.554,266.604,83.603,268.084,85.825z"/>
	<path fill="#8C4234" d="M260.896,24.089c-3.686-4.67-13.548-3.032-22.027,3.659c-8.48,6.692-13.537,20.36-9.85,25.033
		c3.686,4.67,14.718-1.425,23.198-8.116C260.696,37.972,264.583,28.758,260.896,24.089z"/>
	<path fill="#7C3A2A" d="M235.717,60.567c3.002-8.538-8.871-7.605,5.794-32.411c0,0-15.46,8.582-24.437,26.036L235.717,60.567z"/>
	<path fill="#7C3A2A" d="M252.829,32.195c-5.58,8.466-14.522,17.941-25.797,26.891c0,0,19.14-5.133,33.638-21.673L252.829,32.195z"
		/>
</g>
</svg>
