<?xml version="1.0" encoding="utf-8"?>
<!-- Generator: Adobe Illustrator 15.1.0, SVG Export Plug-In . SVG Version: 6.00 Build 0)  -->
<!DOCTYPE svg PUBLIC "-//W3C//DTD SVG 1.1//EN" "http://www.w3.org/Graphics/SVG/1.1/DTD/svg11.dtd">
<svg version="1.1" id="Layer_1" xmlns="http://www.w3.org/2000/svg" xmlns:xlink="http://www.w3.org/1999/xlink" x="0px" y="0px"
	 width="512px" height="368px" viewBox="0 78.5 512 368" enable-background="new 0 78.5 512 368" xml:space="preserve">
<path fill="#FF637B" d="M255.12,429.126l167.065-156.188c27.5-25.711,38.672-64.442,29.084-100.85
	c-19.316-73.379-108.954-100.977-166.201-51.172l-29.948,26.055l-28.437-25.024c-56.959-50.129-146.761-22.761-166.08,50.617
	c-9.516,36.14,1.488,74.589,28.68,100.225L255.12,429.126z"/>
<path fill="#76E2F8" d="M256,333.293c-7.258-0.002-13.893-4.104-17.136-10.594l-42.732-85.459l-20.014,30.018
	c-3.556,5.334-9.542,8.535-15.952,8.535H26v-38.333h123.91l32.643-48.966c5.873-8.807,17.772-11.186,26.581-5.313
	c2.772,1.851,5.019,4.392,6.507,7.374l37.856,75.688l42.058-112.179c3.718-9.911,14.768-14.932,24.679-11.214
	c5.045,1.893,9.062,5.822,11.063,10.826l33.514,83.785H486v38.333H351.833c-7.838,0-14.885-4.773-17.795-12.05l-19.963-49.899
	l-40.13,107.012c-2.677,7.138-9.331,12.012-16.941,12.412C256.664,333.293,256.332,333.293,256,333.293L256,333.293z"/>
</svg>
