<?xml version="1.0" encoding="utf-8"?>
<!-- Generator: Adobe Illustrator 15.1.0, SVG Export Plug-In . SVG Version: 6.00 Build 0)  -->
<!DOCTYPE svg PUBLIC "-//W3C//DTD SVG 1.1//EN" "http://www.w3.org/Graphics/SVG/1.1/DTD/svg11.dtd">
<svg version="1.1" id="Layer_1" xmlns="http://www.w3.org/2000/svg" xmlns:xlink="http://www.w3.org/1999/xlink" x="0px" y="0px"
	 width="512px" height="368px" viewBox="0 78.5 512 368" enable-background="new 0 78.5 512 368" xml:space="preserve">
<g>
	<path fill="#FF8086" d="M402.668,406.44c-7.246-48.53-28.945-157.059-83.829-217.356c-5.597-6.148-13.653-9.474-21.967-9.474
		c-7.421,0-14.216,2.679-19.471,7.122l-6.532,23.05V394.1c0,17.729,14.371,32.1,32.1,32.1h78.543l18.523-5.84
		C402.37,416.323,403.421,411.48,402.668,406.44L402.668,406.44z"/>
	<path fill="#FF8086" d="M215.128,179.61c-3.327,0-6.614,0.533-9.718,1.566c0,0-6.465,4.22-9.823,7.908
		c-54.883,60.297-76.583,168.826-83.829,217.356c-1.935,12.96,5.626,19.436,18.729,19.436h86.317l20.326-5.517
		c5.082-5.68,8.169-13.181,8.169-21.399V209.783C245.3,193.119,231.792,179.61,215.128,179.61L215.128,179.61z"/>
	<path fill="#E5646E" d="M145.202,420.359c-13.104,0-23.092-11.658-21.158-24.618c7.135-47.784,28.33-153.759,81.367-214.565
		c-4.631,1.551-8.905,4.233-12.25,7.908c-54.884,60.297-76.583,168.826-83.829,217.356c-1.936,12.96,8.053,24.618,21.156,24.618
		H213.2c9.495,0,18.053-4.146,23.931-10.699H145.202z"/>
	<path fill="#DB4655" d="M202.5,249.16c-1.369,0-2.737-0.522-3.783-1.567c-2.09-2.09-2.09-5.476,0-7.565l9.472-9.472
		c2.09-2.089,5.475-2.089,7.565,0c2.089,2.09,2.089,5.476,0,7.565l-9.472,9.472C205.237,248.637,203.869,249.16,202.5,249.16z"/>
	<path fill="#DB4655" d="M198.482,349.473c-2.351,0-4.509-1.563-5.157-3.945c-0.778-2.847,0.903-5.788,3.757-6.567l14.712-4.013
		c2.827-0.778,5.789,0.899,6.567,3.757c0.78,2.847-0.903,5.788-3.755,6.567l-14.713,4.013
		C199.423,349.414,198.953,349.473,198.482,349.473L198.482,349.473z"/>
	<circle fill="#DB4655" cx="207.85" cy="377.559" r="10.7"/>
	<path fill="#DB4655" d="M154.351,382.909c-1.369,0-2.738-0.522-3.783-1.567l-5.35-5.35c-2.09-2.09-2.09-5.476,0-7.565
		s5.476-2.09,7.565,0l5.351,5.351c2.089,2.09,2.089,5.476,0,7.564C157.089,382.387,155.72,382.909,154.351,382.909L154.351,382.909z
		"/>
	<path fill="#E5646E" d="M219.219,217.06c-1.369,0-2.738-0.521-3.783-1.567l-5.35-5.35c-2.09-2.09-2.09-5.476,0-7.565
		c2.09-2.09,5.476-2.09,7.565,0l5.35,5.35c2.09,2.09,2.09,5.476,0,7.565C221.957,216.538,220.588,217.06,219.219,217.06z"/>
	<path fill="#E5646E" d="M177.088,381.906c-2.957,0-5.375-2.394-5.375-5.35c0-2.957,2.366-5.351,5.323-5.351h0.053
		c2.957,0,5.35,2.394,5.35,5.351C182.439,379.513,180.045,381.906,177.088,381.906L177.088,381.906z"/>
	<path fill="#E5646E" d="M181.1,261.866c-2.957,0-5.375-2.394-5.375-5.35c0-2.957,2.367-5.35,5.324-5.35h0.053
		c2.957,0,5.35,2.393,5.35,5.35C186.451,259.473,184.058,261.866,181.1,261.866L181.1,261.866z"/>
	<path fill="#E5646E" d="M222.896,320.382c-2.957,0-5.375-2.394-5.375-5.351s2.366-5.35,5.324-5.35h0.052
		c2.958,0,5.35,2.393,5.35,5.35S225.854,320.382,222.896,320.382L222.896,320.382z"/>
	<path fill="#E5646E" d="M154.402,316.035c-2.958,0-5.376-2.394-5.376-5.35c0-2.957,2.367-5.351,5.325-5.351h0.052
		c2.958,0,5.35,2.394,5.35,5.351C159.753,313.642,157.36,316.035,154.402,316.035z"/>
	<path fill="#E5646E" d="M138.301,409.659c-2.958,0-5.376-2.393-5.376-5.35s2.366-5.35,5.324-5.35h0.053
		c2.957,0,5.35,2.393,5.35,5.35S141.257,409.659,138.301,409.659z"/>
	<path fill="#E5646E" d="M165.051,409.659c-1.369,0-2.738-0.521-3.783-1.567c-2.09-2.09-2.09-5.476,0-7.564l5.35-5.35
		c2.09-2.091,5.476-2.091,7.565,0c2.09,2.09,2.09,5.476,0,7.564l-5.35,5.35C167.788,409.137,166.42,409.659,165.051,409.659z"/>
	<path fill="#DB4655" d="M304.15,243.81c-1.369,0-2.738-0.522-3.783-1.567c-2.09-2.09-2.09-5.476,0-7.565l5.35-5.35
		c2.09-2.09,5.476-2.09,7.565,0c2.09,2.089,2.09,5.475,0,7.564l-5.35,5.35C306.887,243.288,305.519,243.81,304.15,243.81z"/>
	<path fill="#DB4655" d="M309.495,356.159c-0.805,0-1.62-0.183-2.388-0.564l-10.7-5.35c-2.644-1.321-3.714-4.535-2.393-7.179
		c1.327-2.645,4.529-3.704,7.179-2.393l10.7,5.35c2.643,1.321,3.714,4.535,2.393,7.179
		C313.345,355.078,311.459,356.159,309.495,356.159z"/>
	<circle fill="#DB4655" cx="304.15" cy="393.609" r="10.7"/>
	<path fill="#DB4655" d="M357.649,382.909c-1.369,0-2.738-0.522-3.782-1.567c-2.091-2.09-2.091-5.476,0-7.564l5.35-5.351
		c2.09-2.09,5.476-2.09,7.564,0c2.09,2.09,2.09,5.477,0,7.565l-5.35,5.35C360.387,382.387,359.018,382.909,357.649,382.909z"/>
	<g>
		<path fill="#E5646E" d="M298.8,217.06c-1.369,0-2.738-0.521-3.783-1.567l-5.35-5.35c-2.09-2.09-2.09-5.476,0-7.565
			c2.09-2.09,5.476-2.09,7.565,0l5.35,5.35c2.09,2.09,2.09,5.476,0,7.565C301.537,216.538,300.168,217.06,298.8,217.06L298.8,217.06
			z"/>
		<path fill="#E5646E" d="M325.602,372.209h-0.053c-2.957,0-5.35-2.394-5.35-5.35c0-2.957,2.393-5.351,5.35-5.351
			s5.376,2.394,5.376,5.351C330.925,369.815,328.559,372.209,325.602,372.209z"/>
		<path fill="#E5646E" d="M330.951,261.866h-0.052c-2.957,0-5.35-2.394-5.35-5.35c0-2.957,2.393-5.35,5.35-5.35
			s5.376,2.393,5.376,5.35C336.275,259.473,333.909,261.866,330.951,261.866z"/>
		<path fill="#E5646E" d="M288.1,329.409h-0.053c-2.957,0-5.35-2.393-5.35-5.35c0-2.956,2.393-5.35,5.35-5.35
			s5.376,2.394,5.376,5.35C293.423,327.017,291.057,329.409,288.1,329.409z"/>
		<path fill="#E5646E" d="M357.649,316.035h-0.053c-2.957,0-5.35-2.394-5.35-5.35c0-2.957,2.393-5.351,5.35-5.351
			s5.376,2.394,5.376,5.351C362.973,313.642,360.606,316.035,357.649,316.035z"/>
		<path fill="#E5646E" d="M377.095,409.659h-0.052c-2.957,0-5.351-2.393-5.351-5.35s2.394-5.35,5.351-5.35s5.375,2.393,5.375,5.35
			S380.053,409.659,377.095,409.659z"/>
		<path fill="#E5646E" d="M346.949,409.659c-1.369,0-2.737-0.521-3.783-1.567l-5.35-5.35c-2.09-2.09-2.09-5.476,0-7.564
			c2.09-2.091,5.476-2.091,7.565,0l5.35,5.35c2.09,2.09,2.09,5.476,0,7.564C349.688,409.137,348.318,409.659,346.949,409.659z"/>
		<path fill="#E5646E" d="M298.8,420.359c-11.819,0-21.4-9.581-21.4-21.399V274.991l51.476,51.476
			c2.621,2.62,3.946,6.542,2.666,10.021c-0.414,1.127-0.643,2.346-0.643,3.622c0,6.661,6.088,11.901,13.004,10.46
			c3.897-0.813,7.151-3.941,8.08-7.813c1.084-4.525-0.707-8.729-3.915-11.166c-2.893-2.196-5.195-5.069-6.239-8.548l-10.93-36.432
			l-5.809,5.81l-45.854-45.855c-0.637-0.637-1.244-1.298-1.836-1.97v-57.86c-6.538,5.535-10.7,13.812-10.7,23.048v2.304
			c0-5.91-4.79-10.7-10.699-10.7c-5.91,0-10.7,4.79-10.7,10.7v4.215c0,11.351-4.51,22.237-12.536,30.264l-45.854,45.855l-5.811-5.81
			l-10.93,36.432c-1.044,3.479-3.346,6.353-6.238,8.548c-3.208,2.437-4.999,6.641-3.914,11.166c0.928,3.871,4.182,7.001,8.08,7.813
			c6.916,1.441,13.003-3.799,13.003-10.46c0-1.275-0.228-2.494-0.642-3.622c-1.279-3.479,0.045-7.4,2.666-10.021l57.744-57.744
			c4.179-4.179,9.655-6.268,15.132-6.268c3.7,0,7.399,0.957,10.699,2.865v133.64c0,17.729,14.372,32.099,32.101,32.099h82.711
			c7.997,0,14.848-4.369,18.522-10.699H298.8z"/>
	</g>
	<circle fill="#DB4655" cx="181.1" cy="286.61" r="10.7"/>
	<path fill="#DB4655" d="M261.35,99.361H250.65c-2.955,0-5.35,2.396-5.35,5.35V217.06c0-5.909,4.791-10.699,10.7-10.699
		s10.699,4.79,10.699,10.699V104.711C266.699,101.756,264.305,99.361,261.35,99.361z"/>
	<g>
		<circle fill="#DB4655" cx="330.899" cy="286.61" r="10.7"/>
	</g>
</g>
</svg>
