<?xml version="1.0" encoding="utf-8"?>
<!-- Generator: Adobe Illustrator 15.1.0, SVG Export Plug-In . SVG Version: 6.00 Build 0)  -->
<!DOCTYPE svg PUBLIC "-//W3C//DTD SVG 1.1//EN" "http://www.w3.org/Graphics/SVG/1.1/DTD/svg11.dtd">
<svg version="1.1" id="Layer_35" xmlns="http://www.w3.org/2000/svg" xmlns:xlink="http://www.w3.org/1999/xlink" x="0px" y="0px"
	 width="512px" height="512px" viewBox="0 0 512 512" enable-background="new 0 0 512 512" xml:space="preserve">
<g>
	<path fill="#915329" d="M335.726,190.576c11.266-7.637,59.565-30.758,71.117-80.665c0,0,11.166,59.885-76.387,97.265
		L335.726,190.576z"/>
	<path fill="#915329" d="M338.59,182.455c9.787-9.464,53.433-40.48,56.291-91.631c0,0,21.232,57.11-58.652,108.881L338.59,182.455z"
		/>
	<path fill="#915329" d="M380.894,90.056c-16.51-42.689-126.835-51.282-186.295-38.022c-119.466,26.623-63.629,86.471-63.629,86.471
		c-31.933,26.011-34.562,64.76-23.675,104.572c17.424,63.691,77.797,114.532,94.524,133.907L318.233,212.38
		C341.983,205.194,397.553,133.036,380.894,90.056z"/>
	<path fill="#7C3F21" d="M291.707,119.394c-68.649-11.527-134.087,14.13-172.823-20.117c-4.978,20.888,12.086,39.228,12.086,39.228
		c-31.933,26.011-34.562,64.76-23.675,104.572c17.424,63.691,77.797,114.532,94.524,133.907L318.233,212.38
		c9.588-2.902,24.346-16.488,37.47-34.384C333.072,178.201,315.879,123.455,291.707,119.394z"/>
	<path fill="#FFC397" d="M342.859,154.449c10.215,13.738,50.717,95.27,28.422,110.046c-14.553,9.65,3.374,59.224-5.636,88.627
		c-11.807,38.538-33.983,96.947-53.215,113.19c-102.478-26.651-120.939-125.997-109.388-159.756
		c11.558-33.754-36.102-115.968-9.712-149.405C235.044,104.288,306.328,105.416,342.859,154.449z"/>
	<path fill="#F7A27C" d="M383.436,251.073c-27.583-1.361-41.527-21.835-47.723,23.644c-5.17,37.892-40.253,108.394,11.21,130.502
		c13.08-28.037,27.073-60.722,20.039-130.85C365.732,262.215,381.533,259.691,383.436,251.073z"/>
	<path fill="#543C32" d="M359.282,289.27c2.013-9.146-0.571-17.212-5.798-18.008c-5.213-0.776-11.091,6.009-13.136,15.174
		c-2.032,9.141,0.578,17.194,5.798,17.958C351.385,305.177,357.25,298.397,359.282,289.27z"/>
	<path fill="#FFC397" d="M336.012,251.837c-3.499,37.451,20.549,125.68,14.721,130.968c-5.823,5.288-52.836-13.975-52.836-13.975
		S337.534,235.508,336.012,251.837z"/>
	<path fill="#915329" d="M354.907,250.073c-5.368-0.771-5.331-14.962,2.834-16.417c8.171-1.467,29.702,7.519,30.702,10.886
		c0.621,2.088,2.79,10.514-5.512,13.422C377.961,259.711,373.804,252.776,354.907,250.073z"/>
	<path fill="#F7A27C" d="M282.399,299.199c10.725,7.121,46.485-41.31,43.44-51.301c-3.045-9.979-35.829-2.398-41.315,3.741
		C279.044,257.778,270.811,291.481,282.399,299.199z"/>
	<path fill="#915329" d="M318.706,247.768c7.923-0.118,16.131-16.6,5.636-19.499c-10.501-2.871-45.64,4.462-48.989,8.246
		c-2.101,2.355-10.011,11.818-0.174,16.386C281.069,255.659,290.881,248.184,318.706,247.768z"/>
	<g>
		<path fill="#C46951" d="M271.053,367.438l4.219-0.397c0.97,28.944,40.123,40.986,69.682,37.221l0.013,2.044
			C321.862,410.215,272.438,408.493,271.053,367.438z"/>
	</g>
	<path fill="#EF8F6F" d="M288.644,409.419c0,0,14.087,8.687,35.313,7.239C307.478,425.14,296.566,421.449,288.644,409.419z"/>
	<path fill="#C46951" d="M258.396,368.781c0,0,11.905,2.001,25.638-4.835C275.502,374.255,267.163,374.759,258.396,368.781z"/>
	<path fill="#543C32" d="M291.794,281.962c2.02-9.146-0.565-17.212-5.785-17.995c-5.219-0.783-11.109,6.003-13.147,15.162
		c-2.02,9.146,0.577,17.199,5.803,17.964C283.896,297.869,289.769,291.097,291.794,281.962z"/>
	<path fill="#F7A27C" d="M226.6,311.794c-0.286-31.796-24.52-129.128-13.559-173.998c-7.047,5.388-13.708,11.738-19.71,19.356
		c-26.39,33.437,21.27,115.651,9.712,149.405c-11.552,33.759,6.91,133.104,109.388,159.756c0.664-0.565,1.336-1.293,2.007-1.951
		C230.968,430.359,226.984,353.558,226.6,311.794z"/>
	<path fill="#7C3F21" d="M209.68,335.786l18.858-0.373c0,0,4.536-197.458-39.681-195.16c-44.218,2.318-15.908,89.37-15.908,89.37
		L209.68,335.786z"/>
	<path fill="#FFC397" d="M215.645,340.16c1.312-14.08-16.646-50.033-30.192-61.02c-15.063-12.203-30.373-10.569-37.693,1.218
		c-8.817,14.155,15.646,48.983,36.214,58.273C195.63,343.901,214.085,356.527,215.645,340.16z"/>
	<path fill="#EF8F6F" d="M203.298,330.138c0.795-8.525-10.098-30.317-18.318-36.973c-9.128-7.4-18.424-6.394-22.86,0.746
		c-5.356,8.594,9.488,29.684,21.966,35.319C191.162,332.418,202.354,340.067,203.298,330.138z"/>
	<path fill="#FFC397" d="M208.803,337.861c1.088-5.27-3.933-17.647-8.432-21.003c-5.008-3.74-10.706-2.361-13.9,2.367
		c-3.865,5.698,3.604,17.318,10.769,19.698C201.284,340.272,207.517,343.988,208.803,337.861z"/>
	<path fill="#915329" d="M199.085,140.505c-8.345,7.603-9.719,27.313-8.911,37.736c0,0-38.115-33.421-71.924-15.941
		C118.25,162.3,137.071,126.878,199.085,140.505z"/>
</g>
</svg>
