<?xml version="1.0" encoding="utf-8"?>
<!-- Generator: Adobe Illustrator 15.1.0, SVG Export Plug-In . SVG Version: 6.00 Build 0)  -->
<!DOCTYPE svg PUBLIC "-//W3C//DTD SVG 1.1//EN" "http://www.w3.org/Graphics/SVG/1.1/DTD/svg11.dtd">
<svg version="1.1" id="Layer_35" xmlns="http://www.w3.org/2000/svg" xmlns:xlink="http://www.w3.org/1999/xlink" x="0px" y="0px"
	 width="194.667px" height="512px" viewBox="0 0 194.667 512" enable-background="new 0 0 194.667 512" xml:space="preserve">
<g>
	<path fill="#684447" d="M153.87,75.426c-1.029-17.593-42.38-47.772-67.549-22.601c-41.745,41.746,8.137,79.011,15.537,108.515
		C103.429,160.38,155.208,98.389,153.87,75.426z"/>
	<path fill="#825258" d="M100.989,54.816c8.144-5.47,16.415-7.082,24.202-6.125c-12.34-5.351-26.917-5.839-38.089,5.332
		c-15.3,15.301-17.439,29.957-13.971,43.785C74.348,82.668,81.546,67.876,100.989,54.816z"/>
	<path fill="#563438" d="M144.692,83.833c-3.639-12.851-10.379-17.557-23.41-17.557c-22.371,0-38.129,19.685-36.287,45.183
		c1.556,21.523,12.818,33.758,16.863,49.88C103.343,160.431,151.715,108.629,144.692,83.833z"/>
	<path fill="#563438" d="M85.698,120.706c-0.879-2.985-6.321-24.054,3.335-42.667C78.836,92.098,75.999,105.224,85.698,120.706z"/>
	<path fill="#FFBE55" d="M147.097,179.554c8.281-1.293-18.206-61.366-28.224-61.943
		C107.397,117.159,130.227,182.179,147.097,179.554z"/>
	<path fill="#F9A34E" d="M117.452,130.14c3.099,22.785,17.987,50.746,29.401,49.438C141.797,175.785,133.899,132.251,117.452,130.14
		z"/>
	<path fill="#61B4D6" d="M50.299,479.951c6.307-56.683,15.138-93.506,19.478-99.684c4.337-6.177,16.782-17.041,16.782-22.443
		c0-5.406-42.543-81.904-31.533-125.917c11.011-44.017,69.021-36.654,76.93-3.764c15.905,66.142-14.406,115.145-13.699,129.008
		c0.365,7.207,10.732,13.319,15.282,23.116c4.741,10.214,4.214,37.629,22.129,99.684H151.5c0,0-41.102-96.477-42.204-121.188
		c-1.1-24.706-3.229-90.805-7.901-93.532c-6.604-3.861-11.289-3.189-12.121,1.613c-1.465,8.495,10.061,86.756,8.958,91.385
		c-1.101,4.633-42.153,107.821-42.153,121.722C48.491,479.951,50.299,479.951,50.299,479.951z"/>
	<g>
		<path fill="#4DA2BC" d="M94.593,367.337c4.523-6.041-6.151-6.028-6.151-11.433c0-5.402-33.164-66.015-27.874-109.185
			c22.669,19.796,75.468-0.36,72.999-8.274c2.116-22.306-69.576-24.191-67.062-26.948c-5.181,4.899-9.278,11.612-11.479,20.409
			c-11.01,44.013,31.533,120.511,31.533,125.917c0,5.402-12.445,16.267-16.782,22.443c-4.34,6.178-13.171,43.001-19.478,99.684
			c0.443,0,1.842,0,5.779,0C56.079,479.435,55.499,419.542,94.593,367.337z"/>
		<path fill="#4DA2BC" d="M153.382,478.032c0,0-25.807-92.522-39.357-116.548c-5.149-9.129-2.818-94.66-7.491-97.387
			c-5.719-3.343-13.252-4.066-14.834-0.871c2.152-1.054,5.545-0.421,9.695,2.005c4.672,2.728,6.802,68.826,7.901,93.532
			c1.103,24.711,42.204,121.188,42.204,121.188h4.167c-0.187-0.651-0.363-1.274-0.545-1.919H153.382z"/>
	</g>
	<path fill="#FFBE55" d="M53.5,180.245c6.56,2.045,46.833-60.118,39.561-63.211C84.008,113.181,39.66,175.927,53.5,180.245z"/>
	<path fill="#F9A34E" d="M91.714,122.233c-8.284-0.192-34.209,54.985-39.946,53.195c-0.375-0.116-0.7-0.291-0.994-0.499
		c-0.051,2.8,0.771,4.705,2.727,5.315C60.06,182.29,97.946,127.095,91.714,122.233z"/>
	<path fill="#FFBE55" d="M52.917,236.388c11.591,18.417,49.398,20.578,82.2,1.727c-1.581-14.823-17.311-35.525-16.127-53.659
		c0.929-14.18,15.283-17.466,15.283-17.466s-5.762-52.654-27.154-54.452c-18.456-1.927-24.334,20.868-33.501,44.434
		c6.849,12.087,7.81,22.671,6.171,31.063C75.891,208.001,59.224,208.42,52.917,236.388z"/>
	<path fill="#EF8A3F" d="M109.338,227.021c-0.318,0.104-0.692,0.328-1.102,0.648c-0.96,0.133-2.383,0.765-4.203,1.661
		c-2.822,1.408-5.874,0.09-6.135,1.571c-0.216,1.239,3.188,1.972,6.278,1.4c-0.037,0.054-0.077,0.108-0.113,0.164
		c-0.945,1.017-2.246,2.643-3.499,3.909c-2.142,2.154-3.428,3.314-3.026,3.906c0.396,0.59,1.91-0.078,4.057-2.23
		c0.292-0.296,0.583-0.625,0.865-0.968c0.17,0.258,0.391,0.5,0.683,0.709c-0.204,0.284-0.416,0.583-0.636,0.897
		c-1.788,2.566-3.901,4.58-3.401,5.049c0.503,0.467,3.013-1.06,4.795-3.621c0.387-0.552,0.72-1.074,1.016-1.567
		c0.382,0.083,0.772,0.118,1.163,0.115c-1.734,2.269-3.063,3.598-2.597,4.063c0.484,0.484,2.004-0.534,3.878-3.029
		c0.691-0.925,1.305-1.798,1.78-2.559c0.62-0.751,1.366-1.852,1.94-3.092c0.989-1.324,2.023-2.918,3.061-4.363
		c4.383-3.809,8.998-8.625,13.35-13.76c-1.438-3.289-2.889-6.648-4.18-10.028c-3.91,6.612-7.982,13.584-12.042,19.828
		C110.549,226.146,109.902,226.58,109.338,227.021z"/>
	<path fill="#EF8A3F" d="M69.796,234.391c0.176,1.35,0.568,2.617,0.948,3.515c0.232,0.865,0.569,1.879,0.966,2.966
		c1.076,2.92,2.277,4.331,2.926,4c0.618-0.315-0.29-1.967-1.302-4.634c0.395,0.114,0.802,0.191,1.214,0.219
		c0.137,0.556,0.302,1.15,0.512,1.787c0.968,2.971,2.995,5.139,3.659,4.834c0.654-0.314-0.82-2.84-1.789-5.81
		c-0.119-0.366-0.234-0.712-0.348-1.041c0.36-0.119,0.662-0.288,0.916-0.49c0.174,0.41,0.361,0.806,0.561,1.174
		c1.459,2.675,2.771,3.743,3.361,3.285c0.595-0.454-0.32-1.93-1.779-4.604c-0.854-1.567-1.637-3.497-2.258-4.739
		c-0.02-0.063-0.043-0.128-0.062-0.191c2.929,1.423,6.598,1.678,6.782,0.429c0.223-1.496-3.285-1.093-5.676-3.238
		c-1.541-1.378-2.771-2.386-3.693-2.782c-0.311-0.426-0.615-0.748-0.903-0.938c-0.869-1.193-2.054-2.445-3.654-3.738
		c-1.296-4.505-2.578-9.324-3.852-14.132c-1.654,1.885-3.319,3.897-4.919,6.19c2.07,4.203,4.232,8.242,6.348,11.848
		C68.483,230.233,69.111,232.511,69.796,234.391z"/>
	<path fill="#F78B41" d="M121.555,131.226c0.422-9.572-6.938-17.701-16.441-18.151c-9.504-0.452-17.555,6.942-17.977,16.515
		c-0.427,9.573-2.692,16.961,15.716,18.96C120.045,150.416,121.13,140.8,121.555,131.226z"/>
	<g>
		<path fill="#F9A34E" d="M133.334,239.1c0.596-0.327,1.192-0.645,1.783-0.985c-0.488-4.573-2.325-9.709-4.594-15.154
			C132.055,227.977,133.022,233.409,133.334,239.1z"/>
		<path fill="#F9A34E" d="M60.765,243.085c0-28.219,16.271-51.094,36.345-51.094c11.38,0,21.535,7.356,28.199,18.866
			c-3.693-8.783-6.875-17.876-6.318-26.401c0.929-14.18,15.283-17.466,15.283-17.466s-39.498,5.907-60.367-9.487
			c6.576,11.865,7.494,22.263,5.883,30.532c-3.898,19.966-20.565,20.385-26.872,48.353c1.937,3.075,4.616,5.686,7.868,7.833
			C60.78,243.842,60.765,243.466,60.765,243.085z"/>
	</g>
	<g>
		<path fill="#EF8A3F" d="M134.274,166.99c0,0-4.12,0.611-10.384,0.927c-3.384,2.762-6.915,7.449-7.339,15.138
			c-1.066,19.334,13.011,41.398,14.527,57.25c1.353-0.7,2.7-1.421,4.039-2.19c-1.581-14.823-17.311-35.525-16.127-53.659
			C119.919,170.276,134.274,166.99,134.274,166.99z"/>
		<path fill="#EF8A3F" d="M61.35,238.109c5.689-29.934,16.313-29.853,19.832-51.224c1.216-7.395,0.822-16.386-2.799-26.551
			c-1.564-0.854-3.066-1.789-4.477-2.831c6.576,11.865,7.494,22.263,5.883,30.532c-3.898,19.966-20.565,20.385-26.872,48.353
			c2.028,3.223,4.873,5.937,8.341,8.137C59.557,242.776,62.506,240.293,61.35,238.109z"/>
	</g>
	<path fill="#FFCD9C" d="M101.91,234.278c16.347-19.601,34.95-64.292,43.444-57.162C152.08,182.769,119.012,227.545,101.91,234.278z
		"/>
	<path fill="#F4AD7D" d="M139.902,194.568c5.181-8.454,7.847-15.439,5.452-17.452c-3.721-3.123-9.382,3.697-15.941,13.995
		C133.098,191.866,136.613,193.036,139.902,194.568z"/>
	<path fill="#FFCD9C" d="M76.973,236.368c-8.511-20.52-16.341-70.425-24.255-64.909C44.678,177.065,65.454,222.567,76.973,236.368z"
		/>
	<path fill="#F4AD7D" d="M63.252,189.39c-3.539-11.936-7.027-20.376-10.534-17.931c-3.161,2.204-1.858,10.583,1.575,20.767
		C57.114,190.938,60.116,189.978,63.252,189.39z"/>
	<path fill="#BDEFE7" d="M50.106,481.112h17.723c0,0-9.246-6.19-13.613-6.19C50.618,474.922,50.106,481.112,50.106,481.112z"/>
	<path fill="#BDEFE7" d="M156.311,481.112h-19.519c0,0,10.184-6.19,14.993-6.19C155.749,474.922,156.311,481.112,156.311,481.112z"
		/>
	<path fill="#F78B41" d="M63.864,176.003c0.011,3.017-12.971,8.911-14.681,6.342c-1.708-2.57-2.563-11.335-0.084-12.841
		C51.577,167.998,63.844,171.116,63.864,176.003z"/>
	<path fill="#F78B41" d="M135.15,174.749c0.831-3.022,14.763-3.326,15.444-0.375c0.678,2.946-1.209,12.463-3.656,13.421
		C144.488,188.753,133.802,179.645,135.15,174.749z"/>
	<path fill="#FFCD9C" d="M98.135,115.877c-1.182-5.671-0.514-22.603,0.771-35.958l12.07,19.392l0.001,20.161
		C110.978,119.472,100.061,125.123,98.135,115.877z"/>
	<g>
		<path fill="#FFCD9C" d="M68.018,222.356c2.744,3.336,3.656,14.02,6.918,12.839c2.923-1.054,5.917-7.515-4.556-14.873
			L68.018,222.356z"/>
		<path fill="#FFCD9C" d="M75.01,225.136c-5.289,1.497-3.193,8.57-2.064,10.663c1.24,2.296,5.613,2.361,6.789,0.812
			C80.914,235.059,77.031,224.566,75.01,225.136z"/>
		<path fill="#FFCD9C" d="M78.735,231.62c2.99,1.626,7.049,1.976,7.242,0.661c0.223-1.496-3.283-1.092-5.674-3.238
			c-2.594-2.321-4.329-3.632-5.154-2.649C74.324,227.369,75.741,229.999,78.735,231.62z"/>
		<path fill="#FFCD9C" d="M79.933,238.102c1.46,2.675,2.771,3.743,3.36,3.285c0.596-0.453-0.32-1.93-1.777-4.604
			c-1.459-2.677-2.715-6.427-3.306-5.969C77.615,231.272,78.483,235.427,79.933,238.102z"/>
		<path fill="#FFCD9C" d="M76.934,239.433c0.967,2.971,2.995,5.14,3.659,4.835c0.655-0.314-0.82-2.84-1.789-5.81
			c-0.968-2.96-1.741-4.833-2.398-4.522C75.745,234.252,75.967,236.472,76.934,239.433z"/>
		<path fill="#FFCD9C" d="M73.584,238.062c1.076,2.92,2.277,4.331,2.925,4c0.652-0.331-0.39-2.134-1.462-5.056
			c-1.075-2.931-1.865-4.958-2.518-4.625C71.881,232.714,72.512,235.133,73.584,238.062z"/>
	</g>
	<g>
		<path fill="#FFCD9C" d="M116.049,223.437c-3.51,2.437-7.612,12.361-10.207,10.369c-2.322-1.783-3.058-8.728,8.69-12.938
			L116.049,223.437z"/>
		<path fill="#FFCD9C" d="M108.857,224.219c4.337,2.831,0.268,8.998-1.396,10.688c-1.827,1.854-5.811,0.75-6.401-1.029
			C100.466,232.083,107.203,223.131,108.857,224.219z"/>
		<path fill="#FFCD9C" d="M103.494,229.392c-3.208,0.752-6.993,0.004-6.767-1.301c0.262-1.48,3.313-0.163,6.136-1.571
			c3.063-1.511,5.04-2.301,5.485-1.148C108.797,226.524,106.708,228.644,103.494,229.392z"/>
		<path fill="#FFCD9C" d="M100.424,235.239c-2.146,2.153-3.662,2.821-4.058,2.231c-0.4-0.592,0.885-1.751,3.026-3.906
			c2.139-2.16,4.429-5.39,4.823-4.798C104.617,229.358,102.556,233.079,100.424,235.239z"/>
		<path fill="#FFCD9C" d="M102.729,237.307c-1.782,2.562-4.291,4.088-4.794,3.622c-0.5-0.47,1.613-2.484,3.4-5.05
			c1.784-2.56,3.057-4.131,3.563-3.668C105.401,232.691,104.52,234.745,102.729,237.307z"/>
		<path fill="#FFCD9C" d="M106.19,236.889c-1.874,2.496-3.395,3.513-3.878,3.029c-0.492-0.489,1.004-1.926,2.871-4.422
			c1.879-2.498,3.217-4.216,3.702-3.725C109.373,232.253,108.056,234.391,106.19,236.889z"/>
	</g>
	<path fill="#EF8A3F" d="M74.178,216.948c6.52-3.91,26.215-10.205,37.586-7.835C98.426,202.892,86.366,206.665,74.178,216.948z"/>
	<path fill="#EF8A3F" d="M85.903,205.408c4.311-1.635,16.729-3.284,23.25-0.658C101.877,199.616,94.278,200.578,85.903,205.408z"/>
	<path fill="#FFCD9C" d="M118.413,130.344c0.39-8.769-5.8-16.186-13.819-16.566c-8.023-0.382-14.845,6.418-15.235,15.186
		c-0.389,8.768-2.327,15.541,13.207,17.31C117.075,147.923,118.024,139.114,118.413,130.344z"/>
	<path opacity="0.5" fill="#BA4A4A" d="M131.631,132.155c-4.819-8.282-9.604-14.362-12.758-14.544
		c-0.204-0.006-0.396,0.01-0.58,0.044c-2.197-2.046-4.629-3.578-7.315-4.417l-0.001-10.966c-3.385-0.502-6.957-0.779-10.659-0.779
		c-0.919,0-1.831,0.022-2.737,0.057c-0.115,4.932-0.054,9.279,0.255,12.233c-1.907,0.753-3.659,1.806-5.288,3.114
		c-3.701-0.557-11.773,7.259-19.838,17.577c6.949,3.733,16.743,6.061,27.608,6.061C113.289,140.534,124.739,137.218,131.631,132.155
		z"/>
	<path fill="#FFCD9C" d="M117.95,123.672c-9.554-4.622-24.527-14.635-22.906-30.591c2.922-28.715,27.484-33.203,41.564-24.123
		c0,0,1.223,23.454-1.484,26.36C129.013,101.89,136.036,107.125,117.95,123.672z"/>
	<path fill="#FFCD9C" d="M93.838,89.261c0.076-3.193-1.588-5.821-3.715-5.873c-2.128-0.052-3.918,2.491-3.993,5.683
		c-0.075,3.19,3.894,6.069,6.021,6.121C94.281,95.244,93.76,92.452,93.838,89.261z"/>
	<path fill="#F4AD7D" d="M93.198,89.782c0.055-2.286-1.137-4.169-2.662-4.207c-1.521-0.038-2.807,1.785-2.859,4.071
		c-0.054,2.285,2.789,4.349,4.313,4.384C93.514,94.068,93.141,92.07,93.198,89.782z"/>
	<path fill="#FFCD9C" d="M93.137,92.425c0.026-1.353-0.68-2.466-1.578-2.488s-1.649,1.055-1.675,2.408
		c-0.027,1.352,1.653,2.571,2.551,2.592C93.334,94.959,93.11,93.777,93.137,92.425z"/>
	<path fill="#FFCD9C" d="M91.842,357.388c-0.365,2.075,0,9.13,3.16,9.833c0,0,3.337-6.497,3.337-9.658
		c0-3.16-0.352-10.183-0.878-10.183C96.934,347.38,92.37,354.402,91.842,357.388z"/>
	<path fill="#FFCD9C" d="M65.155,292.95c-0.96-1.562,18.436-9.131,19.313-7.552C85.346,286.979,66.559,295.232,65.155,292.95z"/>
	<path fill="#FFCD9C" d="M67.811,299.076c-0.801-1.479,15.373-8.647,16.105-7.152C84.649,293.421,68.983,301.237,67.811,299.076z"/>
	<path fill="#FFCD9C" d="M71.295,305.633c-0.683-1.355,13.08-7.926,13.703-6.554C85.622,300.45,72.292,307.612,71.295,305.633z"/>
	<path fill="#FFCD9C" d="M111.794,306.026c-0.395-1.564,14.282,1.276,14.616,2.819C126.741,310.389,112.368,308.314,111.794,306.026
		z"/>
	<path fill="#FFCD9C" d="M112.565,311.682c-0.296-1.433,12.089,0.303,12.338,1.723C125.149,314.822,113,313.779,112.565,311.682z"/>
	<path fill="#FFCD9C" d="M113.833,318.015c-0.236-1.293,10.387-0.159,10.577,1.119C124.603,320.413,114.178,319.901,113.833,318.015
		z"/>
	<path fill="#684447" d="M74.225,121.291c-4.916-11.471-12.174-44.714,10.301-65.315l1.64,5.619
		C73.381,86.259,71.208,104.806,74.225,121.291z"/>
	<path fill="#684447" d="M124.086,87.346c-2.521,0.176-7.916-0.098-9.878-7.073C116.54,84.653,118.561,86.443,124.086,87.346z"/>
	<path fill="#684447" d="M136.844,89.333c-1.248,1.412-4.697,4.469-10.367-0.283C131.108,91.491,133.373,91.657,136.844,89.333z"/>
	<path fill="#F4AD7D" d="M105.395,97.274c0.396-1.061,2.2-1.553,4.17-1.129c2.119,0.461,3.809,1.843,3.603,3.128
		c-0.22,1.371-2.454,1.934-4.786,1.229C106.236,99.851,104.975,98.4,105.395,97.274z"/>
	<path fill="#F4AD7D" d="M120.025,114.192c0.24-1.045-1.021-1.226-2.62-1.59c-1.596-0.36-2.924-0.765-3.163,0.28
		s0.861,2.184,2.459,2.547C118.3,115.792,119.787,115.238,120.025,114.192z"/>
	<path fill="#F4AD7D" d="M121.803,109.602c1.563-3.029-1.376-3.088-1.913-3.21c-0.681-0.154-3.584-1.053-3.712,1.441
		c-0.06,1.195,1.514-0.958,3.535-0.496C121.736,107.796,121.247,110.677,121.803,109.602z"/>
	<path fill="#5B371E" d="M114.823,105.46c0.07-0.229-0.021-0.462-0.204-0.528c-0.181-0.064-0.387,0.063-0.458,0.292
		c-0.067,0.225,0.023,0.462,0.202,0.528C114.55,105.818,114.756,105.684,114.823,105.46z"/>
	<g>
		<path fill="#E08761" d="M118.833,92.768c-1.993,0.132-7.841-0.353-6.662-1.62C113.083,90.158,118.833,92.768,118.833,92.768z"/>
		<path fill="#E08761" d="M118.657,92.681c-2.554-1.758-5.252-4.265-3.88-4.469C116.316,87.978,118.657,92.681,118.657,92.681z"/>
		<path fill="#E08761" d="M119.25,92.946c0.222-0.276,0.176-0.686-0.104-0.907c-0.281-0.22-0.687-0.176-0.909,0.107
			c-0.222,0.279-0.174,0.688,0.104,0.908C118.624,93.275,119.03,93.227,119.25,92.946z"/>
	</g>
	<g>
		<path fill="#E08761" d="M126.708,95.646c1.922-0.554,7.743-1.313,6.858,0.173C132.883,96.978,126.708,95.646,126.708,95.646z"/>
		<path fill="#E08761" d="M126.901,95.692c2.866,1.182,6.037,3.057,4.739,3.549C130.184,99.792,126.901,95.692,126.901,95.692z"/>
		<path fill="#E08761" d="M126.262,95.558c-0.156,0.323-0.026,0.709,0.294,0.864c0.321,0.158,0.709,0.026,0.865-0.296
			c0.159-0.319,0.027-0.705-0.296-0.863C126.808,95.104,126.418,95.24,126.262,95.558z"/>
	</g>
	<path fill="#47241B" d="M121.376,112.931c3.132-6.897-4.134-7.646-8.928-2.52C116.643,117.279,121.376,112.931,121.376,112.931z"/>
	<path fill="#FFE5DE" d="M121.988,110.108c0,0-2.026,1.738-1.781,3.401c0,0-3.047,1.83-6.694-2.115c0,0,1.19-0.907,2.255-3.344
		C120.075,106.977,121.411,107.837,121.988,110.108z"/>
	<path fill="#F4AD7D" d="M120.265,102.439c0.444,1.089,3.217,0.098,3.156-1.053c-0.063-1.151-1.164-3.198-0.487-4.319
		C123.613,95.947,119.359,100.216,120.265,102.439z"/>
	<path fill="#684447" d="M101.09,86.175c1.757-9.13,7.607-6.087,11.705-11.471c4.098-5.385,4.098-11.587,9.717-13.11
		c0,0-14.048-0.352-18.495,3.628s6.465,4.384,2.341,7.726C99.57,78.45,101.09,86.175,101.09,86.175z"/>
	<path fill="#FFCD9C" d="M118.005,65.105c0.444-1.511,12.759,1.17,15.451-1.99c0,0-0.585,5.384,2.81,6.438
		C136.266,69.553,116.835,69.086,118.005,65.105z"/>
	<path fill="#684447" d="M136.64,83.455c3.162-6.869-2.678-7.654-3.48-13.144c-0.809-5.49,1.55-9.546-2.569-13.195
		c0,0,12.438,6.372,14.271,11.095c1.831,4.725-7.37,0.028-5.492,4.177C142.463,79.222,136.64,83.455,136.64,83.455z"/>
</g>
</svg>
