<?xml version="1.0" encoding="utf-8"?>
<!-- Generator: Adobe Illustrator 15.1.0, SVG Export Plug-In . SVG Version: 6.00 Build 0)  -->
<!DOCTYPE svg PUBLIC "-//W3C//DTD SVG 1.1//EN" "http://www.w3.org/Graphics/SVG/1.1/DTD/svg11.dtd">
<svg version="1.1" id="Layer_35" xmlns="http://www.w3.org/2000/svg" xmlns:xlink="http://www.w3.org/1999/xlink" x="0px" y="0px"
	 width="512px" height="512px" viewBox="0 0 512 512" enable-background="new 0 0 512 512" xml:space="preserve">
<g>
	<path fill="#B5B5B5" d="M84.898,144.955c2.626-39.063,99.916-156.597,230.541-31.515c0,0,49.116,43.507,59.299,105.641
		c7.128,43.453-8.477,97.832-57.298,145.065C183.48,493.702,79.637,223.103,84.898,144.955z"/>
	<path fill="#9B9B9B" d="M292.218,93.454c2.635,46.092-19.303,94.627-62.199,126.339c-38.094,28.164-84.043,36.592-124.17,26.917
		c36.416,99.443,116.372,209.534,211.592,117.437c48.821-47.233,64.426-101.612,57.298-145.065
		c-10.183-62.134-59.299-105.641-59.299-105.641C307.568,105.917,299.828,99.296,292.218,93.454z"/>
	<path fill="#9B9B9B" d="M424.914,199.254c-8.808-43.998-38.352-74.552-66.009-68.222c-27.641,6.321-42.929,47.144-34.129,91.141
		c8.809,44.022,38.372,74.567,66.021,68.234C418.45,284.078,433.734,243.259,424.914,199.254z"/>
	<path fill="#FFC397" d="M261.333,359.619c-10.481,44.959-73.065,96.756-129.288,99.945c0,0-53.146-79.083-54.16-123.548
		c-0.99-44.476,7.88-35.028,4.107-42.999c-3.813-7.986-12.078-94.827,8.183-133.833c13.289-25.579,118.045-48.191,157.071,49.971
		C286.261,307.283,265.252,342.76,261.333,359.619z"/>
	<path fill="#F7A27C" d="M219.921,166.458c3.887,6.898,7.476,14.451,10.617,22.911c40.074,108.213,18.362,147.376,14.291,165.987
		c-8.707,39.669-51.743,84.137-98.264,102.236c52.013-10.137,105.174-56.859,114.768-97.974
		c3.919-16.859,24.928-52.336-14.087-150.464C240.046,191.055,230.611,177.088,219.921,166.458z"/>
	<path fill="#F7A27C" d="M81.992,293.018c-1.963-4.14-7.021-17.375-6.563-34.792c3.616-2.635,7.308-21.659,19.409-24.302
		c14.834-3.252,58.346-33.524,42.431,88.72c-4.227,32.479-19.482,78.924-28.488,98.137c-14.458-26.34-30.364-60.613-30.896-84.764
		C76.895,291.541,85.765,300.988,81.992,293.018z"/>
	<path fill="#9B9B9B" d="M221.558,255.182c-10.735-15.293-36.735-44.979-77.967-24.184
		C174.528,224.224,192.048,227.615,221.558,255.182z"/>
	<path fill="#FFC397" d="M139.185,301.638c7.613-2.572-0.512,17.961-0.328,27.597c0.188,9.629-1.816,53.26-26.34,27.055
		C98.398,341.173,123.323,343.832,139.185,301.638z"/>
	<path fill="#F7A27C" d="M115.106,379.467c-3.146,8.052,8.702,39.855,23.444,40.159c11.979,0.212,26.584-31.24,24.117-41.031
		C157.873,373.117,122.668,375.24,115.106,379.467z"/>
	<path fill="#FCE7DE" d="M119.46,380.674c13.542-3.091,23.901-5.164,38.372-1.421c0,0-3.556,23.55-16.991,24.09
		C119.522,404.219,119.46,380.674,119.46,380.674z"/>
	<path fill="#5B371E" d="M192.73,280.207c-1.195-10.513-7.958-18.214-15.007-17.195c-7.09,1.031-11.853,10.401-10.6,20.883
		c1.227,10.511,7.937,18.219,15.026,17.151C189.217,300.063,193.953,290.718,192.73,280.207z"/>
	<path fill="#5B371E" d="M208.236,276.272c-13.419-11.325-30.926-21.504-54.598-4.693
		C176.193,266.952,191.032,270.859,208.236,276.272z"/>
	<path fill="#5B371E" d="M122.814,287.205c-1.959-10.259-8.521-17.195-14.654-15.462c-6.12,1.714-9.517,11.428-7.558,21.663
		c1.969,10.245,8.512,17.162,14.647,15.403C121.396,307.116,124.742,297.439,122.814,287.205z"/>
	<path fill="#5B371E" d="M132.082,274.876c-12.037-7.666-26.238-13.083-44.371,7.726
		C106.087,272.848,118.105,273.424,132.082,274.876z"/>
	<path fill="#9B9B9B" d="M80.233,249.122c4.197-8.235,19.974-32.21,54.667-16.422C107.98,228.67,95.061,232.279,80.233,249.122z"/>
	<path fill="#FFC397" d="M257.811,291.185c0.732-23.893,39.383-30.008,48.779-16.414
		C325.987,302.795,254.227,409.373,257.811,291.185z"/>
	<path fill="#EF8F6F" d="M264.254,292.957c0.516-16.472,27.142-20.666,33.609-11.313
		C311.188,300.942,261.729,374.364,264.254,292.957z"/>
	<path fill="#FFC397" d="M257.274,305.676c0.372-11.428,18.865-14.352,23.345-7.854
		C289.898,311.228,255.532,362.243,257.274,305.676z"/>
	<path fill="#9B9B9B" d="M228.534,346.318c38.588-18.477,24.739-62.596,50.997-85.027l-31.352-52.316
		c0,0-22.023,45.138-14.464,75.131C243.982,324.832,228.534,346.318,228.534,346.318z"/>
	<path fill="#F7A27C" d="M105.12,198.523c-2.659-0.736,53.297-5.401,62.763-2.766C167.882,195.757,115.773,201.471,105.12,198.523z"
		/>
	<path fill="#F7A27C" d="M151.239,302.776c-2.659-0.735,53.297-5.401,62.763-2.766C214.001,300.011,161.892,305.725,151.239,302.776
		z"/>
</g>
</svg>
