<?xml version="1.0" encoding="utf-8"?>
<!-- Generator: Adobe Illustrator 15.1.0, SVG Export Plug-In . SVG Version: 6.00 Build 0)  -->
<!DOCTYPE svg PUBLIC "-//W3C//DTD SVG 1.1//EN" "http://www.w3.org/Graphics/SVG/1.1/DTD/svg11.dtd">
<svg version="1.1" id="Capa_1" xmlns="http://www.w3.org/2000/svg" xmlns:xlink="http://www.w3.org/1999/xlink" x="0px" y="0px"
	 width="512px" height="512px" viewBox="0 0 512 512" enable-background="new 0 0 512 512" xml:space="preserve">
<g>
	<g>
		<g>
			<g>
				<g>
					<g>
						<circle fill="#63C6F8" cx="256" cy="256" r="256"/>
					</g>
				</g>
			</g>
		</g>
	</g>
</g>
<g>
	<path fill="#DCE1EB" d="M346.323,373.216h-99.571v-30h79.883l41.694-96.134l27.522,11.936L346.323,373.216z"/>
</g>
<g>
	<g>
		<g>
			<path fill="#DB375A" d="M373.344,163.337h17.491v168.45h-17.491V163.337z"/>
		</g>
	</g>
	<g>
		<g>
			<path fill="#DB375A" d="M381.422,163.337h9.414v168.45h-9.414V163.337z"/>
			<path fill="#DB375A" d="M390.835,163.337v168.45"/>
		</g>
	</g>
	<g>
		<g>
			<path fill="#DB375A" d="M297.865,238.817h168.45v17.491h-168.45V238.817z"/>
		</g>
	</g>
	<g>
		<g>
			<path fill="#DB375A" d="M381.422,238.817h84.894v17.491h-84.894V238.817z"/>
		</g>
	</g>
	<g>
		<g>
			<path fill="#DB375A" d="M316.294,300.948l119.095-119.094l12.366,12.366L328.66,313.314L316.294,300.948z"/>
		</g>
	</g>
	<g>
		<g>
			<path fill="#DB375A" d="M435.462,181.822l-54.04,54.04V260.6l66.408-66.41L435.462,181.822z"/>
		</g>
	</g>
	<g>
		<g>
			<path fill="#DB375A" d="M316.291,194.212l12.367-12.366l119.094,119.094l-12.366,12.367L316.291,194.212z"/>
		</g>
	</g>
	<g>
		<g>
			<path fill="#DB375A" d="M447.83,300.936l-66.408-66.41v24.736l54.04,54.04L447.83,300.936z"/>
		</g>
	</g>
	<g>
		<g>
			<circle fill="#FF8E8E" cx="382.09" cy="247.562" r="63.794"/>
		</g>
	</g>
	<g>
		<g>
			<path fill="#FF637B" d="M382.09,183.768c-0.224,0-0.445,0.015-0.668,0.017V311.34c0.225,0.002,0.444,0.018,0.668,0.018
				c35.233,0,63.794-28.563,63.794-63.794C445.884,212.33,417.323,183.768,382.09,183.768z"/>
		</g>
	</g>
	<g>
		<g>
			<circle fill="#DB375A" cx="362.311" cy="218.013" r="9.486"/>
		</g>
	</g>
	<g>
		<g>
			<circle fill="#DB375A" cx="417.134" cy="256.99" r="11.987"/>
		</g>
	</g>
	<g>
		<g>
			<circle fill="#DB375A" cx="409.037" cy="213.25" r="8.097"/>
		</g>
	</g>
	<g>
		<g>
			<circle fill="#DB375A" cx="360.555" cy="276.78" r="14.818"/>
		</g>
	</g>
</g>
<g>
	<g>
		<path fill="#FF8E8E" d="M208.916,479.779c-33.881,0-61.346-27.467-61.346-61.347v-27.681l12.48-96.909l-12.48-88.751v-97.184
			h122.692v97.184l-10.005,92.83l10.005,92.83v27.681C270.262,452.313,242.797,479.779,208.916,479.779L208.916,479.779z"/>
	</g>
	<g>
		<path fill="#FF637B" d="M270.262,107.908H208.53v371.86c0.129,0.001,0.256,0.011,0.386,0.011c33.88,0,61.346-27.465,61.346-61.347
			v-27.681l-10.005-92.83l10.005-92.83V107.908z"/>
	</g>
	<g>
		<path fill="#707789" d="M139.755,68.404h138.323v78.9H139.755V68.404z"/>
	</g>
	<g>
		<path fill="#555A66" d="M208.53,68.404h69.547v78.9H208.53V68.404z"/>
	</g>
	<g>
		<path fill="#555A66" d="M139.755,68.404H168.4v78.9h-28.645V68.404z"/>
	</g>
	<g>
		<path fill="#333940" d="M249.432,68.404h28.645v78.9h-28.645V68.404z"/>
	</g>
	<g>
		<path fill="#555A66" d="M194.593,68.404h28.645v78.9h-28.645V68.404z"/>
	</g>
	<g>
		<path fill="#333940" d="M208.53,68.404h14.709v78.9H208.53V68.404z"/>
	</g>
	<g>
		<path fill="#FFFFFF" d="M147.57,205.092h122.692v185.66H147.57V205.092z"/>
	</g>
	<g>
		<path fill="#E9EDF5" d="M208.53,205.092h61.732v185.66H208.53V205.092z"/>
	</g>
	<g>
		<path fill="#707789" d="M159.758,232.142h45.933v30.84h-45.933V232.142z"/>
	</g>
	<g>
		<path fill="#707789" d="M159.758,287.471h86.995v30.842h-86.995V287.471z"/>
	</g>
	<g>
		<path fill="#555A66" d="M208.53,287.471h38.222v30.84H208.53V287.471z"/>
	</g>
</g>
</svg>
