<?xml version="1.0" encoding="utf-8"?>
<!-- Generator: Adobe Illustrator 15.1.0, SVG Export Plug-In . SVG Version: 6.00 Build 0)  -->
<!DOCTYPE svg PUBLIC "-//W3C//DTD SVG 1.1//EN" "http://www.w3.org/Graphics/SVG/1.1/DTD/svg11.dtd">
<svg version="1.1" id="Capa_1" xmlns="http://www.w3.org/2000/svg" xmlns:xlink="http://www.w3.org/1999/xlink" x="0px" y="0px"
	 width="512px" height="512px" viewBox="0 0 512 512" enable-background="new 0 0 512 512" xml:space="preserve">
<g>
	<path fill="#63C6F8" d="M411.649,503.876c-103.767,10.833-207.532,10.833-311.298,0c-19.898-2.077-35.517-18.005-37.119-37.947
		c-9.943-123.754-9.943-247.508,0-371.261c1.602-19.942,17.221-35.87,37.119-37.947c103.766-10.833,207.532-10.833,311.298,0
		c19.897,2.077,35.517,18.005,37.118,37.947c9.943,123.754,9.943,247.508,0,371.261
		C447.166,485.871,431.547,501.799,411.649,503.876z"/>
	<path fill="#FFFFFF" d="M256,458.558c-48.443,0-97.569-3.127-146.013-9.293c-10.658-112.117-10.658-225.815,0-337.934
		c48.443-6.167,97.569-9.293,146.013-9.293c48.443,0,97.568,3.127,146.013,9.293c10.658,112.118,10.658,225.816,0,337.934
		C353.568,455.432,304.443,458.558,256,458.558z"/>
	<path fill="#FFD064" d="M358.838,66.982c-1.482-13.99-12.918-24.858-26.98-25.342c-1.647-0.062-3.307-0.113-4.955-0.175
		c-9.684-0.309-18.584-5.522-23.405-13.918C294.07,11.085,276.331,0,255.995,0c-20.325,0-38.065,11.085-47.491,27.547
		c-4.821,8.396-13.722,13.609-23.406,13.918c-1.648,0.062-3.307,0.113-4.955,0.175c-14.062,0.484-25.497,11.353-26.98,25.342
		c-1.143,10.786-1.143,21.582,0,32.368c1.483,14,12.929,24.858,26.991,25.353c50.561,1.772,101.132,1.772,151.694,0
		c14.062-0.494,25.506-11.353,26.99-25.353C359.98,88.565,359.98,77.768,358.838,66.982L358.838,66.982z M255.995,80.766
		c-14.381,0-26.043-11.662-26.043-26.053c0-14.381,11.662-26.043,26.043-26.043c14.392,0,26.053,11.662,26.053,26.043
		C282.049,69.104,270.387,80.766,255.995,80.766z"/>
	<path fill="#FF637B" d="M301.859,182.48c-5.59-0.24-11.178-0.434-16.767-0.585c-3.378-0.092-6.087-2.8-6.178-6.178
		c-0.151-5.589-0.345-11.177-0.585-16.766c-0.124-2.891-2.196-5.364-5.034-5.924c-11.53-2.275-23.061-2.275-34.591,0
		c-2.839,0.56-4.91,3.033-5.034,5.924c-0.24,5.589-0.434,11.177-0.585,16.766c-0.092,3.378-2.8,6.087-6.178,6.178
		c-5.589,0.151-11.177,0.345-16.766,0.585c-2.891,0.124-5.364,2.196-5.924,5.034c-2.275,11.531-2.275,23.061,0,34.591
		c0.56,2.839,3.033,4.91,5.924,5.034c5.589,0.24,11.177,0.434,16.766,0.585c3.378,0.092,6.087,2.8,6.178,6.178
		c0.152,5.589,0.345,11.177,0.585,16.766c0.124,2.891,2.196,5.364,5.034,5.924c11.531,2.275,23.061,2.275,34.591,0
		c2.839-0.56,4.91-3.033,5.034-5.924c0.24-5.589,0.434-11.177,0.585-16.766c0.092-3.378,2.8-6.087,6.178-6.178
		c5.589-0.152,11.177-0.345,16.767-0.585c2.891-0.124,5.363-2.196,5.924-5.034c2.275-11.53,2.275-23.061,0-34.591
		C307.223,184.676,304.75,182.605,301.859,182.48L301.859,182.48z"/>
	<g>
		<path fill="#63C6F8" d="M369.05,311.541h-226.1c-4.267,0-7.726-3.459-7.726-7.727c0-4.267,3.459-7.726,7.726-7.726h226.1
			c4.267,0,7.726,3.459,7.726,7.726C376.775,308.082,373.316,311.541,369.05,311.541z"/>
		<path fill="#63C6F8" d="M369.05,351.623h-226.1c-4.267,0-7.726-3.459-7.726-7.727c0-4.267,3.459-7.726,7.726-7.726h226.1
			c4.267,0,7.726,3.459,7.726,7.726S373.316,351.623,369.05,351.623z"/>
		<path fill="#63C6F8" d="M312.525,391.704h-113.05c-4.267,0-7.726-3.459-7.726-7.727c0-4.267,3.459-7.726,7.726-7.726h113.05
			c4.267,0,7.726,3.459,7.726,7.726C320.252,388.245,316.792,391.704,312.525,391.704z"/>
	</g>
</g>
</svg>
