<?xml version="1.0" encoding="utf-8"?>
<!-- Generator: Adobe Illustrator 15.1.0, SVG Export Plug-In . SVG Version: 6.00 Build 0)  -->
<!DOCTYPE svg PUBLIC "-//W3C//DTD SVG 1.1//EN" "http://www.w3.org/Graphics/SVG/1.1/DTD/svg11.dtd">
<svg version="1.1" id="Layer_35" xmlns="http://www.w3.org/2000/svg" xmlns:xlink="http://www.w3.org/1999/xlink" x="0px" y="0px"
	 width="194.667px" height="512px" viewBox="161.167 0 194.667 512" enable-background="new 161.167 0 194.667 512"
	 xml:space="preserve">
<g>
	<path fill="#894634" d="M203.891,148.458c-15.415-20.917-29.688-55.702-19.464-85.485c0,0,10.857-47.301,42.084-34.289
		c5.39-5.762,81.229-13.569,26.511,110.148C235.542,179.494,203.891,148.458,203.891,148.458z"/>
	<path fill="#6D3226" d="M251.677,138.833c9.933-26.229,18.715-46.909,16.287-62.917c-3.146-20.744-22.294-32.299-38.577-32.299
		c-22.38,0-45.649,24.172-44.721,56.457c0.538,18.672,11.596,35.873,20.354,48.385C205.02,148.458,235.078,179.494,251.677,138.833z
		"/>
	<path fill="#EF8F94" d="M248.491,106.795c-0.463-5.155-11.282-8.09-24.163-6.554c-12.881,1.536-22.945,6.96-22.478,12.113
		c0.471,5.155,12.175,28.481,25.058,26.946C239.789,137.764,248.96,111.947,248.491,106.795z"/>
	<path fill="#EF8F94" d="M302.008,129.005c5.854,0.767-12.814,61.426-22.772,65.682
		C269.269,198.949,294.442,128.009,302.008,129.005z"/>
	<path fill="#EF8F94" d="M278.82,194.921c-7.543,2.598-42.198-70.565-34.518-80.708C251.97,104.064,288.587,191.557,278.82,194.921z
		"/>
	<path fill="#E27474" d="M247.029,113.965c0.049-0.066,0.104-0.11,0.156-0.167c-1.176-0.629-2.159-0.543-2.882,0.415
		c-7.681,10.143,26.975,83.306,34.518,80.708c0.354-0.122,0.641-0.368,0.876-0.704C269.575,187.806,239.86,123.433,247.029,113.965z
		"/>
	<path fill="#FF9CA6" d="M264.41,150.58c-0.499-1.566-1.754-2.569-2.805-2.239c-1.05,0.331-1.497,1.87-0.998,3.436
		c0.499,1.567,1.754,2.57,2.806,2.24C264.464,153.686,264.909,152.148,264.41,150.58z"/>
	<g>
		<path fill="#F4AD7D" d="M318.316,121.021c-2.526,0.484-4.618,0.422-4.615,1.139c-0.002,0.712,2.024,1.586,4.544,1.103
			c2.524-0.485,4.586-2.145,4.589-2.857C322.832,119.689,320.835,120.538,318.316,121.021z"/>
		<g>
			<path fill="#E2CDC5" d="M323.557,116.613c-0.07,0.686-0.05,0.933-0.024,1.391c-5.007-1.622-4.147,3.053,0.122,4.383
				c0.585,0.181,1.151,0.271,1.677,0.28c0.574,0.707,1.265,1.305,2.04,1.773c-1.073,0.119-2.315-0.002-3.607-0.405
				C316.622,121.816,316.155,114.495,323.557,116.613z"/>
			<path fill="#F9E8E1" d="M323.557,116.613c-0.014,0.148-0.024,0.264-0.029,0.375c-1.799-0.15-3.597-0.449-4.238,1.01
				c-0.668,1.557-0.206,2.665,0.625,3.871C316.827,118.947,317.859,114.981,323.557,116.613z"/>
			<rect x="327.771" y="125.031" fill="#CEB5AE" width="9.123" height="2.864"/>
			<path opacity="0.4" fill="#D8CDB8" d="M330.773,111.718c3.791-0.888,9.816-2.664,3.939-7.102
				c-5.872-4.441-5.823-13.997,3.052-18.114c-4.91,1.597-14.503,5.385-12.122,14.205c1.07,3.973,9.666,2.191,10.186,7.4
				C335.989,109.713,330.773,111.718,330.773,111.718z"/>
			<path fill="#E2CDC5" d="M342.496,114.953c0,4.88-2.871,12.168-9.418,12.094c-9.318-0.107-10.313-8.381-10.51-12.094
				C329.553,114.337,335.027,114.354,342.496,114.953z"/>
			<path fill="#CCB3AC" d="M332.169,126.933c6.525,0.074,9.398-7.167,9.417-12.046c0.306,0.025,0.597,0.041,0.91,0.066
				c0,4.88-2.871,12.168-9.418,12.094c-0.732-0.008-1.409-0.073-2.044-0.176C331.399,126.904,331.773,126.928,332.169,126.933z"/>
			<path fill="#F9E8E1" d="M337.674,115.623c0,4.065-1.833,10.141-6.017,10.078c-5.953-0.091-6.586-6.985-6.714-10.078
				C329.408,115.11,332.902,115.124,337.674,115.623z"/>
			<path fill="#E2CDC5" d="M323.153,115.718c0-0.557,4.188-1.011,9.354-1.011c5.166,0,9.354,0.454,9.354,1.011
				c0,0.555-4.188,1.011-9.354,1.011C327.342,116.729,323.153,116.273,323.153,115.718z"/>
			<ellipse fill="#AA4B22" cx="332.508" cy="115.564" rx="8.749" ry="0.585"/>
		</g>
		<path fill="#F4AD7D" d="M319.066,130.277c-1.688,0.383-3.201,0.481-3.537-0.25c-0.332-0.731,0.766-1.635,2.45-2.018
			c1.687-0.383,3.324-0.102,3.655,0.627C321.97,129.366,320.754,129.895,319.066,130.277z"/>
		<path fill="#F4AD7D" d="M319.508,123.24c-1.821-0.312-3.257-1.084-3.374-0.292c-0.119,0.792,1.128,2.447,2.95,2.758
			c1.822,0.313,3.524-0.832,3.645-1.623C322.846,123.29,321.328,123.553,319.508,123.24z"/>
		<path fill="#FFCD9C" d="M302.81,133.032c3.823-2.378,14.62-0.826,14.047-4.909c-0.511-3.654-6.391-8.718-15.637,1.662
			L302.81,133.032z"/>
		<path fill="#F4AD7D" d="M306.861,125.577c0.52,6.516,7.939,5.81,10.229,5.009c2.513-0.881,3.381-5.947,2.055-7.696
			C317.818,121.137,306.666,123.087,306.861,125.577z"/>
		<path fill="#FFCD9C" d="M323.14,120.634c-0.083-0.83-1.254-0.312-3.302,0.388c-2.054,0.699-2.384,0.928-2.297,1.756
			c0.084,0.83,0.531,1.183,2.583,0.489C322.176,122.563,323.227,121.462,323.14,120.634z"/>
		<path fill="#FFCD9C" d="M312.801,124.182c2.166-3.078,1.58-5.404,0.251-5.792c-0.457-0.133-7.648,6.43-6.484,8.123
			C307.389,127.714,310.631,127.27,312.801,124.182z"/>
		<path fill="#FFCD9C" d="M323.078,124.462c0.066-0.908-1.293-0.555-3.627-0.159c-2.348,0.393-2.747,0.582-2.811,1.49
			c-0.068,0.908,0.345,1.366,2.688,0.979C321.673,126.37,323.012,125.368,323.078,124.462z"/>
		<path fill="#FFCD9C" d="M321.66,129.13c0.155-0.731-0.985-0.598-2.918-0.54c-1.938,0.055-2.283,0.164-2.435,0.894
			c-0.155,0.731,0.128,1.15,2.065,1.099C320.313,130.521,321.505,129.859,321.66,129.13z"/>
		<path fill="#FFCD9C" d="M316.595,116.731c1.091-1.075,1.457-2.55,2.427-1.825c0.773,0.579,0.188,2.275-0.925,3.327
			c-2.05,1.938-5.898,5.549-5.729,0.792C312.396,118.164,315.432,117.879,316.595,116.731z"/>
	</g>
	<path fill="#EF8F94" d="M290.021,355.473c0,0-5.135-64.185-14.935-100.192c-4.182-20.342-15.065-40.604-17.642-51.938
		c-2.324-10.214-6.831-36.143,7.492-55.987c0.485-17.749-14.977-45.347-36.881-45.966c-16.917-0.479-35.272,33.028-33.452,50.513
		c6.644,6.147,19.285,24.141,12.899,50.261c-10.818,44.245-22.401,22.123-0.536,153.308c0,0-3.8,15.732-3.758,26.349
		c0.044,10.616,16.652,98.454,16.652,98.454h3.492c0,0,1.909-89.299,1.158-99.159c-0.745-9.86-4.749-25.644-4.749-25.644
		l12.467-80.224l9.364,2.472c30.192,77.187,34.834,73.613,36.407,77.553c0.501,8.468-8.474,14.508-6.271,26.431
		c4.961,26.82,21.629,49.874,30.724,98.571h4.657L290.021,355.473z"/>
	<path fill="#FF9CA6" d="M217.887,146.355c-0.253-1.624-1.343-2.808-2.431-2.643c-1.089,0.166-1.766,1.618-1.511,3.244
		c0.254,1.625,1.344,2.809,2.433,2.643S218.142,147.981,217.887,146.355z"/>
	<path fill="#FFC0C6" d="M239.771,268.159c0.352-7.473,5.347-31.265,0.964-52.815c-3.605-17.731-1.918-48.204,2.13-63.15
		c0,0-7.732-21.798-10.819-27.527l2.705-1.247c0,0,7.337,20.552,9.477,28.773c0,0-8.099,32.627-1.461,62.466
		c5.155,23.167-0.9,53-0.9,53L239.771,268.159z"/>
	<path fill="#D16671" d="M243.101,111.008c-0.289-2.616-7.201-3.927-15.447-2.932c-8.246,0.997-14.705,3.924-14.417,6.54
		c0.285,2.616,17.206,13.257,22.271,15.193C240.847,124.871,243.385,113.622,243.101,111.008z"/>
	<path fill="#E27474" d="M304.929,475.815c-9.096-48.697-25.763-71.752-30.724-98.572c-2.202-11.924,6.772-17.962,6.272-26.432
		c-1.55-3.878-6.073-0.475-35.022-74.021c-0.457-1.158,2.432-3.675,4.477-5.628c-10.879,2.705-14.871,3.16-23.793-0.186l6.134,4.09
		l9.319,2.653c30.192,77.187,34.834,73.613,36.407,77.553c0.501,8.468-8.474,14.508-6.271,26.431
		c4.961,26.82,21.629,49.874,30.724,98.571h4.657l-0.611-4.46H304.929z"/>
	<path opacity="0.4" fill="#E27474" d="M224.467,382.04c-0.042-10.616-5.081-26.643-5.081-26.643
		c-17.101-6.319-15.365-86.37-15.365-86.37c-0.781-21.181,20.444-83.275,32.713-86.993c11.242-3.406,17.046,19.815,27.202,41.133
		c0.018-0.123,0.044-0.239,0.062-0.364c-12.642-30.236-11.525-56.012,0.434-76.086c-9.666,6.692-51.454,7.589-54.834,4.461
		c-0.766-7.352-2.974-22.305-5.71-30.568c-6.232,10.365-10.175,22.743-9.283,31.293c6.644,6.147,19.285,24.141,12.899,50.261
		c-10.833,44.31-22.382,22.232-0.536,153.308c0,0-3.8,15.732-3.758,26.349c0.044,10.616,16.652,98.454,16.652,98.454h3.492
		c0,0,0.034-1.631,0.093-4.46h-1.108C222.338,475.815,202.533,388.855,224.467,382.04z"/>
	<g>
		<g>
			<path fill="#F4F2D0" d="M182.548,157.384c-6,3.265-10.359,5.636-10.164,6.739c0.161,0.9,4.013-1.418,10.392-5.019
				c0.134,2.454,9.837-2.703,18.308-7.369c9.747-5.369,22.168-10.813,19.557-16.283c-1.969-4.126-10.976,2.604-21.108,9.048
				C191.386,149.685,181.724,155.607,182.548,157.384z"/>
			<path fill="#E2E1B7" d="M183.083,157.252c-5.708,3.087-9.849,5.331-9.722,6.229c0.1,0.737,3.774-1.429,9.844-4.818
				c0.003,2.023,9.218-2.867,17.274-7.271c9.272-5.068,21.016-10.369,18.88-14.731c-1.611-3.289-10.267,2.858-19.946,8.84
				C191.629,150.313,182.409,155.833,183.083,157.252z"/>
			<path fill="#C1BF9F" d="M189.553,152.372c-0.167-0.409-0.21-0.855-0.179-1.321c-4.242,2.868-7.305,5.302-6.826,6.333
				c-6,3.265-10.359,5.636-10.164,6.739c0.161,0.9,4.013-1.418,10.392-5.019c0.104,1.891,5.885-0.738,12.405-4.177
				C192.24,154.76,190.193,153.923,189.553,152.372z"/>
			<path fill="#AA4856" d="M217.167,138.061c-0.048-0.218-0.198-0.397-0.406-0.483c-0.202-0.087-0.438-0.069-0.627,0.048
				l-33.401,20.348l0.068,0.454l34.146-19.853C217.124,138.471,217.214,138.262,217.167,138.061z"/>
			<path fill="#ADAB90" d="M181.914,158.34c-0.068-0.169-0.126-0.344-0.179-0.516c-5.575,3.038-9.538,5.246-9.35,6.298
				c0.159,0.884,3.879-1.337,10.046-4.823C182.233,158.999,182.054,158.681,181.914,158.34z"/>
			
				<rect x="210.41" y="139.548" transform="matrix(0.8839 -0.4677 0.4677 0.8839 -41.727 114.9483)" fill="#AA4856" width="0.503" height="3.942"/>
			
				<rect x="213.149" y="138.052" transform="matrix(0.885 -0.4657 0.4657 0.885 -40.6542 115.4825)" fill="#AA4856" width="0.505" height="3.942"/>
			
				<rect x="207.921" y="141.211" transform="matrix(0.8843 -0.4669 0.4669 0.8843 -42.767 113.7505)" fill="#AA4856" width="0.504" height="3.942"/>
			
				<rect x="204.903" y="142.911" transform="matrix(0.8851 -0.4653 0.4653 0.8851 -43.8542 112.1109)" fill="#AA4856" width="0.504" height="3.943"/>
			
				<rect x="202.13" y="144.329" transform="matrix(0.8843 -0.4669 0.4669 0.8843 -44.8928 111.4073)" fill="#AA4856" width="0.504" height="3.943"/>
		</g>
		<path opacity="0.6" fill="#F7F5D5" d="M220.618,135.974c-1.344-2.496-4.344-0.952-7.735,0.448
			c-3.393,1.401-5.74,3.511-5.244,4.712c0.495,1.199,3.646,1.036,7.041-0.366C218.067,139.369,221.236,137.118,220.618,135.974z"/>
	</g>
	<path fill="#FFCD9C" d="M241.218,112.157c-0.174-2.227-6.013-3.53-13.051-2.915c-7.038,0.619-12.608,2.923-12.438,5.149
		c0.168,2.226,14.252,11.721,18.503,13.504C238.911,123.854,241.386,114.384,241.218,112.157z"/>
	<polygon fill="#FFCD9C" points="233.558,96.607 223.87,96.875 223.094,118.653 234.665,118.115 	"/>
	<path fill="#C69383" d="M215.42,483.158h13.135c0,0-2.478-5.578-6.692-5.578C218.393,477.58,215.42,483.158,215.42,483.158z"/>
	<path fill="#C69383" d="M300.431,483.158h17.101c0,0-8.923-4.834-13.137-4.834C300.924,478.324,300.431,483.158,300.431,483.158z"
		/>
	<path fill="#FFCD9C" d="M208.78,80.641c-0.654-3.051-2.571-5.228-4.281-4.865c-1.711,0.364-2.568,3.131-1.912,6.182
		c0.653,3.049,4.467,5.017,6.178,4.651C210.475,86.247,209.434,83.693,208.78,80.641z"/>
	<path fill="#F4AD7D" d="M208.044,81.124c-0.439-2.08-1.742-3.563-2.907-3.314c-1.165,0.248-1.754,2.133-1.312,4.211
		c0.44,2.079,3.034,3.418,4.201,3.169C209.19,84.943,208.485,83.203,208.044,81.124z"/>
	<path fill="#FFCD9C" d="M208.661,83.434c-0.251-1.229-1.015-2.104-1.701-1.957c-0.688,0.147-1.041,1.261-0.789,2.489
		c0.253,1.228,1.775,2.019,2.464,1.871C209.322,85.689,208.914,84.663,208.661,83.434z"/>
	<path fill="#FFCD9C" d="M250.003,79.341c0.653-3.052,2.569-5.228,4.281-4.865c1.709,0.364,2.567,3.131,1.91,6.182
		c-0.654,3.049-4.467,5.017-6.178,4.651C248.308,84.946,249.35,82.393,250.003,79.341z"/>
	<path fill="#F4AD7D" d="M250.566,79.975c0.473-2.212,1.864-3.791,3.104-3.528c1.242,0.264,1.864,2.271,1.388,4.484
		c-0.476,2.212-3.241,3.639-4.482,3.374C249.337,84.041,250.094,82.189,250.566,79.975z"/>
	<path fill="#FFCD9C" d="M250.195,82.355c0.283-1.292,1.098-2.212,1.82-2.059c0.722,0.153,1.079,1.324,0.793,2.615
		c-0.283,1.29-1.898,2.123-2.62,1.969C249.467,84.727,249.913,83.646,250.195,82.355z"/>
	<path fill="#EF8F94" d="M177.103,200.971c-7.324-0.417,15.414-75.128,27.846-81.02C217.38,114.059,186.582,201.51,177.103,200.971z
		"/>
	<path fill="#E27474" d="M183.771,194.006c11.743-19.495,25.828-57.202,22.854-63.77
		C205.012,140.894,193.592,175.345,183.771,194.006z"/>
	<path opacity="0.5" fill="#BA4A4A" d="M257.058,121.257c-2.489-4.084-5.501-7.884-8.959-11.042c0.32-1.481,0.46-2.673,0.392-3.42
		c-0.343-3.826-6.399-6.425-14.764-6.884l-0.169-3.304l-9.688,0.268l-0.123,3.447c-12.598,1.628-22.357,6.958-21.896,12.031
		c0.126,1.388,1.074,4.096,2.631,7.277c-0.201,0.322-0.398,0.649-0.593,0.976c-0.662,0.491-1.351,1.16-2.055,1.969
		c7.035,2.537,16.091,4.066,25.979,4.066C239.31,126.643,249.682,124.574,257.058,121.257z"/>
	<path fill="#FFCD9C" d="M249.663,59.375l0.085-0.002c0,0-1.984-13.417-13.755-17.221c-3.241-1.047-6.197,3.905-6.197,3.905
		s-4.585-2.703-10.781-1.201c-5.724,1.387-10.657,9.712-10.906,15.119h0.015c-0.602,2.776-0.733,6.28-0.387,10.719
		c1.045,13.435,8.837,29.19,21.609,34.836c11.426-5.646,20.556-24.002,20.991-35.29C250.513,65.68,250.292,62.14,249.663,59.375z"/>
	<defs>
		<filter id="Adobe_OpacityMaskFilter" filterUnits="userSpaceOnUse" x="207.549" y="42.006" width="42.847" height="63.524">
			<feFlood  style="flood-color:white;flood-opacity:1" result="back"/>
			<feBlend  in="SourceGraphic" in2="back" mode="normal"/>
		</filter>
	</defs>
	<mask maskUnits="userSpaceOnUse" x="207.549" y="42.006" width="42.847" height="63.524" id="SVGID_1_">
		<g filter="url(#Adobe_OpacityMaskFilter)">
			<defs>
				<filter id="Adobe_OpacityMaskFilter_1_" filterUnits="userSpaceOnUse" x="207.549" y="42.006" width="42.847" height="63.524">
					<feFlood  style="flood-color:white;flood-opacity:1" result="back"/>
					<feBlend  in="SourceGraphic" in2="back" mode="normal"/>
				</filter>
			</defs>
			<mask maskUnits="userSpaceOnUse" x="207.549" y="42.006" width="42.847" height="63.524" id="SVGID_1_">
				<g filter="url(#Adobe_OpacityMaskFilter_1_)">
				</g>
			</mask>
			<linearGradient id="SVGID_2_" gradientUnits="userSpaceOnUse" x1="223.7212" y1="13.7837" x2="230.7846" y2="85.1613">
				<stop  offset="0.2097" style="stop-color:#FFFFFF"/>
				<stop  offset="1" style="stop-color:#000000"/>
			</linearGradient>
			<path mask="url(#SVGID_1_)" fill="url(#SVGID_2_)" d="M249.663,59.375l0.085-0.002c0,0-1.984-13.417-13.755-17.221
				c-3.241-1.047-6.197,3.905-6.197,3.905s-4.585-2.703-10.781-1.201c-5.724,1.387-10.657,9.712-10.906,15.119h0.015
				c-0.602,2.776-0.733,6.28-0.387,10.719c1.045,13.435,8.837,29.19,21.609,34.836c11.426-5.646,20.556-24.002,20.991-35.29
				C250.513,65.68,250.292,62.14,249.663,59.375z"/>
		</g>
	</mask>
	<linearGradient id="SVGID_3_" gradientUnits="userSpaceOnUse" x1="223.7212" y1="13.7837" x2="230.7846" y2="85.1613">
		<stop  offset="0.2097" style="stop-color:#FF430C"/>
		<stop  offset="1" style="stop-color:#FFCC92"/>
	</linearGradient>
	<path opacity="0.6" fill="url(#SVGID_3_)" d="M249.663,59.375l0.085-0.002c0,0-1.984-13.417-13.755-17.221
		c-3.241-1.047-6.197,3.905-6.197,3.905s-4.585-2.703-10.781-1.201c-5.724,1.387-10.657,9.712-10.906,15.119h0.015
		c-0.602,2.776-0.733,6.28-0.387,10.719c1.045,13.435,8.837,29.19,21.609,34.836c11.426-5.646,20.556-24.002,20.991-35.29
		C250.513,65.68,250.292,62.14,249.663,59.375z"/>
	<path fill="#FF9CA6" d="M278.909,318.626c-0.253-1.625-1.343-2.809-2.432-2.643c-1.087,0.166-1.764,1.618-1.51,3.244
		c0.253,1.624,1.343,2.809,2.432,2.643C278.487,321.705,279.164,320.253,278.909,318.626z"/>
	<path fill="#FF9CA6" d="M281.139,336.223c-0.253-1.623-1.341-2.808-2.431-2.644c-1.087,0.167-1.765,1.619-1.51,3.245
		c0.254,1.625,1.343,2.809,2.433,2.644C280.718,339.301,281.395,337.849,281.139,336.223z"/>
	<path fill="#FF9CA6" d="M282.822,367.737c-0.253-1.625-1.342-2.809-2.432-2.644c-1.087,0.166-1.764,1.618-1.509,3.244
		c0.253,1.625,1.343,2.809,2.431,2.643C282.401,370.813,283.078,369.361,282.822,367.737z"/>
	<path fill="#FF9CA6" d="M289.515,383.103c-0.253-1.623-1.343-2.809-2.432-2.643s-1.766,1.618-1.511,3.244
		c0.254,1.625,1.344,2.808,2.433,2.644C289.093,386.181,289.769,384.729,289.515,383.103z"/>
	<path fill="#FF9CA6" d="M292.239,410.613c-0.253-1.624-1.341-2.809-2.431-2.643c-1.087,0.165-1.765,1.617-1.51,3.244
		c0.253,1.625,1.343,2.808,2.433,2.642C291.818,413.69,292.495,412.238,292.239,410.613z"/>
	<path fill="#FF9CA6" d="M222.102,401.194c-0.253-1.624-1.343-2.809-2.431-2.643c-1.089,0.167-1.766,1.619-1.511,3.245
		c0.254,1.624,1.344,2.809,2.433,2.642C221.68,404.272,222.356,402.82,222.102,401.194z"/>
	<path fill="#FF9CA6" d="M221.11,430.936c-0.253-1.624-1.341-2.809-2.431-2.643c-1.087,0.165-1.764,1.617-1.509,3.244
		c0.254,1.625,1.343,2.809,2.433,2.643C220.689,434.013,221.366,432.561,221.11,430.936z"/>
	<path fill="#FF9CA6" d="M256.852,279.716c-0.253-1.624-1.342-2.809-2.432-2.643c-1.087,0.167-1.764,1.619-1.51,3.243
		c0.254,1.626,1.343,2.809,2.433,2.645C256.43,282.794,257.107,281.342,256.852,279.716z"/>
	<path fill="#FF9CA6" d="M268.748,257.906c-0.254-1.624-1.342-2.809-2.432-2.643c-1.087,0.166-1.764,1.618-1.51,3.244
		c0.255,1.624,1.343,2.808,2.433,2.644C268.326,260.984,269.003,259.532,268.748,257.906z"/>
	<path fill="#FF9CA6" d="M251.841,257.448c-0.253-1.623-1.341-2.808-2.431-2.642c-1.087,0.167-1.764,1.619-1.509,3.244
		c0.254,1.624,1.343,2.809,2.433,2.644C251.42,260.527,252.097,259.075,251.841,257.448z"/>
	<path fill="#FF9CA6" d="M222.598,255.713c-0.253-1.625-1.343-2.809-2.431-2.643c-1.087,0.167-1.764,1.619-1.511,3.244
		c0.254,1.626,1.344,2.809,2.433,2.644C222.177,258.791,222.854,257.339,222.598,255.713z"/>
	<path fill="#FF9CA6" d="M225.074,287.684c-0.251-1.624-1.341-2.809-2.43-2.642c-1.089,0.166-1.766,1.618-1.511,3.244
		c0.254,1.624,1.344,2.809,2.433,2.643C224.653,290.764,225.33,289.312,225.074,287.684z"/>
	<path fill="#FF9CA6" d="M211.691,269.345c-0.253-1.625-1.341-2.809-2.431-2.642c-1.087,0.166-1.764,1.618-1.51,3.243
		c0.254,1.624,1.343,2.809,2.433,2.643C211.271,272.424,211.947,270.972,211.691,269.345z"/>
	<path fill="#FF9CA6" d="M226.067,228.452c-0.253-1.624-1.343-2.808-2.431-2.643c-1.087,0.166-1.764,1.619-1.51,3.244
		c0.253,1.625,1.343,2.808,2.431,2.643C225.646,231.53,226.323,230.078,226.067,228.452z"/>
	<path fill="#FF9CA6" d="M255.312,240.596c-0.251-1.624-1.341-2.809-2.43-2.643c-1.089,0.166-1.766,1.618-1.511,3.244
		c0.254,1.625,1.343,2.808,2.433,2.643C254.89,243.674,255.567,242.221,255.312,240.596z"/>
	<path fill="#FF9CA6" d="M256.303,218.786c-0.253-1.625-1.343-2.809-2.431-2.643c-1.088,0.167-1.764,1.619-1.511,3.244
		c0.254,1.625,1.344,2.809,2.433,2.643C255.882,221.864,256.559,220.412,256.303,218.786z"/>
	<path fill="#FF9CA6" d="M233.254,203.667c-0.253-1.625-1.343-2.809-2.431-2.643c-1.088,0.167-1.764,1.619-1.511,3.244
		c0.254,1.625,1.344,2.809,2.433,2.643C232.833,206.746,233.51,205.293,233.254,203.667z"/>
	<path fill="#FF9CA6" d="M247.875,191.028c-0.253-1.625-1.341-2.809-2.431-2.643c-1.087,0.166-1.764,1.618-1.51,3.244
		c0.253,1.625,1.343,2.809,2.433,2.643C247.455,194.106,248.131,192.654,247.875,191.028z"/>
	<path fill="#FF9CA6" d="M250.78,143.127c-0.923-1.361-2.413-1.967-3.327-1.352s-0.905,2.217,0.019,3.579
		c0.923,1.36,2.414,1.966,3.328,1.351C251.712,146.09,251.704,144.488,250.78,143.127z"/>
	<path fill="#FF9CA6" d="M252.515,127.514c-0.921-1.362-2.414-1.967-3.327-1.353c-0.914,0.615-0.905,2.217,0.019,3.579
		c0.923,1.36,2.414,1.966,3.328,1.351C253.448,130.476,253.439,128.874,252.515,127.514z"/>
	<path fill="#FF9CA6" d="M226.589,130.149c-0.793-1.441-2.222-2.182-3.19-1.654c-0.965,0.527-1.106,2.124-0.312,3.565
		c0.794,1.44,2.221,2.18,3.19,1.653C227.244,133.185,227.384,131.589,226.589,130.149z"/>
	<path fill="#FF9CA6" d="M202.768,130.555c-0.253-1.624-1.341-2.808-2.431-2.643c-1.087,0.167-1.764,1.619-1.509,3.244
		c0.254,1.625,1.343,2.808,2.433,2.643C202.347,133.633,203.023,132.181,202.768,130.555z"/>
	<path fill="#FF9CA6" d="M192.606,160.544c-0.251-1.625-1.341-2.809-2.43-2.644c-1.088,0.167-1.765,1.619-1.511,3.244
		c0.254,1.625,1.343,2.809,2.433,2.644C192.186,163.622,192.862,162.169,192.606,160.544z"/>
	<path fill="#FF9CA6" d="M281.097,189.842c0.584-1.537,0.225-3.105-0.804-3.499s-2.336,0.533-2.918,2.072
		c-0.584,1.538-0.222,3.105,0.807,3.5C279.21,192.309,280.514,191.381,281.097,189.842z"/>
	<path fill="#FF9CA6" d="M287.294,169.519c0.584-1.536,0.223-3.104-0.806-3.499c-1.027-0.393-2.334,0.534-2.917,2.072
		c-0.584,1.539-0.223,3.106,0.806,3.5C285.405,171.986,286.711,171.059,287.294,169.519z"/>
	<path fill="#FF9CA6" d="M271.965,172.916c-0.497-1.566-1.753-2.569-2.803-2.239c-1.051,0.331-1.497,1.87-0.998,3.437
		c0.497,1.566,1.754,2.569,2.806,2.239C272.02,176.021,272.466,174.483,271.965,172.916z"/>
	<path fill="#FF9CA6" d="M269.488,157.302c-0.499-1.566-1.754-2.569-2.804-2.239c-1.051,0.331-1.498,1.87-0.999,3.437
		c0.5,1.567,1.755,2.57,2.807,2.24C269.542,160.407,269.988,158.87,269.488,157.302z"/>
	<path fill="#FF9CA6" d="M298.57,150.652c0.584-1.536,0.225-3.104-0.804-3.499c-1.028-0.394-2.336,0.534-2.918,2.072
		c-0.584,1.539-0.222,3.106,0.807,3.5C296.684,153.12,297.988,152.192,298.57,150.652z"/>
	<path fill="#FF9CA6" d="M211.205,298.878c0.189-1.635-0.545-3.066-1.64-3.196c-1.092-0.128-2.132,1.092-2.319,2.726
		c-0.188,1.636,0.55,3.065,1.642,3.194C209.981,301.731,211.019,300.512,211.205,298.878z"/>
	<path fill="#FF9CA6" d="M218.884,321.432c-0.217-1.63-1.282-2.836-2.374-2.692c-1.093,0.144-1.8,1.581-1.58,3.212
		c0.222,1.63,1.284,2.836,2.378,2.692C218.398,324.5,219.107,323.063,218.884,321.432z"/>
	<path fill="#FF9CA6" d="M266.477,306.361c-0.181-1.634-1.216-2.866-2.312-2.75c-1.092,0.118-1.835,1.538-1.652,3.174
		c0.182,1.634,1.217,2.866,2.311,2.75C265.917,309.418,266.659,307.995,266.477,306.361z"/>
	<path fill="#FF9CA6" d="M275.634,288.181c-0.253-1.623-1.342-2.809-2.432-2.644c-1.087,0.167-1.764,1.619-1.509,3.245
		c0.254,1.624,1.343,2.808,2.433,2.643C275.213,291.259,275.89,289.807,275.634,288.181z"/>
	<path fill="#EF8F94" d="M213.934,158.118c5.831,3.285-24.656,43.677-35.945,43.089
		C166.691,200.619,206.399,153.868,213.934,158.118z"/>
	<g>
		<path fill="#F4AD7D" d="M221.931,149.861c-0.624-0.303-1.281,0.76-1.842,2.06c-0.563,1.298-0.818,2.342-0.197,2.646
			c0.625,0.302,1.588-0.502,2.148-1.799C222.602,151.466,222.554,150.166,221.931,149.861z"/>
		<path fill="#F4AD7D" d="M223.306,151.28c-0.625-0.304-1.28,0.759-1.845,2.06c-0.564,1.295-0.818,2.337-0.194,2.645
			c0.625,0.304,1.584-0.502,2.146-1.802C223.976,152.884,223.926,151.583,223.306,151.28z"/>
		<path fill="#FFCD9C" d="M217.884,148.036c-0.399,0.581,0.926,1.841,2.547,3.097c1.626,1.261,2.936,2.041,3.338,1.458
			c0.401-0.579-0.588-2.075-2.215-3.33C219.936,148,218.289,147.453,217.884,148.036z"/>
		<path fill="#FFCD9C" d="M211.701,158.534c0.956-1.972,3.055-7.791,5.29-10.086c0.864-0.885,1.747-0.707,2.594-0.381
			c2.727,1.048,4.503,6.191-5.725,12.37L211.701,158.534z"/>
	</g>
	<path fill="#FF9CA6" d="M181.219,194.055c0.157-1.635-0.604-3.053-1.7-3.162c-1.095-0.109-2.111,1.131-2.267,2.769
		c-0.156,1.637,0.606,3.053,1.701,3.164C180.048,196.933,181.063,195.693,181.219,194.055z"/>
	<path fill="#FF9CA6" d="M207.119,171.966c0.584-1.537,0.223-3.104-0.805-3.5c-1.027-0.393-2.334,0.534-2.917,2.073
		c-0.584,1.538-0.223,3.106,0.805,3.5C205.23,174.433,206.536,173.505,207.119,171.966z"/>
	<path fill="#FF9CA6" d="M192.002,180.889c0.583-1.536,0.223-3.104-0.805-3.499c-1.028-0.393-2.335,0.534-2.917,2.072
		c-0.584,1.538-0.223,3.105,0.805,3.5C190.114,183.356,191.42,182.428,192.002,180.889z"/>
	<path fill="#894634" d="M232.533,62.18c3.841,4.412,6.583,5.4,11.868,5.549C236.94,69.013,233.749,64.444,232.533,62.18z"/>
	<path fill="#894634" d="M211.165,69.101c6.09-0.08,9.186-1.241,13.315-6.582C223.233,65.275,219.859,70.824,211.165,69.101z"/>
	<path fill="#5B371E" d="M235.307,72.546c0.062,1.602,1.01,2.854,2.121,2.797c1.112-0.056,1.963-1.397,1.902-2.998
		c-0.062-1.6-0.74-0.778-1.851-0.723C236.368,71.676,235.245,70.944,235.307,72.546z"/>
	<path fill="#5B371E" d="M233.225,70.424c2.183,1.626,4.995,3.04,8.56,0.339C238.298,71.616,235.952,71.129,233.225,70.424z"/>
	<path fill="#5B371E" d="M222.096,72.729c0.109,1.598-0.706,2.943-1.815,3.002c-1.11,0.063-2.098-1.183-2.203-2.782
		c-0.107-1.598,0.488-1.223,1.597-1.283C220.786,71.603,221.991,71.129,222.096,72.729z"/>
	<path fill="#5B371E" d="M224.084,70.037c-1.943,1.898-4.538,3.67-8.417,1.468C219.225,71.888,221.48,71.096,224.084,70.037z"/>
	<path fill="#F4AD7D" d="M226.926,86.487c0.008,0.074,1.66,0.479,2.247,0.479c0.994,0,2.199-0.396,2.243-0.528
		c0.1-0.318-1.54-3.864-2.12-3.896C228.713,82.508,226.885,86.024,226.926,86.487z"/>
	<path fill="#FFCD9C" d="M228.311,85.879c0.001,0.072,0.667,0.185,0.902,0.185c0.399,0,0.883-0.104,0.901-0.232
		c0.04-0.31,0.358-3.833-0.852-3.8C227.936,82.068,228.293,85.428,228.311,85.879z"/>
	<path fill="#F4AD7D" d="M244.3,85.597c-0.16-0.887-1.381-1.503-2.824-1.416c-1.556,0.096-2.906,0.974-2.906,2.014
		c0,1.11,1.518,1.838,3.252,1.572C243.418,87.525,244.472,86.54,244.3,85.597z"/>
	<path fill="#F4AD7D" d="M213.521,85.348c0.163-0.886,1.4-1.503,2.859-1.416c1.572,0.097,2.941,0.976,2.941,2.014
		c0,1.11-1.538,1.838-3.291,1.576C214.419,87.276,213.349,86.291,213.521,85.348z"/>
	<g>
		<path fill="#EF9673" d="M232.292,93.541c0-1.077-1.457-0.973-3.336-0.973c-1.874,0-3.46-0.104-3.46,0.973
			c0,1.075,1.52,1.944,3.396,1.944C230.77,95.485,232.292,94.615,232.292,93.541z"/>
		<path fill="#EF9673" d="M233.059,93.012c-1.681-3.11-3.874-1.994-4.528-1.955c-0.824,0.049-2.521-0.827-3.625,2.031
			c-0.419,1.095,1.652-0.25,4.109-0.396C231.468,92.545,233.633,94.067,233.059,93.012z"/>
		<path fill="#934935" d="M233.059,93.616c0.094-0.149,0.147-0.025,0.207-0.185c-1.128-0.548-2.536-0.941-4.275-0.941
			c-1.95,0-3.479,0.492-4.667,1.144c0.07,0.148,0.041,0.023,0.148,0.16C227.124,92.45,231.337,92.84,233.059,93.616z"/>
	</g>
	<path fill="#894634" d="M193.363,117.473c-0.991-4.833-7.436-41.637,0.991-58.861l-5.576-0.743
		C184.401,80.943,188.481,101.854,193.363,117.473z"/>
	<path fill="#894634" d="M194.306,101.851c0.239-4.927,3.13-42.179,15.571-56.772l-13.292,4.239
		C186.619,70.584,193.453,85.509,194.306,101.851z"/>
	<path fill="#894634" d="M210.159,66.949c2.342-1.788,5.233-7.023,3.718-10.605c-1.515-3.581,0.551-9.917,4.684-12.259l-2.478-0.964
		c0,0-6.524,5.827-3.446,13.084C214.567,60.751,210.159,66.949,210.159,66.949z"/>
	<path fill="#E1FFFC" d="M240.459,56.678c-0.336,2.083-1.216,6.985,0.879,6.501C243.434,62.697,240.459,56.678,240.459,56.678z"/>
	<path fill="#E1FFFC" d="M234.446,47.037c-0.343,2.126-1.242,7.123,0.896,6.629C237.478,53.175,234.446,47.037,234.446,47.037z"/>
	<path fill="#E1FFFC" d="M242.849,47.945c-0.42,1.765-1.481,5.908,0.349,5.625C245.027,53.291,242.849,47.945,242.849,47.945z"/>
	<path fill="#F98275" d="M237.356,82.436c0-0.869-3.89-3.229-8.339-3.229c-4.448,0-7.772,2.361-7.772,3.229
		c0,0.869,3.324-0.083,7.772-0.083C233.466,82.353,237.356,83.305,237.356,82.436z"/>
</g>
</svg>
