<?xml version="1.0" encoding="utf-8"?>
<!-- Generator: Adobe Illustrator 15.1.0, SVG Export Plug-In . SVG Version: 6.00 Build 0)  -->
<!DOCTYPE svg PUBLIC "-//W3C//DTD SVG 1.1//EN" "http://www.w3.org/Graphics/SVG/1.1/DTD/svg11.dtd">
<svg version="1.1" id="Layer_35" xmlns="http://www.w3.org/2000/svg" xmlns:xlink="http://www.w3.org/1999/xlink" x="0px" y="0px"
	 width="194.667px" height="512px" viewBox="161.167 0 194.667 512" enable-background="new 161.167 0 194.667 512"
	 xml:space="preserve">
<g>
	<path fill="#AF602B" d="M229.637,111.879c-3.14-3.401-39.94-61.822,3.922-85.017c49.966-26.42,65.397,50.747,34.008,83.968
		L229.637,111.879z"/>
	<path fill="#7A411A" d="M265.965,110.83c10.566-12.204,13.314-31.007,8.236-46.977c-3.999-12.577-11.575-18.064-23.748-18.064
		c-14.769,0-26.663,8.579-29.064,25.13c-2.925,20.157,8.231,39.086,9.817,40.959L265.965,110.83z"/>
	<path fill="#61B4D6" d="M212.917,464.435c5.771-51.868,13.851-85.56,17.822-91.211c3.968-5.652,15.356-15.591,15.356-20.536
		c0-4.944-38.929-74.938-28.854-115.208c10.076-40.276,63.151-33.539,70.389-3.444c14.553,60.517-13.182,105.352-12.534,118.037
		c0.335,6.595,9.82,12.187,13.982,21.151c4.338,9.348,3.856,34.429,20.246,91.211h-3.812c0,0-37.607-88.277-38.615-110.885
		c-1.007-22.604-2.952-83.087-7.23-85.58c-6.042-3.534-10.328-2.919-11.089,1.475c-1.341,7.774,9.206,79.378,8.196,83.615
		c-1.01,4.237-38.567,98.652-38.567,111.375H212.917z"/>
	<path fill="#4DA2BC" d="M253.446,361.392c4.138-5.525-5.626-5.514-5.626-10.46c0-4.945-30.345-60.4-25.506-99.899
		c20.742,18.111,69.051-0.33,66.794-7.57c1.935-20.409-63.662-22.136-61.364-24.659c-4.738,4.482-8.487,10.624-10.502,18.676
		c-10.072,40.271,28.854,110.264,28.854,115.208c0,4.945-11.389,14.884-15.356,20.536c-3.971,5.651-12.051,39.343-17.822,91.211
		h5.291C218.208,463.96,217.675,409.158,253.446,361.392"/>
	<path fill="#4DA2BC" d="M307.236,462.675c0,0-23.613-84.653-36.014-106.637c-4.711-8.353-2.577-86.612-6.853-89.108
		c-5.231-3.059-12.126-3.719-13.571-0.795c1.968-0.965,5.07-0.385,8.869,1.834c4.278,2.494,6.224,62.977,7.23,85.581
		c1.008,22.607,38.615,110.885,38.615,110.885h3.813c-0.171-0.601-0.333-1.172-0.499-1.76H307.236z"/>
	<path fill="#C45C6C" d="M235.495,110.501c-4.276-5.051-40.168,46.294-34.535,49.224
		C209.832,164.336,243.704,120.187,235.495,110.501"/>
	<path fill="#B2475B" d="M234.94,109.973c-1.379-1.701-9.217,7.085-17.65,18.399c0.422,6.251-0.264,13.882-2.201,21.91
		c-0.4,1.655-0.842,3.272-1.316,4.84C226.445,139.18,239.12,115.137,234.94,109.973"/>
	<path fill="#C45C6C" d="M261.204,109.149c-0.515,5.55,52.591,57.576,59.528,52.075C329.686,154.12,271.272,102.952,261.204,109.149
		"/>
	<path fill="#B2475B" d="M293.504,143.43c-9.854-10.573-16.721-21.828-19.517-30.925c-5.823-3.241-10.523-4.747-12.783-3.356
		c-0.32,3.444,19.979,24.752,37.103,39.137C296.691,146.744,295.087,145.127,293.504,143.43"/>
	<path fill="#C45C6C" d="M234.605,186.352c0.596-11.624-13.995-30.148-18.667-38.342c5.06-12.59,12.417-45.292,34.598-46.09
		c22.188-0.8,34.291,46.09,34.291,46.09s-14.853,19.839-14.073,37.828c0.859,19.829,14.684,35.453,19.743,56.639
		c-19.623,12.514-58.392,12.571-75.562,0.741C219.213,218.434,233.826,201.54,234.605,186.352"/>
	<path fill="#B2475B" d="M214.935,243.217c1.419,0.977,2.999,1.867,4.693,2.683c0.122-1.45,0.273-2.914,0.492-4.413
		c3.81-25.904,16.562-47.412,33.337-47.412c16.773,0,25.733,22.229,30.866,47.905c0.234,1.177,0.417,2.346,0.568,3.502
		c1.996-0.904,3.877-1.906,5.604-3.006c-5.058-21.187-18.882-36.811-19.741-56.639c-0.779-17.989,14.073-37.828,14.073-37.828
		s-41.829,15.08-68.742-0.379c-0.047,0.122-0.098,0.257-0.146,0.379c4.674,8.194,19.264,26.719,18.667,38.342
		C233.828,201.54,219.215,218.434,214.935,243.217"/>
	<polygon fill="#FF859C" points="252.334,130.083 245.823,130.083 246.519,154.499 254.426,154.036 	"/>
	<path fill="#FF859C" d="M237.917,125.667c0.8,5.694,16.16,9.219,20.462,1.86c4.31-7.358,2.728-27.029-6.218-27.029
		C238.847,100.499,236.126,112.887,237.917,125.667"/>
	<path fill="#FFCD9C" d="M239.777,123.109c0.744,5.44,12.498,7.965,16.509,0.93c4.014-7.035,4.33-23.149-4.009-23.149
		C239.87,100.89,238.106,110.891,239.777,123.109"/>
	<polygon fill="#FFCD9C" points="254.033,87.394 242.415,87.783 241.059,110.827 256.746,110.439 	"/>
	<path fill="#FFCD9C" d="M288.526,221.08c-1.699,5.728,41.858-62.533,31.887-65.378C309.511,152.591,293.461,204.447,288.526,221.08
		"/>
	<path fill="#F4AD7D" d="M311.173,170.978c2.296,0,4.544,0.174,6.734,0.492c3.761-8.518,5.42-14.936,2.504-15.769
		c-4.168-1.189-9.09,5.667-13.856,15.509C308.073,171.062,309.612,170.978,311.173,170.978"/>
	<path fill="#C69383" d="M211.469,466.565h18.484c0,0-6.974-5.751-12.905-5.751C212.165,460.814,211.469,466.565,211.469,466.565"/>
	<path fill="#C69383" d="M310.262,466.44h-17.748c0,0,9.258-6.583,13.633-6.583C309.749,459.857,310.262,466.44,310.262,466.44"/>
	<path fill="#B2475B" d="M249.937,197.354c-8.05,1.944-21.83,11.132-19.969,37.355c0,0-8.668-16.188,1.765-30.186
		C237.726,196.482,249.937,197.354,249.937,197.354"/>
	<path fill="#B2475B" d="M283.83,232.476c0.546,3.674-0.929,9.815-14.467,13.504c0,0,10.205,0.324,18.73-7.584L283.83,232.476z"/>
	<path fill="#F4AD7D" d="M285.769,225.115c-0.584-0.65,0.433-1.85,1.767-3.02c1.33-1.175,2.475-1.876,3.057-1.233
		c0.584,0.652-0.016,2.128-1.346,3.297C287.909,225.331,286.354,225.759,285.769,225.115"/>
	<path fill="#F4AD7D" d="M287.947,226.259c-0.588-0.645,0.433-1.846,1.765-3.019c1.328-1.175,2.469-1.874,3.057-1.229
		c0.588,0.65-0.018,2.123-1.349,3.295C290.088,226.479,288.528,226.906,287.947,226.259"/>
	<path fill="#FFCD9C" d="M282.142,220.855c0.539-0.706,2.515,0.441,4.585,1.951c2.083,1.511,3.481,2.822,2.938,3.533
		c-0.541,0.706-2.669,0.056-4.745-1.46C282.844,223.37,281.598,221.565,282.142,220.855"/>
	<path fill="#FFCD9C" d="M292.308,209.376c-1.983,1.905-8.104,6.644-10.006,10.234c-0.732,1.386-0.202,2.396,0.492,3.307
		c2.232,2.938,8.959,3.187,12.548-11.615L292.308,209.376z"/>
	<g opacity="0.5">
		<g>
			<defs>
				<rect id="SVGID_1_" x="232.101" y="108.691" width="34.434" height="40.229"/>
			</defs>
			<clipPath id="SVGID_2_">
				<use xlink:href="#SVGID_1_"  overflow="visible"/>
			</clipPath>
			<path clip-path="url(#SVGID_2_)" fill="#BA4A4A" d="M258.146,148.919c-8.648-2.714-32.439-15.056-24.415-40.226l6.028,0.245
				c0,0,3.069,19.497,26.784,19.497L258.146,148.919z"/>
		</g>
	</g>
	<g opacity="0.5">
		<g>
			<defs>
				<rect id="SVGID_3_" x="234.024" y="99.203" width="33.954" height="21.814"/>
			</defs>
			<clipPath id="SVGID_4_">
				<use xlink:href="#SVGID_3_"  overflow="visible"/>
			</clipPath>
			<path clip-path="url(#SVGID_4_)" fill="#BA4A4A" d="M267.971,109.024c0-5.992-7.602-10.365-16.973-9.767
				c-9.375,0.598-16.975,5.945-16.975,11.937s7.6,10.366,16.975,9.768C260.369,120.364,267.971,115.019,267.971,109.024"/>
		</g>
	</g>
	<path fill="#F9C850" d="M260.938,146.594c-8.836-2.56-33.482-14.185-27.206-37.901l6.045,0.233c0,0,4.418,18.368,28.135,18.368
		L260.938,146.594z"/>
	<path fill="#EDAE3E" d="M249.407,122.071c-7.765-5.432-9.629-13.145-9.629-13.145l-6.045-0.235
		c-2.837,10.723,0.65,18.964,6.134,25.022C240.332,129.109,243.907,124.999,249.407,122.071"/>
	<path fill="#F9C850" d="M269.053,102.131c-0.447-9.909-5.686-11.723-20.211-11.065c-14.523,0.656-18.331,1.075-17.796,12.909
		C231.986,124.756,269.967,122.344,269.053,102.131"/>
	<path fill="#EDAE3E" d="M249.775,104.707c7.896,0,14.497,2.893,16.264,6.783c2.014-2.488,3.184-5.614,3.014-9.358
		c-0.447-9.911-5.686-11.723-20.209-11.067c-14.525,0.659-18.333,1.076-17.799,12.91c0.136,2.973,1.048,5.456,2.478,7.497
		C235.298,107.591,241.892,104.707,249.775,104.707"/>
	<g opacity="0.5">
		<g>
			<defs>
				<rect id="SVGID_5_" x="236.98" y="91.254" width="26.047" height="9.069"/>
			</defs>
			<clipPath id="SVGID_6_">
				<use xlink:href="#SVGID_5_"  overflow="visible"/>
			</clipPath>
			<path clip-path="url(#SVGID_6_)" fill="#BA4A4A" d="M263.031,95.789c0-2.505-5.832-4.535-13.023-4.535
				c-7.193,0-13.021,2.029-13.021,4.535c0,2.504,5.828,4.533,13.021,4.533C257.199,100.321,263.031,98.292,263.031,95.789"/>
		</g>
	</g>
	<path fill="#FF859C" d="M324.563,159.904c-0.164-6.383-1.876-10.424-5.357-10.738c-5.124-0.343-11.019,4.442-14.37,10.432
		C305.28,162.729,324.727,166.285,324.563,159.904"/>
	<g opacity="0.5">
		<g>
			<defs>
				<rect id="SVGID_7_" x="225.282" y="87.394" width="43.781" height="33.006"/>
			</defs>
			<clipPath id="SVGID_8_">
				<use xlink:href="#SVGID_7_"  overflow="visible"/>
			</clipPath>
			<path clip-path="url(#SVGID_8_)" fill="#BA4A4A" d="M267.922,109.63c0.018-0.2,0.049-0.401,0.049-0.605
				c0-0.205-0.031-0.405-0.049-0.607c0.115-0.261,0.214-0.532,0.313-0.805c0.04-0.11,0.089-0.212,0.127-0.322
				c0.153-0.459,0.272-0.932,0.379-1.416c0.033-0.153,0.06-0.314,0.089-0.471c0.067-0.372,0.118-0.749,0.156-1.139
				c0.014-0.16,0.033-0.316,0.042-0.481c0.034-0.538,0.049-1.087,0.024-1.652c-0.387-8.504-4.317-11.041-14.599-11.175l-0.421-3.564
				l-11.136,0.37c-0.164,0.019-0.322,0.043-0.485,0.061l-0.212,3.629c-9.061,0.767-11.596,2.752-11.154,12.522
				c0.033,0.711,0.117,1.389,0.233,2.046c0.024,0.141,0.064,0.277,0.094,0.416c0.109,0.525,0.238,1.036,0.396,1.524
				c0.037,0.106,0.076,0.206,0.113,0.31c0.186,0.527,0.396,1.033,0.64,1.518c0.024,0.047,0.048,0.092,0.073,0.139
				c0.164,0.322,0.331,0.642,0.517,0.944c-0.028,0.115-0.054,0.226-0.082,0.337c-0.128,0.153-0.259,0.299-0.388,0.452
				c-0.276,0.233-0.572,0.499-0.878,0.782c-0.058,0.052-0.117,0.108-0.176,0.166c-0.301,0.283-0.614,0.586-0.94,0.916
				c-0.042,0.039-0.083,0.083-0.125,0.125c-0.32,0.323-0.647,0.664-0.988,1.024c-0.037,0.04-0.077,0.08-0.115,0.124
				c-0.363,0.388-0.741,0.8-1.125,1.228c-0.056,0.063-0.113,0.127-0.168,0.189c-0.8,0.896-1.642,1.871-2.518,2.916
				c-0.042,0.05-0.083,0.097-0.123,0.147c-0.064,0.077-0.134,0.166-0.198,0.242C241.921,126.582,240.301,88.057,267.922,109.63"/>
		</g>
	</g>
	<path fill="#FFCD9C" d="M249.495,102.417c-7.557,0-24.57-22.506-17.543-50.166c1.422-5.591,6.998-8.805,17.543-8.805
		c11.606,0,16.909,3.415,17.756,7.944C273.226,83.402,257.229,102.417,249.495,102.417"/>
	<path fill="#FFCD9C" d="M232.986,78.638c-0.928-3.258-3.754-6.106-5.216-5.675c-1.464,0.433-1.897,3.423-0.967,6.68
		c0.925,3.258,3.959,4.072,5.421,3.641C233.688,82.853,233.913,81.896,232.986,78.638"/>
	<path fill="#F4AD7D" d="M232.13,79.229c-0.587-2.066-2.382-3.874-3.309-3.599c-0.93,0.274-1.205,2.17-0.616,4.237
		c0.586,2.065,2.513,2.583,3.441,2.309C232.576,81.903,232.72,81.298,232.13,79.229"/>
	<path fill="#FFCD9C" d="M232.772,80.352c-0.407-1.436-1.65-2.691-2.295-2.5c-0.645,0.191-0.838,1.509-0.428,2.946
		c0.405,1.433,1.74,1.794,2.387,1.601C233.08,82.209,233.179,81.787,232.772,80.352"/>
	<path fill="#FFCD9C" d="M266.219,78.356c1.101-3.177,3.968-5.828,5.327-5.307c1.354,0.521,1.566,3.523,0.466,6.699
		c-1.094,3.177-4.023,3.794-5.383,3.276C265.271,82.496,265.119,81.534,266.219,78.356"/>
	<path fill="#562F24" d="M252.133,62.443c2.612-0.536,8.292-1.003,11.317,6.012C260.402,64.203,258.036,62.615,252.133,62.443"/>
	<path fill="#562F24" d="M245.334,63.295c-2.516-0.847-8.068-2-11.909,4.59C236.956,64.039,239.482,62.751,245.334,63.295"/>
	<path fill="#5B371E" d="M259.707,73.396c-0.061-1.448-1.009-2.582-2.113-2.53c-1.109,0.048-1.956,1.264-1.895,2.712
		c0.061,1.448,1.008,2.58,2.114,2.528C258.921,76.059,259.77,74.844,259.707,73.396"/>
	<path fill="#5B371E" d="M262.151,73.056c-1.935-1.718-4.522-3.321-8.391-1.328C257.309,71.382,259.559,72.097,262.151,73.056"/>
	<path fill="#5B371E" d="M238.592,73.396c0.061-1.448,1.007-2.582,2.112-2.53c1.109,0.048,1.956,1.264,1.894,2.712
		c-0.061,1.448-1.007,2.58-2.112,2.528C239.376,76.059,238.533,74.844,238.592,73.396"/>
	<path fill="#5B371E" d="M236.147,73.056c1.935-1.718,4.521-3.321,8.388-1.328C240.989,71.382,238.741,72.097,236.147,73.056"/>
	<path fill="#F4AD7D" d="M247.11,83.619c0.005,0.146,1.652,0.944,2.236,0.944c0.989,0,2.192-0.781,2.234-1.04
		c0.099-0.627-1.532-7.608-2.111-7.675C248.889,75.786,247.066,82.71,247.11,83.619"/>
	<path fill="#FFCD9C" d="M248.487,82.421c0.001,0.143,0.666,0.365,0.899,0.365c0.398,0,0.881-0.205,0.899-0.456
		c0.04-0.612,0.358-7.549-0.85-7.483C248.115,74.92,248.471,81.534,248.487,82.421"/>
	<path fill="#F4AD7D" d="M264.041,81.359c-0.158-0.803-1.377-1.361-2.814-1.282c-1.549,0.087-2.895,0.88-2.895,1.822
		c0,1.003,1.512,1.662,3.24,1.422C263.162,83.103,264.214,82.212,264.041,81.359"/>
	<path fill="#F4AD7D" d="M235.335,81.644c0.164-0.803,1.396-1.361,2.85-1.282c1.567,0.087,2.93,0.883,2.93,1.822
		c0,1.005-1.532,1.664-3.279,1.426C236.229,83.388,235.163,82.498,235.335,81.644"/>
	<path fill="#F4AD7D" d="M251.832,89.689c0-0.849-1.088-0.769-2.493-0.769c-1.401,0-2.587-0.08-2.587,0.769
		c0,0.845,1.137,1.53,2.541,1.53C250.693,91.219,251.832,90.534,251.832,89.689"/>
	<path fill="#F4AD7D" d="M253.013,88.163c-1.273,2.128-3.149,1.572-3.729,1.572c-0.735,0-2.182,0.65-3.365-1.203
		c-0.454-0.709,1.447,0.372,3.639,0.372C251.749,88.903,253.446,87.438,253.013,88.163"/>
	<path fill="#5B371E" d="M249.365,91.671c3.425,0,5.155-2.118,5.757-3.062h0.256c0,0-1.612,3.507-6.013,3.507
		c-4.399,0-6.014-3.507-6.014-3.507h0.257C244.208,89.553,245.941,91.671,249.365,91.671"/>
	<path fill="#F4AD7D" d="M267.025,78.672c0.793-2.292,2.861-4.203,3.843-3.827c0.977,0.377,1.13,2.54,0.337,4.832
		c-0.789,2.295-2.903,2.739-3.885,2.365C266.342,81.661,266.232,80.968,267.025,78.672"/>
	<path fill="#FFCD9C" d="M266.422,80.37c0.398-1.158,1.439-2.126,1.936-1.937c0.491,0.189,0.57,1.283,0.17,2.441
		c-0.395,1.16-1.462,1.386-1.954,1.196C266.077,81.879,266.021,81.527,266.422,80.37"/>
	<path fill="#AF602B" d="M273.13,40.095c-3.25-7.718-8.758-12.766-12.312-11.271c-3.557,1.492-8.802,9.422-5.559,17.139
		c3.248,7.72,22.103,22.188,25.655,20.694C284.472,65.163,276.374,47.812,273.13,40.095"/>
	<path fill="#AF602B" d="M223.258,73.056c0,0,5.969-17.163,30.346-32.757c19.994-12.8-9.022-14.417-19.361-5.908
		C227.401,40.015,220.06,58.879,223.258,73.056"/>
	<path fill="#AF602B" d="M230.536,63.74c14.233-10.725,15.456-12.237,24.374-28.52l1.532,0.865
		C250.604,48.613,244.23,56.657,230.536,63.74"/>
	<path fill="#CE773C" d="M214.182,65.423c1.812-5.707,13.072-33.558,36.851-36.125c0,0-17.241-7.813-29.732,7.023
		C208.806,51.159,214.182,65.423,214.182,65.423"/>
	<path fill="#AF602B" d="M220.573,45.077c3.391-3.586,21.734-20.229,40.313-13.612c0,0-10.003-11.98-24.594-5.445
		C221.695,32.561,220.573,45.077,220.573,45.077"/>
	<path fill="#FFCD9C" d="M270.501,57.585c-1.304-0.327-8.487-8.482-8.05-10.006C262.889,46.057,270.501,57.585,270.501,57.585"/>
	<path fill="#FF859C" d="M202.193,159.92c5.79,2.691,10.17,2.956,12.002-0.024c2.587-4.436,0.923-11.844-2.95-17.509
		C208.242,141.392,196.405,157.229,202.193,159.92"/>
	<path fill="#FFCD9C" d="M235.82,201.908c3.841,2.309-20.199-56.051-33.057-49.48C192.552,157.642,227.229,196.743,235.82,201.908"
		/>
	<path fill="#4A3F4C" d="M272.756,300.963h-26.027c-4.076,0-7.392,3.316-7.392,7.393V428.1c0,4.076,3.316,7.39,7.392,7.39h26.027
		c4.076,0,7.392-3.313,7.392-7.39V308.355C280.147,304.279,276.832,300.963,272.756,300.963 M275.814,428.1
		c0,1.686-1.374,3.057-3.059,3.057h-26.027c-1.685,0-3.057-1.371-3.057-3.057V308.355c0-1.687,1.372-3.059,3.057-3.059h26.027
		c1.685,0,3.059,1.372,3.059,3.059V428.1z"/>
	<path fill="#312933" d="M243.672,428.1V308.355c0-1.687,1.372-3.059,3.057-3.059h-1.445c-1.685,0-3.057,1.372-3.057,3.059V428.1
		c0,1.686,1.372,3.057,3.057,3.057h1.445C245.044,431.156,243.672,429.785,243.672,428.1"/>
	<path fill="#312933" d="M272.756,300.963h-1.446c4.077,0,7.393,3.316,7.393,7.393V428.1c0,4.076-3.315,7.39-7.393,7.39h1.446
		c4.076,0,7.39-3.313,7.39-7.39V308.355C280.146,304.279,276.832,300.963,272.756,300.963"/>
	<path d="M283.037,343.938h-8.217c-0.2-0.156-4.003-7.042-14.986-7.042c-10.716,0-14.901,6.974-14.986,7.042h-8.581v-2.166
		l7.487-0.002c7.344-9.354,24.787-9.39,32.158,0.002h7.125V343.938z"/>
	<path d="M245.808,300.963c-4.364,0-7.915,3.316-7.915,7.393v12.832h6.348v-12.832c0-1.687,1.323-3.059,2.949-3.059h25.105
		c1.628,0,2.949,1.372,2.949,3.059v12.832h6.348v-12.832c0-4.076-3.552-7.393-7.914-7.393H245.808z"/>
	<path fill="#413854" d="M235.365,479.008h-1.624c-3.641,0-6.592-2.95-6.592-6.59h8.216V479.008z"/>
	<path d="M231.273,472.509c0.156,3.631,2.017,6.499,4.294,6.499s4.138-2.868,4.296-6.499H231.273z"/>
	<path fill="#413854" d="M287.101,479.008h-1.626c-3.641,0-6.592-2.95-6.592-6.59h8.218V479.008z"/>
	<path d="M283.008,472.509c0.156,3.631,2.017,6.499,4.294,6.499c2.278,0,4.139-2.868,4.297-6.499H283.008z"/>
	<path fill="#AA2B5F" d="M290.079,473.23h-62.118c-11.169,0-20.223-9.054-20.223-20.224V363.08c0-11.17,9.054-20.224,20.223-20.224
		h62.118c11.168,0,20.223,9.054,20.223,20.224v89.927C310.302,464.177,301.247,473.23,290.079,473.23"/>
	<path fill="#EA5088" d="M288.057,473.23h-58.072c-10.891,0-19.719-8.827-19.719-19.719v-90.936c0-10.892,8.828-19.72,19.719-19.72
		h58.072c10.89,0,19.719,8.828,19.719,19.72v90.936C307.775,464.403,298.946,473.23,288.057,473.23"/>
	<path fill="#E24283" d="M288.057,342.856h-23.655c10.89,0,19.719,8.828,19.719,19.72v90.936c0,10.892-8.829,19.719-19.719,19.719
		h23.655c10.89,0,19.719-8.827,19.719-19.719v-90.936C307.775,351.685,298.946,342.856,288.057,342.856"/>
	<path fill="#F4649F" d="M234.958,355.322c-2.159,0-3.909,1.751-3.909,3.908v103.367c0,2.158,1.75,3.909,3.909,3.909
		c0.079,0,0.153-0.007,0.229-0.013v-111.16C235.111,355.329,235.036,355.322,234.958,355.322"/>
	<path fill="#E24283" d="M235.187,355.334v111.16c2.052-0.119,3.678-1.814,3.678-3.896V359.23
		C238.865,357.149,237.239,355.452,235.187,355.334"/>
	<path fill="#F4649F" d="M248.548,355.322c-2.158,0-3.909,1.751-3.909,3.908v103.367c0,2.158,1.75,3.909,3.909,3.909
		c0.078,0,0.154-0.007,0.231-0.013v-111.16C248.702,355.329,248.626,355.322,248.548,355.322"/>
	<path fill="#E24283" d="M248.779,355.334v111.16c2.048-0.119,3.676-1.814,3.676-3.896V359.23
		C252.455,357.149,250.827,355.452,248.779,355.334"/>
	<path fill="#F4649F" d="M262.139,355.322c-2.158,0-3.908,1.751-3.908,3.908v103.367c0,2.158,1.75,3.909,3.908,3.909
		c0.077,0,0.154-0.007,0.23-0.013v-111.16C262.293,355.329,262.216,355.322,262.139,355.322"/>
	<path fill="#E24283" d="M262.369,355.334v111.16c2.052-0.119,3.679-1.814,3.679-3.896V359.23
		C266.048,357.149,264.421,355.452,262.369,355.334"/>
	<path fill="#F4649F" d="M275.729,355.322c-2.158,0-3.909,1.751-3.909,3.908v103.367c0,2.158,1.751,3.909,3.909,3.909
		c0.078,0,0.152-0.007,0.229-0.013v-111.16C275.882,355.329,275.808,355.322,275.729,355.322"/>
	<path fill="#E24283" d="M275.959,355.334v111.16c2.052-0.119,3.679-1.814,3.679-3.896V359.23
		C279.638,357.149,278.011,355.452,275.959,355.334"/>
	<g opacity="0.11">
		<g>
			<defs>
				<rect id="SVGID_9_" x="216.308" y="350.864" width="50.386" height="109.398"/>
			</defs>
			<clipPath id="SVGID_10_">
				<use xlink:href="#SVGID_9_"  overflow="visible"/>
			</clipPath>
			<path clip-path="url(#SVGID_10_)" fill="#F987B6" d="M266.688,405.564c0,30.208-11.277,54.698-25.19,54.698
				c-13.912,0-25.189-24.49-25.189-54.698c0-30.211,11.277-54.7,25.189-54.7C255.41,350.864,266.688,375.354,266.688,405.564"/>
		</g>
	</g>
	<path fill="#7E6C82" d="M242.228,310.106c0,2.519-0.8,4.563-1.788,4.563s-1.786-2.045-1.786-4.563c0-2.521,0.798-4.563,1.786-4.563
		S242.228,307.585,242.228,310.106"/>
	<rect x="275.729" y="325.686" fill="#1D266D" width="30.685" height="11.286"/>
	<path fill="#EBEBEB" d="M293.054,335.19c0.038-0.048,0.087-0.063,0.151-0.063c2.518,0.005,2.397-0.008,2.412,0.007
		c0.09,0.078,0.09,0.116,0,0.179c-0.018,0.013,0.135,0.005-2.405,0.009c-0.063,0-0.12-0.005-0.158-0.064V335.19z"/>
	<path fill="#EBEBEB" d="M293.054,327.397c0.046-0.021,0.089-0.061,0.134-0.061c0.791-0.003,1.583-0.003,2.375-0.002
		c0.093,0,0.131,0.033,0.127,0.102c-0.005,0.078-0.061,0.092-0.127,0.092c-0.792,0-1.584,0-2.375-0.004
		c-0.045,0-0.088-0.04-0.134-0.061V327.397z"/>
	<path fill="#EBEBEB" d="M293.054,328.335c0.046-0.021,0.094-0.063,0.141-0.063c0.011,0,2.414-0.011,2.43,0.004
		c0.027,0.025,0.063,0.061,0.063,0.092c0,0.029-0.038,0.064-0.066,0.085c-0.019,0.014,0.134,0.007-2.406,0.009
		c-0.063,0-0.122-0.004-0.16-0.061V328.335z"/>
	<path fill="#EBEBEB" d="M293.054,334.254c0.046-0.021,0.091-0.058,0.136-0.058c0.793-0.004,1.582-0.004,2.373-0.004
		c0.064,0,0.124,0.011,0.127,0.095c0.004,0.063-0.04,0.099-0.13,0.099c-0.788,0-1.577,0-2.365-0.003
		c-0.047,0-0.095-0.042-0.141-0.063V334.254z"/>
	<path fill="#EBEBEB" d="M294.502,331.783c-0.8-0.082-0.977-0.743-0.001-0.884c0.277-0.041,6.586-0.517,6.648-0.517
		c2.974-0.017,2.838,1.924,0.047,1.934C301.191,332.316,294.813,331.814,294.502,331.783"/>
	<path fill="#EBEBEB" d="M296.197,327.528c0.688,0,0.976,0,1.323,0.002c0.04,0,0.089,0.018,0.115,0.043
		c0.27,0.275,2.188,2.228,2.601,2.662c-0.52,0.051-1.959,0.146-2.161,0.178c-0.069,0.01-0.099-0.021-0.129-0.069
		C297.272,329.251,296.618,328.219,296.197,327.528"/>
	<path fill="#EBEBEB" d="M296.203,335.128c0.406-0.66,1.629-2.622,1.742-2.808c0.031-0.047,0.067-0.058,0.118-0.051
		c2.44,0.196,1.963,0.145,2.161,0.176c-0.202,0.209-2.579,2.64-2.58,2.642c-0.024,0.024-0.066,0.048-0.098,0.048
		c-0.435,0.004-0.871,0.002-1.308,0.002C296.232,335.137,296.226,335.134,296.203,335.128"/>
	<path fill="#EBEBEB" d="M293.377,329.728c0.706-0.071,0.893,0.002,2.101,0.884c-0.223,0.019-0.824,0.067-1.183,0.103
		c-0.05,0.005-0.085-0.009-0.119-0.049L293.377,329.728z"/>
	<path fill="#EBEBEB" d="M293.377,332.944c0.706,0.071,0.893-0.002,2.101-0.885c-0.223-0.02-0.824-0.068-1.183-0.103
		c-0.05-0.006-0.085,0.009-0.119,0.049L293.377,332.944z"/>
	<rect x="277.704" y="327.128" fill="#666A84" width="13.046" height="1.581"/>
	<rect x="277.704" y="329.926" fill="#666A84" width="13.046" height="1.582"/>
	<rect x="277.704" y="332.728" fill="#666A84" width="13.046" height="1.58"/>
</g>
</svg>
