<?xml version="1.0" encoding="utf-8"?>
<!-- Generator: Adobe Illustrator 15.1.0, SVG Export Plug-In . SVG Version: 6.00 Build 0)  -->
<!DOCTYPE svg PUBLIC "-//W3C//DTD SVG 1.1//EN" "http://www.w3.org/Graphics/SVG/1.1/DTD/svg11.dtd">
<svg version="1.1" id="Layer_35" xmlns="http://www.w3.org/2000/svg" xmlns:xlink="http://www.w3.org/1999/xlink" x="0px" y="0px"
	 width="512px" height="512px" viewBox="0 0 512 512" enable-background="new 0 0 512 512" xml:space="preserve">
<g>
	<path fill="#B75A44" d="M414.914,144.955c-2.626-39.063-99.916-156.597-230.542-31.515c0,0-49.116,43.507-59.299,105.641
		c-7.128,43.453,8.477,97.832,57.298,145.065C316.332,493.702,420.176,223.103,414.914,144.955z"/>
	<path fill="#963E2D" d="M207.594,93.454c-2.635,46.092,19.303,94.627,62.2,126.339c38.094,28.164,84.043,36.592,124.17,26.917
		c-36.416,99.443-116.372,209.534-211.592,117.437c-48.821-47.233-64.426-101.612-57.298-145.065
		c10.183-62.134,59.299-105.641,59.299-105.641C192.244,105.917,199.984,99.296,207.594,93.454z"/>
	<path fill="#963E2D" d="M74.898,199.254c8.808-43.998,38.352-74.552,66.009-68.222c27.64,6.321,42.929,47.144,34.129,91.141
		c-8.809,44.022-38.372,74.567-66.021,68.234C81.362,284.078,66.078,243.259,74.898,199.254z"/>
	<path fill="#FFC397" d="M238.479,359.619c10.481,44.959,73.065,96.756,129.288,99.945c0,0,53.146-79.083,54.16-123.548
		c0.99-44.476-7.88-35.028-4.107-42.999c3.813-7.986,12.078-94.827-8.183-133.833c-13.289-25.579-118.045-48.191-157.071,49.971
		C213.551,307.283,234.56,342.76,238.479,359.619z"/>
	<path fill="#F7A27C" d="M279.892,166.458c-3.887,6.898-7.476,14.451-10.617,22.911c-40.074,108.213-18.362,147.376-14.291,165.987
		c8.707,39.669,51.743,84.137,98.264,102.236c-52.013-10.137-105.174-56.859-114.768-97.974
		c-3.919-16.859-24.928-52.336,14.087-150.464C259.767,191.055,269.201,177.088,279.892,166.458z"/>
	<path fill="#F7A27C" d="M417.82,293.018c1.963-4.14,7.021-17.375,6.563-34.792c-3.616-2.635-7.308-21.659-19.409-24.302
		c-14.834-3.252-58.346-33.524-42.431,88.72c4.227,32.479,19.482,78.924,28.488,98.137c14.458-26.34,30.364-60.613,30.896-84.764
		C422.918,291.541,414.048,300.988,417.82,293.018z"/>
	<path fill="#7F4632" d="M278.255,255.182c10.735-15.293,36.735-44.979,77.967-24.184
		C325.284,224.224,307.765,227.615,278.255,255.182z"/>
	<path fill="#FFC397" d="M360.628,301.638c-7.613-2.572,0.512,17.961,0.328,27.597c-0.188,9.629,1.816,53.26,26.34,27.055
		C401.414,341.173,376.489,343.832,360.628,301.638z"/>
	<path fill="#472D1F" d="M384.706,379.467c3.146,8.052-8.702,39.855-23.444,40.159c-11.979,0.212-26.584-31.24-24.117-41.031
		C341.939,373.117,377.145,375.24,384.706,379.467z"/>
	<path fill="#FCE7DE" d="M380.353,380.674c-13.542-3.091-23.901-5.164-38.372-1.421c0,0,3.556,23.55,16.991,24.09
		C380.29,404.219,380.353,380.674,380.353,380.674z"/>
	<path fill="#5B371E" d="M307.082,280.207c1.195-10.513,7.958-18.214,15.007-17.195c7.09,1.031,11.853,10.401,10.6,20.883
		c-1.227,10.511-7.937,18.219-15.026,17.151C310.596,300.063,305.859,290.718,307.082,280.207z"/>
	<path fill="#5B371E" d="M291.576,276.272c13.419-11.325,30.926-21.504,54.598-4.693
		C323.619,266.952,308.78,270.859,291.576,276.272z"/>
	<path fill="#5B371E" d="M376.998,287.205c1.959-10.259,8.521-17.195,14.654-15.462c6.12,1.714,9.517,11.428,7.558,21.663
		c-1.969,10.245-8.512,17.162-14.647,15.403C378.416,307.116,375.07,297.439,376.998,287.205z"/>
	<path fill="#5B371E" d="M367.73,274.876c12.037-7.666,26.238-13.083,44.371,7.726C393.726,272.848,381.707,273.424,367.73,274.876z
		"/>
	<path fill="#7F4632" d="M419.579,249.122c-4.197-8.235-19.974-32.21-54.667-16.422C391.832,228.67,404.752,232.279,419.579,249.122
		z"/>
	<path fill="#FFC397" d="M242.002,291.185c-0.733-23.893-39.383-30.008-48.78-16.414
		C173.825,302.795,245.586,409.373,242.002,291.185z"/>
	<path fill="#EF8F6F" d="M235.558,292.957c-0.516-16.472-27.142-20.666-33.609-11.313
		C188.624,300.942,238.083,374.364,235.558,292.957z"/>
	<path fill="#FFC397" d="M242.538,305.676c-0.373-11.428-18.865-14.352-23.345-7.854
		C209.914,311.228,244.281,362.243,242.538,305.676z"/>
	<path fill="#963E2D" d="M271.278,346.318c-38.588-18.477-24.739-62.596-50.997-85.027l31.352-52.316
		c0,0,22.023,45.138,14.464,75.131C255.83,324.832,271.278,346.318,271.278,346.318z"/>
</g>
</svg>
